<svg width="599" height="359" viewBox="0 0 599 359" fill="none" xmlns="http://www.w3.org/2000/svg">
    <path d="M0 0H599V359H0V0Z" fill="#181818"/>
    <path fill-rule="evenodd" clip-rule="evenodd" d="M549 56C555.075 56 560 51.0751 560 45C560 38.9249 555.075 34 549 34C542.925 34 538 38.9249 538 45C538 51.0751 542.925 56 549 56ZM549 57C555.627 57 561 51.6274 561 45C561 38.3726 555.627 33 549 33C542.373 33 537 38.3726 537 45C537 51.6274 542.373 57 549 57Z" fill="#914154"/>
    <path d="M552.836 40.1997C552.9 40.1358 552.974 40.0865 553.057 40.0519C553.141 40.0173 553.228 40 553.318 40C553.409 40 553.496 40.0173 553.579 40.0519C553.663 40.0865 553.736 40.1358 553.8 40.1997C553.832 40.2314 553.86 40.2658 553.885 40.303C553.91 40.3402 553.931 40.3795 553.948 40.4209C553.965 40.4623 553.978 40.5049 553.987 40.5488C553.996 40.5927 554 40.637 554 40.6818C554 40.7266 553.996 40.7709 553.987 40.8148C553.978 40.8587 553.965 40.9014 553.948 40.9427C553.931 40.9841 553.91 41.0234 553.885 41.0606C553.86 41.0978 553.832 41.1323 553.8 41.1639L549.964 45L553.8 48.8361C553.832 48.8677 553.86 48.9022 553.885 48.9394C553.91 48.9766 553.931 49.0159 553.948 49.0573C553.965 49.0986 553.978 49.1412 553.987 49.1852C553.996 49.2291 554 49.2734 554 49.3182C554 49.363 553.996 49.4073 553.987 49.4512C553.978 49.4951 553.965 49.5378 553.948 49.5791C553.931 49.6205 553.91 49.6598 553.885 49.697C553.86 49.7342 553.832 49.7686 553.8 49.8003C553.769 49.832 553.734 49.8602 553.697 49.8851C553.66 49.9099 553.62 49.9309 553.579 49.9481C553.538 49.9652 553.495 49.9782 553.451 49.9869C553.407 49.9956 553.363 50 553.318 50C553.273 50 553.229 49.9956 553.185 49.9869C553.141 49.9782 553.099 49.9652 553.057 49.9481C553.016 49.9309 552.977 49.9099 552.939 49.8851C552.902 49.8602 552.868 49.832 552.836 49.8003L549 45.9643L545.164 49.8003C545.132 49.832 545.098 49.8602 545.061 49.8851C545.023 49.9099 544.984 49.9309 544.943 49.9481C544.901 49.9652 544.859 49.9782 544.815 49.9869C544.771 49.9956 544.727 50 544.682 50C544.637 50 544.593 49.9956 544.549 49.9869C544.505 49.9782 544.462 49.9652 544.421 49.9481C544.38 49.9309 544.34 49.9099 544.303 49.8851C544.266 49.8602 544.231 49.832 544.2 49.8003C544.136 49.7363 544.086 49.6626 544.052 49.5791C544.017 49.4956 544 49.4086 544 49.3182C544 49.2278 544.017 49.1408 544.052 49.0573C544.086 48.9738 544.136 48.9 544.2 48.8361L548.036 45L544.2 41.1639C544.168 41.1323 544.14 41.0978 544.115 41.0606C544.09 41.0234 544.069 40.9841 544.052 40.9427C544.035 40.9014 544.022 40.8587 544.013 40.8148C544.004 40.7709 544 40.7266 544 40.6818C544 40.637 544.004 40.5927 544.013 40.5488C544.022 40.5049 544.035 40.4623 544.052 40.4209C544.069 40.3795 544.09 40.3402 544.115 40.303C544.14 40.2658 544.168 40.2314 544.2 40.1997C544.231 40.168 544.266 40.1398 544.303 40.1149C544.34 40.09 544.38 40.069 544.421 40.0519C544.462 40.0348 544.505 40.0218 544.549 40.0131C544.593 40.0044 544.637 40 544.682 40C544.727 40 544.771 40.0044 544.815 40.0131C544.859 40.0218 544.901 40.0348 544.943 40.0519C544.984 40.069 545.023 40.09 545.061 40.1149C545.098 40.1398 545.132 40.168 545.164 40.1997L549 44.0358L552.836 40.1997Z" fill="#914154"/>
    <path fill-rule="evenodd" clip-rule="evenodd" d="M574 17H25C20.5817 17 17 20.5817 17 25V335C17 339.418 20.5817 343 25 343H574C578.418 343 582 339.418 582 335V25C582 20.5817 578.418 17 574 17ZM25 16C20.0294 16 16 20.0294 16 25V335C16 339.971 20.0294 344 25 344H574C578.971 344 583 339.971 583 335V25C583 20.0294 578.971 16 574 16H25Z" fill="#2C2C2C"/>
    <path d="M40 88C40 83.0294 44.0294 79 49 79H552C556.971 79 561 83.0294 561 88V235C561 239.971 556.971 244 552 244H49C44.0295 244 40 239.971 40 235V88Z" fill="#181818"/>
    <path fill-rule="evenodd" clip-rule="evenodd" d="M552 80H49C44.5817 80 41 83.5817 41 88V235C41 239.418 44.5817 243 49 243H552C556.418 243 560 239.418 560 235V88C560 83.5817 556.418 80 552 80ZM49 79C44.0294 79 40 83.0294 40 88V235C40 239.971 44.0295 244 49 244H552C556.971 244 561 239.971 561 235V88C561 83.0294 556.971 79 552 79H49Z" fill="#2C2C2C"/>
    <path fill-rule="evenodd" clip-rule="evenodd" d="M275.25 123.75C275.25 120.16 278.16 117.25 281.75 117.25C285 117.25 287.693 119.635 288.174 122.75H295.5C296.052 122.75 296.5 123.198 296.5 123.75C296.5 124.302 296.052 124.75 295.5 124.75H288.174C287.743 127.539 285.539 129.743 282.75 130.174V137.5C282.75 138.052 282.302 138.5 281.75 138.5C281.198 138.5 280.75 138.052 280.75 137.5V130.174C277.635 129.693 275.25 127 275.25 123.75ZM281.75 119.25C279.265 119.25 277.25 121.265 277.25 123.75C277.25 126.235 279.265 128.25 281.75 128.25C284.235 128.25 286.25 126.235 286.25 123.75C286.25 121.265 284.235 119.25 281.75 119.25Z" fill="#333333"/>
    <path fill-rule="evenodd" clip-rule="evenodd" d="M281.75 147.5C282.302 147.5 282.75 147.948 282.75 148.5V155.826C285.539 156.257 287.743 158.461 288.174 161.25H295.5C296.052 161.25 296.5 161.698 296.5 162.25C296.5 162.802 296.052 163.25 295.5 163.25H288.174C287.693 166.365 285 168.75 281.75 168.75C278.16 168.75 275.25 165.84 275.25 162.25C275.25 159 277.635 156.307 280.75 155.826V148.5C280.75 147.948 281.198 147.5 281.75 147.5ZM281.75 157.75C279.265 157.75 277.25 159.765 277.25 162.25C277.25 164.735 279.265 166.75 281.75 166.75C284.235 166.75 286.25 164.735 286.25 162.25C286.25 159.765 284.235 157.75 281.75 157.75Z" fill="#333333"/>
    <path fill-rule="evenodd" clip-rule="evenodd" d="M320.25 147.5C320.802 147.5 321.25 147.948 321.25 148.5V155.826C324.365 156.307 326.75 159 326.75 162.25C326.75 165.84 323.84 168.75 320.25 168.75C317 168.75 314.307 166.365 313.826 163.25H306.5C305.948 163.25 305.5 162.802 305.5 162.25C305.5 161.698 305.948 161.25 306.5 161.25H313.826C314.257 158.461 316.461 156.257 319.25 155.826V148.5C319.25 147.948 319.698 147.5 320.25 147.5ZM320.25 157.75C317.765 157.75 315.75 159.765 315.75 162.25C315.75 164.735 317.765 166.75 320.25 166.75C322.735 166.75 324.75 164.735 324.75 162.25C324.75 159.765 322.735 157.75 320.25 157.75Z" fill="#333333"/>
    <path fill-rule="evenodd" clip-rule="evenodd" d="M320.25 119.25C317.765 119.25 315.75 121.265 315.75 123.75C315.75 126.235 317.765 128.25 320.25 128.25C322.735 128.25 324.75 126.235 324.75 123.75C324.75 121.265 322.735 119.25 320.25 119.25ZM313.826 122.75C314.307 119.635 317 117.25 320.25 117.25C323.84 117.25 326.75 120.16 326.75 123.75C326.75 127 324.365 129.693 321.25 130.174V137.5C321.25 138.052 320.802 138.5 320.25 138.5C319.698 138.5 319.25 138.052 319.25 137.5V130.174C316.461 129.743 314.257 127.539 313.826 124.75H306.5C305.948 124.75 305.5 124.302 305.5 123.75C305.5 123.198 305.948 122.75 306.5 122.75H313.826Z" fill="#333333"/>
    <path fill-rule="evenodd" clip-rule="evenodd" d="M290.375 143C290.375 142.448 290.823 142 291.375 142H310.625C311.177 142 311.625 142.448 311.625 143C311.625 143.552 311.177 144 310.625 144H291.375C290.823 144 290.375 143.552 290.375 143Z" fill="#333333"/>
    <path fill-rule="evenodd" clip-rule="evenodd" d="M301 132.375C301.552 132.375 302 132.823 302 133.375V152.625C302 153.177 301.552 153.625 301 153.625C300.448 153.625 300 153.177 300 152.625V133.375C300 132.823 300.448 132.375 301 132.375Z" fill="#333333"/>
    <path d="M40 319.5C40 315.358 43.3579 312 47.5 312H551.5C555.642 312 559 315.358 559 319.5V319.5C559 323.642 555.642 327 551.5 327H47.5C43.3579 327 40 323.642 40 319.5V319.5Z" fill="#181818"/>
    <path fill-rule="evenodd" clip-rule="evenodd" d="M551.5 313H47.5C43.9101 313 41 315.91 41 319.5C41 323.09 43.9101 326 47.5 326H551.5C555.09 326 558 323.09 558 319.5C558 315.91 555.09 313 551.5 313ZM47.5 312C43.3579 312 40 315.358 40 319.5C40 323.642 43.3579 327 47.5 327H551.5C555.642 327 559 323.642 559 319.5C559 315.358 555.642 312 551.5 312H47.5Z" fill="#2C2C2C"/>
</svg>
