<svg xmlns="http://www.w3.org/2000/svg" viewBox="0 0 539.18 539.18"><defs><style>.cls-1{fill:#6589c6;stroke:#fff;stroke-miterlimit:10;stroke-width:20px;}.cls-2{fill:#fbdfba;}.cls-3{fill:#f8b62d;}.cls-4{fill:#dac4de;}.cls-5{fill:#8a71b1;}.cls-6{fill:#fff;}.cls-7{fill:#eca6aa;}.cls-8{fill:#f08d95;}</style></defs><g id="图层_2" data-name="图层 2"><g id="图层_1-2" data-name="图层 1"><circle class="cls-1" cx="269.59" cy="269.59" r="259.59"/><path class="cls-2" d="M121.7,302.24s-48.4,36.17,3.57,81.52S326,419.93,383.57,372s70.81-107,20.37-129.92S121.7,302.24,121.7,302.24Z"/><path class="cls-3" d="M235.45,418.39h0c-23.31,0-45.61-2.55-64.49-7.37-20.8-5.32-37.3-13.2-49-23.43-17.73-15.47-26.4-31.8-25.77-48.52.93-24.51,21.62-40.25,22.5-40.91l.62-.46.71-.25c.45-.17,45.51-16.27,99.48-32.15,31.73-9.35,60.31-16.79,84.93-22.14,31-6.72,55.86-10.13,73.93-10.13,12.06,0,21.13,1.46,27.73,4.46,19.6,8.9,31.28,23.44,33.78,42,4,29.48-15.85,65.53-53,96.43-15.82,13.17-39,24.1-67,31.61A330.26,330.26,0,0,1,235.45,418.39ZM124.21,306.76a56.1,56.1,0,0,0-8.59,9c-5.88,7.67-9,15.67-9.29,23.79-.48,13.47,7,27.06,22.29,40.39,20.6,18,59.53,28.28,106.81,28.28h0c58.73,0,115.59-15.73,144.86-40.08,17.15-14.26,30.75-30,39.35-45.56,8.25-14.92,11.73-29.33,10.07-41.68-2-14.94-11.65-26.74-27.89-34.12-5.18-2.35-13.09-3.54-23.52-3.54-31.25,0-85.17,11-155.93,31.83C172.59,289.71,130.43,304.55,124.21,306.76Z"/><path class="cls-4" d="M176.26,275.61s-74.38,9.85-67.59,61.81c4.42,25.47,46.53,9.85,67.59,33.28,17,15.29,43.46,7.48,62.14-4.07s41.1-1,53.32-.68,31.92,6.79,59.09-29.21c14.61-17.66,32.61-26.15,44.15-30.9s42.45-29.55,23.77-58.41-81.41-14.25-144.11,8C233.31,269.16,176.26,275.61,176.26,275.61Z"/><path class="cls-5" d="M199.89,384.29h0c-10.71,0-19.81-3.3-27-9.8l-.2-.18-.18-.2c-8.77-9.76-22-11.87-34.88-13.91-7.65-1.21-14.87-2.36-20.83-5.13a23.66,23.66,0,0,1-8.44-6.29,22.09,22.09,0,0,1-4.67-10.49l0-.21c-3.08-23.59,8.68-42.81,34-55.59a132.91,132.91,0,0,1,38-11.93h.09c.57-.06,57-6.55,97.28-20,21.34-7.57,39.65-13.19,56-17.19,19.63-4.8,35.82-7.14,49.51-7.14,10.2,0,19,1.37,26.12,4.07,8.07,3,14.28,7.87,18.45,14.32a40.4,40.4,0,0,1,6.39,16.76A36.33,36.33,0,0,1,428,277c-3.05,9.74-9.53,17.38-14.43,22.07a59,59,0,0,1-16.64,11.49c-11.58,4.77-28.53,13-42.09,29.35-9.37,12.39-18.57,20.91-28.13,26a47.09,47.09,0,0,1-23.08,5.77c-2.87,0-5.5-.21-7.82-.39-1.51-.12-2.94-.23-4.2-.27a78.81,78.81,0,0,1-13-2c-6-1.26-12.89-2.69-19.67-2.69-7,0-12.79,1.51-17.84,4.63C233,375.94,217,384.29,199.89,384.29Zm-20-17.21c5.27,4.66,12,7,20,7h0c10.63,0,23.7-4.3,35.83-11.8,6.71-4.15,14.29-6.16,23.2-6.16,7.84,0,15.23,1.54,21.76,2.91a72.56,72.56,0,0,0,11.18,1.81c1.52,0,3.08.16,4.72.29,2.24.18,4.55.36,7,.36,10.31,0,24.53-3.16,43.15-27.84l.14-.17c15-18.18,33.52-27.18,46.13-32.37a48.81,48.81,0,0,0,13.48-9.44c4-3.86,9.35-10.07,11.74-17.74,2.51-8,1.23-16-3.78-23.76-5.9-9.11-18-13.73-36-13.73-23.63,0-57,7.77-102.12,23.76l-.1,0c-21.64,7.2-47.52,12.37-65.41,15.44-18.7,3.21-32.87,4.86-33.92,5a124,124,0,0,0-34.88,11c-21.22,10.78-30.75,25.91-28.3,45,1.67,9.27,10.34,11.09,25.48,13.49,6.88,1.09,14,2.22,21,4.6C168.38,357.53,174.82,361.57,179.85,367.08Z"/><path class="cls-4" d="M134.48,311.41s4.42-6.66,14.27,0,2,18.54-8.83,8.69C132.45,313.65,134.48,311.41,134.48,311.41Z"/><path class="cls-5" d="M147.83,327.25c-2.31,0-6-.8-10.16-4.6-4.42-3.82-6.65-7.08-6.83-10a5,5,0,0,1,.89-3.28,11,11,0,0,1,8.94-4.36c3.15,0,6.5,1.19,10,3.54,4.77,3.23,7,8.18,5.61,12.63A8.58,8.58,0,0,1,147.83,327.25Zm-10-14.47a18.2,18.2,0,0,0,4.3,4.75l.06.06c2.76,2.5,4.71,2.87,5.63,2.87a1.82,1.82,0,0,0,1.93-1.23c.39-1.25-.37-3.29-2.92-5a11.66,11.66,0,0,0-6.17-2.38A4.46,4.46,0,0,0,137.84,312.78Z"/><path class="cls-4" d="M190.82,340.4s8,.66,6.87,12.49-15.27,10.72-11.87-3.54C187.87,339.69,190.82,340.4,190.82,340.4Z"/><path class="cls-5" d="M191,364.38a8.52,8.52,0,0,1-6.7-3.3c-2.34-3-3-7.39-1.76-12.48.89-4.12,2-7.06,3.51-9a5.92,5.92,0,0,1,4.68-2.64,3.94,3.94,0,0,1,.6,0,10.89,10.89,0,0,1,6.78,3.82c2.48,2.95,3.49,7.11,3,12.36a13.54,13.54,0,0,1-3.3,8.05A9.2,9.2,0,0,1,191,364.38Zm.27-20.38c-.47.7-1.31,2.38-2.09,6.05l0,.08c-.7,3-.53,5.48.47,6.74a1.7,1.7,0,0,0,1.37.72c1.43,0,3-1.72,3.35-5,.33-3.55-.26-6.2-1.7-7.65A4.4,4.4,0,0,0,191.23,344Z"/><path class="cls-4" d="M255.18,328.42s3.72,7.07-6.84,12.52-17.25-7.11-3.4-11.92C254.19,325.56,255.18,328.42,255.18,328.42Z"/><path class="cls-5" d="M243.3,345.68c-4.85,0-8.74-3-9.47-7.35a9.25,9.25,0,0,1,2.08-7.35,16.9,16.9,0,0,1,7.88-5.16,25.26,25.26,0,0,1,8.47-1.91c3.9,0,5.41,1.94,5.92,2.93h0a10.76,10.76,0,0,1,.52,7.93c-1.16,3.68-4.12,6.77-8.81,9.19A14.37,14.37,0,0,1,243.3,345.68Zm9-15a18.66,18.66,0,0,0-6.13,1.5l-.07,0c-4.14,1.43-5.77,3.58-5.53,5,.17,1,1.28,1.68,2.77,1.68a7.8,7.8,0,0,0,3.48-1c3-1.53,4.85-3.33,5.44-5.18a4.48,4.48,0,0,0,.14-2Z"/><path class="cls-4" d="M356.56,278.58s3.73,7.07-6.84,12.51-17.25-7.11-3.39-11.92C355.57,275.71,356.56,278.58,356.56,278.58Z"/><path class="cls-5" d="M344.68,295.83c-4.84,0-8.74-3-9.47-7.34a9.32,9.32,0,0,1,2.08-7.36,16.94,16.94,0,0,1,7.88-5.15,25.06,25.06,0,0,1,8.48-1.91c3.89,0,5.4,1.94,5.92,2.93h0a10.83,10.83,0,0,1,.51,7.93c-1.16,3.68-4.12,6.77-8.8,9.18A14.44,14.44,0,0,1,344.68,295.83Zm9-15a18.56,18.56,0,0,0-6.13,1.5l-.08,0c-4.13,1.44-5.76,3.59-5.53,5,.17,1,1.28,1.68,2.77,1.68a7.8,7.8,0,0,0,3.48-1c3-1.54,4.86-3.33,5.44-5.19a4.21,4.21,0,0,0,.14-2Z"/><path class="cls-4" d="M322.92,343.64s-7.54,2.64-11.37-8.61,9.58-16,12.29-1.6C325.9,343.08,322.92,343.64,322.92,343.64Z"/><path class="cls-5" d="M321,347.31a11.2,11.2,0,0,1-6.68-2.23c-2.58-1.89-4.58-4.91-6-9-1.45-4.24-1-8.38,1.08-11.36a8.58,8.58,0,0,1,7-3.7c4.12,0,9.1,3.08,10.74,11.7,1.22,5.71,1,9.65-.57,12.05a5,5,0,0,1-2.67,2.08A10.18,10.18,0,0,1,321,347.31Zm-4.55-19.45a1.85,1.85,0,0,0-1.49.86c-.84,1.17-.9,3.07-.17,5.22,1,3,2.93,6.58,6.21,6.58h.1a17.93,17.93,0,0,0-.56-6.37v-.08C319.7,329.8,317.83,327.86,316.43,327.86Z"/><path class="cls-4" d="M391.56,261.36s8-.05,8,11.83-14.25,12-12.14-2.47C388.56,260.92,391.56,261.36,391.56,261.36Z"/><path class="cls-5" d="M393.08,285.27a8.49,8.49,0,0,1-6.49-3c-1.69-1.94-3.49-5.59-2.58-12,.53-4.38,1.48-7.51,2.89-9.54a5.66,5.66,0,0,1,4.6-2.77h.23a11,11,0,0,1,7.12,3.23c2.71,2.72,4.08,6.76,4.07,12a13.38,13.38,0,0,1-2.82,8.63A9.17,9.17,0,0,1,393.08,285.27Zm-.79-20.36a18.21,18.21,0,0,0-1.54,6.22v.08c-.61,4.2.48,6,1,6.58a1.78,1.78,0,0,0,1.36.69c1.47,0,3-1.86,3-5.29s-.81-6.16-2.37-7.47A4.17,4.17,0,0,0,392.29,264.91Z"/><path class="cls-6" d="M337.19,194.64A30.57,30.57,0,1,0,285,164.15a124.21,124.21,0,0,0-61.22.74,30.57,30.57,0,1,0-51.7,32.63c-9.25,11.8-14.59,25.71-14.59,40.6,0,42.77,44,77.44,98.33,77.44s98.32-34.67,98.32-77.44C354.14,222,347.89,207,337.19,194.64Z"/><path class="cls-5" d="M255.82,320.65a126,126,0,0,1-39.89-6.34,107.83,107.83,0,0,1-32.79-17.43,84.15,84.15,0,0,1-22.41-26.2,68.19,68.19,0,0,1-8.33-32.56,70.09,70.09,0,0,1,13.59-41,35.66,35.66,0,0,1,59.94-38.06,129.91,129.91,0,0,1,56.21-.8,35.67,35.67,0,1,1,61.46,36.14c10.24,13.08,15.64,28.11,15.64,43.7a68.2,68.2,0,0,1-8.34,32.56,84.12,84.12,0,0,1-22.4,26.2,107.89,107.89,0,0,1-32.8,17.43A126,126,0,0,1,255.82,320.65Zm-58-165.13a25.47,25.47,0,0,0-21.43,39.24l2,3.05-2.23,2.85c-8.84,11.28-13.5,24.23-13.5,37.46,0,39.89,41.82,72.35,93.23,72.35s93.23-32.46,93.23-72.35c0-14.36-5.44-28.24-15.72-40.15l-2.79-3.23,2.69-3.31a25.2,25.2,0,0,0,5.69-16A25.48,25.48,0,0,0,289.74,166l-1.63,4.13-4.32-1.06a119.24,119.24,0,0,0-58.68.71l-3.66,1-2-3.22A25.32,25.32,0,0,0,197.79,155.52Z"/><path class="cls-6" d="M237.66,218.49a5.35,5.35,0,1,1-5.35-5.34A5.35,5.35,0,0,1,237.66,218.49Z"/><path class="cls-5" d="M232.31,228.94a10.45,10.45,0,1,1,10.44-10.45A10.46,10.46,0,0,1,232.31,228.94Zm0-10.7a.26.26,0,1,0,0,.51.26.26,0,0,0,0-.51Z"/><path class="cls-6" d="M290.89,216.46a5.35,5.35,0,1,1-5.35-5.35A5.36,5.36,0,0,1,290.89,216.46Z"/><path class="cls-5" d="M285.54,226.9A10.45,10.45,0,1,1,296,216.46,10.45,10.45,0,0,1,285.54,226.9Zm0-10.7a.26.26,0,0,0-.26.26.26.26,0,0,0,.26.25.25.25,0,0,0,.25-.25A.26.26,0,0,0,285.54,216.2Z"/><path class="cls-6" d="M230.62,214.54a1.92,1.92,0,1,1-1.91-1.92A1.92,1.92,0,0,1,230.62,214.54Z"/><path class="cls-6" d="M283.09,211.11a1.92,1.92,0,1,1-1.91-1.92A1.92,1.92,0,0,1,283.09,211.11Z"/><path class="cls-5" d="M264.55,239c0,2.25-2.37,4.08-5.3,4.08S254,241.29,254,239s2.37-4.08,5.3-4.08S264.55,236.79,264.55,239Z"/><path class="cls-5" d="M257.42,240.46c0,1.94.17,3.95-.94,5.54-1,1.43-3.53,1.22-4.55-.11a1.75,1.75,0,0,0-2.33-.61,1.7,1.7,0,0,0-.61,2.32,6.5,6.5,0,0,0,9.42,1.24c2.46-2,2.41-5.54,2.41-8.38a1.7,1.7,0,0,0-3.4,0Z"/><path class="cls-5" d="M257.59,242.5a7,7,0,0,0,4.69,7.18,6,6,0,0,0,7.64-3.26,1.74,1.74,0,0,0-.6-2.33,1.71,1.71,0,0,0-2.33.61,4.28,4.28,0,0,1-.81,1.27,2.45,2.45,0,0,1-.78.53,3.43,3.43,0,0,1-.61.16c.32-.06-.37,0-.5,0a3.42,3.42,0,0,1-1.11-.27c.29.11-.28-.14-.34-.17s-.65-.43-.47-.29a5.33,5.33,0,0,1-.49-.46,1.69,1.69,0,0,1-.36-.44,3.33,3.33,0,0,1-.53-2.54,1.7,1.7,0,0,0-1.7-1.7,1.74,1.74,0,0,0-1.7,1.7Z"/><ellipse class="cls-7" cx="202.24" cy="245.61" rx="15.45" ry="10.65"/><path class="cls-7" d="M331.46,239c0,5.88-6.92,10.65-15.46,10.65s-15.45-4.77-15.45-10.65,6.92-10.65,15.45-10.65S331.46,233.16,331.46,239Z"/><path class="cls-8" d="M379.89,206.92a5.1,5.1,0,0,1-1.78-9.87,47.49,47.49,0,0,0,13.22-7.65,5.09,5.09,0,1,1,6.41,7.92,57.82,57.82,0,0,1-16.07,9.27A5,5,0,0,1,379.89,206.92ZM406,186a5,5,0,0,1-2.81-.85,5.08,5.08,0,0,1-1.42-7.06,38.86,38.86,0,0,0,4.39-8.7,5.1,5.1,0,0,1,1.46-8.48,36.53,36.53,0,0,0,12.22-8.34,5.1,5.1,0,0,1,7.31,7.1,47.5,47.5,0,0,1-9.95,7.83,45.52,45.52,0,0,1-7,16.23A5.1,5.1,0,0,1,406,186Zm-15.39-11.75c-1.43,0-2.91,0-4.38-.14a59.91,59.91,0,0,1-11.28-1.67,5.1,5.1,0,0,1,2.58-9.86,49.46,49.46,0,0,0,9.34,1.36,57.56,57.56,0,0,0,6,.07,5.09,5.09,0,1,1,.42,10.18C392.37,174.21,391.47,174.23,390.57,174.23Zm-24.7-12.71a4.92,4.92,0,0,1-1.2-.14,5.08,5.08,0,0,1-3.75-6.15c1.39-5.75,6.74-11.4,14.31-15.11a5.1,5.1,0,1,1,4.49,9.15c-5.36,2.62-8.37,6.17-8.9,8.36A5.1,5.1,0,0,1,365.87,161.52Zm42.67-7.16a5.09,5.09,0,0,1-4-1.9,16.18,16.18,0,0,0-3.57-3.23,16.63,16.63,0,0,0-7.59-2.66,5.09,5.09,0,1,1,1.06-10.13,26.7,26.7,0,0,1,12.2,4.33,25.91,25.91,0,0,1,5.84,5.31,5.09,5.09,0,0,1-4,8.28ZM433,147.2a5.09,5.09,0,0,1-4.61-7.25,54.57,54.57,0,0,0,4.57-14.68A5.09,5.09,0,0,1,443,126.5a64.42,64.42,0,0,1-5.45,17.77A5.09,5.09,0,0,1,433,147.2Z"/><path class="cls-8" d="M122.35,240.92c-3.6-1.63-6.54-5-10.85-4.48-5.32.68-10.8,4.9-10.91,10.62-.09,4.57,3.64,8.23,7.12,10.65a28.88,28.88,0,0,0,9.75,4.2c6.22,1.43,13.37.59,17-5.27a3.82,3.82,0,1,0-6.6-3.86c-.09.15-.19.31-.3.46-.4.59.61-.75.16-.21a6.47,6.47,0,0,1-.73.75c-.2.19-.75.6.25-.16l-.42.29a9,9,0,0,1-1,.58c-.64.29.92-.37.27-.12l-.5.16c-.33.11-.68.19-1,.27a4.51,4.51,0,0,1-.53.09c-.72.12,1-.12.29,0-.43.05-.87.06-1.31.07a18.06,18.06,0,0,1-2.32-.14c1.41.17,0,0-.36-.08s-.92-.19-1.38-.3c-.79-.2-1.57-.44-2.34-.71-.38-.14-.76-.28-1.13-.44-.72-.28.87.38.17.08l-.73-.34a22.72,22.72,0,0,1-4-2.4c1.12.83.11.07-.14-.14s-.48-.43-.7-.65-.55-.57-.82-.86-.71-.9-.09-.08a9.33,9.33,0,0,1-.55-.84c-.12-.2-.22-.42-.32-.63.47,1,.15.34.07.08a6.21,6.21,0,0,1-.14-.62c.22,1.16.08.53.07.21s.11-1-.07.22a4.2,4.2,0,0,1,.14-.59c.07-.27.39-.9-.09.15a5.48,5.48,0,0,1,.43-.74c.44-.68-.58.69,0,.06a5,5,0,0,1,.51-.52,6.91,6.91,0,0,1,.57-.51c-.78.65-.06.07.11,0a10.48,10.48,0,0,1,1.54-.86c-.9.42-.14.06.07,0a6.59,6.59,0,0,1,.9-.23c-1.23.25-.16,0,.21.05.75,0-1-.18-.27,0a4.72,4.72,0,0,1,.54.13c.27.08.92.37-.22-.12a4.66,4.66,0,0,1,.5.25,10.23,10.23,0,0,1,1,.59,36.11,36.11,0,0,0,4.42,2.68,3.91,3.91,0,0,0,5.23-1.37c1-1.66.53-4.37-1.37-5.23Z"/><path class="cls-8" d="M125.43,242.38a15.27,15.27,0,0,1-.77-1.44c-.15-.31-.59-1.38,0,0-.13-.33-.26-.66-.38-1a25.16,25.16,0,0,1-1-3.81c-.06-.31-.11-.63-.16-.94.22,1.5,0,.28,0-.08a18.74,18.74,0,0,1-.09-2c0-.3,0-.59,0-.88s.19-1.51,0,0a9.64,9.64,0,0,1,.39-1.67c.32-1-.4.84-.06.12a5.32,5.32,0,0,1,.35-.61c.41-.65-.75.85-.12.15l.24-.23c.54-.51-.79.57-.35.25A4.13,4.13,0,0,1,124,230c-1.31.63-.54.22-.14.12l.36-.07c-1.36.23-.84.1-.51.08a6.38,6.38,0,0,1,1,0c.66.06-1.07-.17-.41-.05l.48.1c.35.08.69.19,1,.3l.54.2c.72.28-.87-.38-.15-.06.48.21,1,.46,1.42.71a11.73,11.73,0,0,1,1.16.72c.21.14.81.64-.09-.08l.47.41a8.63,8.63,0,0,1,.84.87c.18.2.61.8-.1-.16.15.2.29.42.43.64s.38.66.55,1,.37.93-.09-.21c.1.24.18.48.26.72s.21.74.3,1.11.3,1.95.12.52a23.49,23.49,0,0,1,0,5.3c0,.21,0,.41-.07.62-.09.8.14-1,0-.18-.07.49-.15,1-.23,1.46-.15.9-.33,1.8-.51,2.69-.35,1.74-.74,3.48-1,5.23a3.91,3.91,0,0,0,2.67,4.7c1.87.51,4.33-.62,4.7-2.67,1.23-6.91,3.84-14.64,1.19-21.53a14.84,14.84,0,0,0-3.44-5.38,18.36,18.36,0,0,0-6-3.64c-2.88-1.19-6.7-1.64-9.35.37-3.43,2.6-4.31,6.85-4,11a26.06,26.06,0,0,0,3.41,11.44,3.82,3.82,0,1,0,6.6-3.86Z"/></g></g></svg>