<svg width="350" height="45" viewBox="0 0 350 45" fill="none" xmlns="http://www.w3.org/2000/svg">
    <path d="M0 8C0 3.58172 3.58172 0 8 0H342C346.418 0 350 3.58172 350 8V37C350 41.4183 346.418 45 342 45H8C3.58172 45 0 41.4183 0 37V8Z" fill="#3C3C3C"/>
    <path fill-rule="evenodd" clip-rule="evenodd" d="M333.758 17.5756C333.992 17.81 333.992 18.1899 333.758 18.4242L324.424 27.7575C324.19 27.9918 323.81 27.9918 323.576 27.7575C323.341 27.5232 323.341 27.1433 323.576 26.909L332.909 17.5756C333.143 17.3413 333.523 17.3413 333.758 17.5756Z" fill="white"/>
    <path fill-rule="evenodd" clip-rule="evenodd" d="M323.576 17.5756C323.341 17.81 323.341 18.1899 323.576 18.4242L332.909 27.7575C333.143 27.9918 333.523 27.9918 333.758 27.7575C333.992 27.5232 333.992 27.1433 333.758 26.909L324.424 17.5756C324.19 17.3413 323.81 17.3413 323.576 17.5756Z" fill="white"/>
    <path fill-rule="evenodd" clip-rule="evenodd" d="M23.3333 31.6667C27.9357 31.6667 31.6667 27.9357 31.6667 23.3333C31.6667 18.731 27.9357 15 23.3333 15C18.731 15 15 18.731 15 23.3333C15 27.9357 18.731 31.6667 23.3333 31.6667ZM27.5254 21.2752C27.7695 21.0311 27.7695 20.6354 27.5254 20.3913C27.2814 20.1472 26.8856 20.1472 26.6416 20.3913L22.3236 24.7093L20.6685 22.9101C20.4348 22.6561 20.0394 22.6396 19.7853 22.8733C19.5313 23.107 19.5148 23.5024 19.7485 23.7564L21.8448 26.0351C21.9601 26.1604 22.1215 26.2333 22.2918 26.2368C22.462 26.2404 22.6263 26.1743 22.7467 26.0539L27.5254 21.2752Z" fill="white"/>
</svg>
