<svg width="350" height="45" viewBox="0 0 350 45" fill="none" xmlns="http://www.w3.org/2000/svg">
    <path d="M0 8C0 3.58172 3.58172 0 8 0H342C346.418 0 350 3.58172 350 8V37C350 41.4183 346.418 45 342 45H8C3.58172 45 0 41.4183 0 37V8Z" fill="#C68658"/>
    <path fill-rule="evenodd" clip-rule="evenodd" d="M333.758 17.5756C333.992 17.81 333.992 18.1899 333.758 18.4242L324.424 27.7575C324.19 27.9918 323.81 27.9918 323.576 27.7575C323.341 27.5232 323.341 27.1433 323.576 26.909L332.909 17.5756C333.143 17.3413 333.523 17.3413 333.758 17.5756Z" fill="white"/>
    <path fill-rule="evenodd" clip-rule="evenodd" d="M323.576 17.5756C323.341 17.81 323.341 18.1899 323.576 18.4242L332.909 27.7575C333.143 27.9918 333.523 27.9918 333.758 27.7575C333.992 27.5232 333.992 27.1433 333.758 26.909L324.424 17.5756C324.19 17.3413 323.81 17.3413 323.576 17.5756Z" fill="white"/>
    <path d="M31.6667 23.3333C31.6667 27.9357 27.9357 31.6667 23.3333 31.6667C18.731 31.6667 15 27.9357 15 23.3333C15 18.731 18.731 15 23.3333 15C27.9357 15 31.6667 18.731 31.6667 23.3333Z" fill="white"/>
    <path fill-rule="evenodd" clip-rule="evenodd" d="M23.0833 18C22.669 18 22.3333 18.3358 22.3333 18.75V23.0833C22.3333 23.4975 22.669 23.8333 23.0833 23.8333C23.4975 23.8333 23.8333 23.4975 23.8333 23.0833V18.75C23.8333 18.3358 23.4975 18 23.0833 18ZM22 26.5417C22 25.9664 22.4664 25.5 23.0417 25.5C23.617 25.5 24.0833 25.9664 24.0833 26.5417C24.0833 27.117 23.617 27.5833 23.0417 27.5833C22.4664 27.5833 22 27.117 22 26.5417Z" fill="#C68658"/>
</svg>
