<svg width="599" height="359" viewBox="0 0 599 359" fill="none" xmlns="http://www.w3.org/2000/svg">
    <path d="M0 0H599V359H0V0Z" fill="#181818"/>
    <path fill-rule="evenodd" clip-rule="evenodd" d="M574 17H25C20.5817 17 17 20.5817 17 25V335C17 339.418 20.5817 343 25 343H574C578.418 343 582 339.418 582 335V25C582 20.5817 578.418 17 574 17ZM25 16C20.0294 16 16 20.0294 16 25V335C16 339.971 20.0294 344 25 344H574C578.971 344 583 339.971 583 335V25C583 20.0294 578.971 16 574 16H25Z" fill="#2C2C2C"/>
    <path d="M82 288C82 284.686 84.6863 282 88 282H206C209.314 282 212 284.686 212 288V308C212 311.314 209.314 314 206 314H88C84.6863 314 82 311.314 82 308V288Z" fill="#181818"/>
    <path fill-rule="evenodd" clip-rule="evenodd" d="M206 283H88C85.2386 283 83 285.239 83 288V308C83 310.761 85.2386 313 88 313H206C208.761 313 211 310.761 211 308V288C211 285.239 208.761 283 206 283ZM88 282C84.6863 282 82 284.686 82 288V308C82 311.314 84.6863 314 88 314H206C209.314 314 212 311.314 212 308V288C212 284.686 209.314 282 206 282H88Z" fill="#323232"/>
</svg>
