<svg width="600" height="500" viewBox="0 0 600 500" fill="none" xmlns="http://www.w3.org/2000/svg">
<rect width="600" height="500" fill="#181818"/>
<path d="M17 76C17 66.6112 24.6112 59 34 59H566C575.389 59 583 66.6112 583 76V201C583 210.389 575.389 218 566 218H34C24.6111 218 17 210.389 17 201V76Z" fill="#151515"/>
<path d="M222 440C222 436.686 224.686 434 228 434H371C374.314 434 377 436.686 377 440V475C377 478.314 374.314 481 371 481H228C224.686 481 222 478.314 222 475V440Z" fill="#181818"/>
<path fill-rule="evenodd" clip-rule="evenodd" d="M371 435H228C225.239 435 223 437.239 223 440V475C223 477.761 225.239 480 228 480H371C373.761 480 376 477.761 376 475V440C376 437.239 373.761 435 371 435ZM228 434C224.686 434 222 436.686 222 440V475C222 478.314 224.686 481 228 481H371C374.314 481 377 478.314 377 475V440C377 436.686 374.314 434 371 434H228Z" fill="#323232"/>
<path fill-rule="evenodd" clip-rule="evenodd" d="M566 62H34C26.268 62 20 68.268 20 76V201C20 208.732 26.268 215 34 215H566C573.732 215 580 208.732 580 201V76C580 68.268 573.732 62 566 62ZM34 59C24.6112 59 17 66.6112 17 76V201C17 210.389 24.6111 218 34 218H566C575.389 218 583 210.389 583 201V76C583 66.6112 575.389 59 566 59H34Z" fill="#292929"/>
<path d="M17 293C17 283.611 24.6112 276 34 276H566C575.389 276 583 283.611 583 293V393C583 402.389 575.389 410 566 410H34C24.6111 410 17 402.389 17 393V293Z" fill="#151515"/>
<path fill-rule="evenodd" clip-rule="evenodd" d="M566 279H34C26.268 279 20 285.268 20 293V393C20 400.732 26.268 407 34 407H566C573.732 407 580 400.732 580 393V293C580 285.268 573.732 279 566 279ZM34 276C24.6112 276 17 283.611 17 293V393C17 402.389 24.6111 410 34 410H566C575.389 410 583 402.389 583 393V293C583 283.611 575.389 276 566 276H34Z" fill="#292929"/>
</svg>
