<svg width="600" height="594" viewBox="0 0 600 594" fill="none" xmlns="http://www.w3.org/2000/svg">
    <rect width="600" height="594" fill="#181818"/>
    <path fill-rule="evenodd" clip-rule="evenodd" d="M563 29H37C33.134 29 30 32.134 30 36V348C30 351.866 33.134 355 37 355H563C566.866 355 570 351.866 570 348V36C570 32.134 566.866 29 563 29ZM37 27C32.0294 27 28 31.0294 28 36V348C28 352.971 32.0294 357 37 357H563C567.971 357 572 352.971 572 348V36C572 31.0294 567.971 27 563 27H37Z" fill="#2C2C2C"/>
    <path d="M47 76C47 74.3431 48.3431 73 50 73H496C497.657 73 499 74.3431 499 76V102C499 103.657 497.657 105 496 105H50C48.3431 105 47 103.657 47 102V76Z" fill="#151515"/>
    <path fill-rule="evenodd" clip-rule="evenodd" d="M496 74H50C48.8954 74 48 74.8954 48 76V102C48 103.105 48.8954 104 50 104H496C497.105 104 498 103.105 498 102V76C498 74.8954 497.105 74 496 74ZM50 73C48.3431 73 47 74.3431 47 76V102C47 103.657 48.3431 105 50 105H496C497.657 105 499 103.657 499 102V76C499 74.3431 497.657 73 496 73H50Z" fill="#313131"/>
    <path d="M516 79C516 75.6863 518.686 73 522 73H543C546.314 73 549 75.6863 549 79V99C549 102.314 546.314 105 543 105H522C518.686 105 516 102.314 516 99V79Z" fill="#151515"/>
    <path fill-rule="evenodd" clip-rule="evenodd" d="M543 74H522C519.239 74 517 76.2386 517 79V99C517 101.761 519.239 104 522 104H543C545.761 104 548 101.761 548 99V79C548 76.2386 545.761 74 543 74ZM522 73C518.686 73 516 75.6863 516 79V99C516 102.314 518.686 105 522 105H543C546.314 105 549 102.314 549 99V79C549 75.6863 546.314 73 543 73H522Z" fill="#4F4F4F"/>
    <path fill-rule="evenodd" clip-rule="evenodd" d="M521.919 79.0262C522.518 78.3816 523.352 78 524.244 78H530.165C530.496 78.0001 530.822 78.0705 531.122 78.2042C531.421 78.3378 531.687 78.5307 531.907 78.7673L534.24 81.2769C534.414 81.4644 534.631 81.5515 534.835 81.5518H540.756C541.648 81.5518 542.482 81.9334 543.081 82.578C543.678 83.2198 544 84.0736 544 84.9482V95.6036C544 96.4782 543.678 97.332 543.081 97.9738C542.482 98.6184 541.648 99 540.756 99H524.244C523.352 99 522.518 98.6184 521.919 97.9738C521.322 97.332 521 96.4782 521 95.6036V81.3964C521 80.5218 521.322 79.668 521.919 79.0262ZM522.533 88.5V95.6036C522.533 96.1419 522.733 96.6433 523.065 97.0007C523.395 97.3552 523.821 97.5349 524.244 97.5349H540.756C541.179 97.5349 541.605 97.3552 541.935 97.0007C542.267 96.6433 542.467 96.1419 542.467 95.6036V88.5C542.467 87.9617 542.267 87.4603 541.935 87.1029C541.605 86.7484 541.179 86.5687 540.756 86.5687H524.244C523.821 86.5687 523.395 86.7484 523.065 87.1029C522.733 87.4603 522.533 87.9617 522.533 88.5ZM542.467 85.6132C541.963 85.2866 541.374 85.1036 540.756 85.1036H524.244C523.626 85.1036 523.037 85.2866 522.533 85.6132V81.3964C522.533 80.8581 522.733 80.3567 523.065 79.9993C523.395 79.6448 523.821 79.4651 524.244 79.4651H530.165C530.165 79.4651 530.165 79.4651 530.165 79.4651C530.268 79.4652 530.372 79.4868 530.473 79.5318C530.574 79.577 530.673 79.646 530.76 79.7397L533.093 82.2496C533.093 82.2495 533.094 82.2498 533.093 82.2496C533.538 82.7281 534.163 83.0163 534.834 83.0169L540.756 83.0169C541.179 83.0169 541.605 83.1966 541.935 83.5511C542.267 83.9085 542.467 84.4099 542.467 84.9482V85.6132Z" fill="#6C6C6C"/>
    <path d="M59 159C59 157.343 60.3431 156 62 156H335C336.657 156 338 157.343 338 159V191C338 192.657 336.657 194 335 194H62C60.3431 194 59 192.657 59 191V159Z" fill="#181818"/>
    <path fill-rule="evenodd" clip-rule="evenodd" d="M335 157H62C60.8954 157 60 157.895 60 159V191C60 192.105 60.8954 193 62 193H335C336.105 193 337 192.105 337 191V159C337 157.895 336.105 157 335 157ZM62 156C60.3431 156 59 157.343 59 159V191C59 192.657 60.3431 194 62 194H335C336.657 194 338 192.657 338 191V159C338 157.343 336.657 156 335 156H62Z" fill="#323232"/>
    <path d="M479 162C479 158.686 481.686 156 485 156H539C542.314 156 545 158.686 545 162V188C545 191.314 542.314 194 539 194H485C481.686 194 479 191.314 479 188V162Z" fill="#181818"/>
    <path fill-rule="evenodd" clip-rule="evenodd" d="M539 157H485C482.239 157 480 159.239 480 162V188C480 190.761 482.239 193 485 193H539C541.761 193 544 190.761 544 188V162C544 159.239 541.761 157 539 157ZM485 156C481.686 156 479 158.686 479 162V188C479 191.314 481.686 194 485 194H539C542.314 194 545 191.314 545 188V162C545 158.686 542.314 156 539 156H485Z" fill="#323232"/>
    <path d="M346 162C346 158.686 348.686 156 352 156H463C466.314 156 469 158.686 469 162V188C469 191.314 466.314 194 463 194H352C348.686 194 346 191.314 346 188V162Z" fill="#181818"/>
    <path fill-rule="evenodd" clip-rule="evenodd" d="M463 157H352C349.239 157 347 159.239 347 162V188C347 190.761 349.239 193 352 193H463C465.761 193 468 190.761 468 188V162C468 159.239 465.761 157 463 157ZM352 156C348.686 156 346 158.686 346 162V188C346 191.314 348.686 194 352 194H463C466.314 194 469 191.314 469 188V162C469 158.686 466.314 156 463 156H352Z" fill="#323232"/>
    <rect x="49.5" y="144.5" width="501" height="190" rx="3.5" stroke="#2D2D2D"/>
    <path fill-rule="evenodd" clip-rule="evenodd" d="M563 370H37C33.134 370 30 373.134 30 377V556C30 559.866 33.134 563 37 563H563C566.866 563 570 559.866 570 556V377C570 373.134 566.866 370 563 370ZM37 368C32.0294 368 28 372.029 28 377V556C28 560.971 32.0294 565 37 565H563C567.971 565 572 560.971 572 556V377C572 372.029 567.971 368 563 368H37Z" fill="#2C2C2C"/>
    <path d="M210 390C210 388.343 211.343 387 213 387H483C484.657 387 486 388.343 486 390V416C486 417.657 484.657 419 483 419H213C211.343 419 210 417.657 210 416V390Z" fill="#151515"/>
    <path fill-rule="evenodd" clip-rule="evenodd" d="M483 388H213C211.895 388 211 388.895 211 390V416C211 417.105 211.895 418 213 418H483C484.105 418 485 417.105 485 416V390C485 388.895 484.105 388 483 388ZM213 387C211.343 387 210 388.343 210 390V416C210 417.657 211.343 419 213 419H483C484.657 419 486 417.657 486 416V390C486 388.343 484.657 387 483 387H213Z" fill="#313131"/>
    <path d="M211 433C211 431.343 212.343 430 214 430H473C474.657 430 476 431.343 476 433V459C476 460.657 474.657 462 473 462H214C212.343 462 211 460.657 211 459V433Z" fill="#151515"/>
    <path fill-rule="evenodd" clip-rule="evenodd" d="M473 431H214C212.895 431 212 431.895 212 433V459C212 460.105 212.895 461 214 461H473C474.105 461 475 460.105 475 459V433C475 431.895 474.105 431 473 431ZM214 430C212.343 430 211 431.343 211 433V459C211 460.657 212.343 462 214 462H473C474.657 462 476 460.657 476 459V433C476 431.343 474.657 430 473 430H214Z" fill="#313131"/>
    <path d="M114 519C114 517.343 115.343 516 117 516H470C471.657 516 473 517.343 473 519V545C473 546.657 471.657 548 470 548H117C115.343 548 114 546.657 114 545V519Z" fill="#151515"/>
    <path fill-rule="evenodd" clip-rule="evenodd" d="M470 517H117C115.895 517 115 517.895 115 519V545C115 546.105 115.895 547 117 547H470C471.105 547 472 546.105 472 545V519C472 517.895 471.105 517 470 517ZM117 516C115.343 516 114 517.343 114 519V545C114 546.657 115.343 548 117 548H470C471.657 548 473 546.657 473 545V519C473 517.343 471.657 516 470 516H117Z" fill="#313131"/>
    <path d="M495 393C495 389.686 497.686 387 501 387H555C558.314 387 561 389.686 561 393V413C561 416.314 558.314 419 555 419H501C497.686 419 495 416.314 495 413V393Z" fill="#181818"/>
    <path fill-rule="evenodd" clip-rule="evenodd" d="M555 388H501C498.239 388 496 390.239 496 393V413C496 415.761 498.239 418 501 418H555C557.761 418 560 415.761 560 413V393C560 390.239 557.761 388 555 388ZM501 387C497.686 387 495 389.686 495 393V413C495 416.314 497.686 419 501 419H555C558.314 419 561 416.314 561 413V393C561 389.686 558.314 387 555 387H501Z" fill="#323232"/>
    <path d="M484 436C484 432.686 486.686 430 490 430H555C558.314 430 561 432.686 561 436V456C561 459.314 558.314 462 555 462H490C486.686 462 484 459.314 484 456V436Z" fill="#454B57"/>
    <path fill-rule="evenodd" clip-rule="evenodd" d="M555 431H490C487.239 431 485 433.239 485 436V456C485 458.761 487.239 461 490 461H555C557.761 461 560 458.761 560 456V436C560 433.239 557.761 431 555 431ZM490 430C486.686 430 484 432.686 484 436V456C484 459.314 486.686 462 490 462H555C558.314 462 561 459.314 561 456V436C561 432.686 558.314 430 555 430H490Z" fill="#323232"/>
    <path d="M484 522C484 518.686 486.686 516 490 516H555C558.314 516 561 518.686 561 522V542C561 545.314 558.314 548 555 548H490C486.686 548 484 545.314 484 542V522Z" fill="#181818"/>
    <path fill-rule="evenodd" clip-rule="evenodd" d="M555 517H490C487.239 517 485 519.239 485 522V542C485 544.761 487.239 547 490 547H555C557.761 547 560 544.761 560 542V522C560 519.239 557.761 517 555 517ZM490 516C486.686 516 484 518.686 484 522V542C484 545.314 486.686 548 490 548H555C558.314 548 561 545.314 561 542V522C561 518.686 558.314 516 555 516H490Z" fill="#323232"/>
</svg>
