<svg width="38" height="38" viewBox="0 0 38 38" fill="none" xmlns="http://www.w3.org/2000/svg">
    <rect width="38" height="38" fill="#171717"/>
    <path d="M0 19C0 8.50659 8.50659 0 19 0V0C29.4934 0 38 8.50659 38 19V19C38 29.4934 29.4934 38 19 38V38C8.50659 38 0 29.4934 0 19V19Z" fill="#232323"/>
    <path fill-rule="evenodd" clip-rule="evenodd" d="M1 19C1 28.9411 9.05888 37 19 37C28.9411 37 37 28.9411 37 19C37 9.05888 28.9411 1 19 1C9.05888 1 1 9.05888 1 19ZM19 0C8.50659 0 0 8.50659 0 19C0 29.4934 8.50659 38 19 38C29.4934 38 38 29.4934 38 19C38 8.50659 29.4934 0 19 0Z" fill="#3D3D3D"/>
    <path fill-rule="evenodd" clip-rule="evenodd" d="M18.5 9.25C14.0817 9.25 10.5 12.8317 10.5 17.25C10.5 20.5884 12.5452 23.4515 15.4544 24.6502H21.5456C24.4548 23.4515 26.5 20.5884 26.5 17.25C26.5 12.8317 22.9183 9.25 18.5 9.25ZM8.5 17.25C8.5 11.7271 12.9771 7.25 18.5 7.25C24.0229 7.25 28.5 11.7271 28.5 17.25C28.5 21.5064 25.8412 25.1393 22.0973 26.5832C21.9825 26.6274 21.8605 26.6502 21.7375 26.6502H15.2625C15.1395 26.6502 15.0175 26.6274 14.9027 26.5832C11.1588 25.1393 8.5 21.5064 8.5 17.25Z" fill="#5C5C5C"/>
    <path fill-rule="evenodd" clip-rule="evenodd" d="M15.1797 24.6536C15.7301 24.6077 16.2134 25.0167 16.2593 25.5671L16.6079 29.75H20.3926L20.7412 25.5671C20.7871 25.0167 21.2704 24.6077 21.8208 24.6536C22.3712 24.6995 22.7802 25.1828 22.7343 25.7332L22.3523 30.3173L22.3523 30.3173C22.2848 31.1273 21.6077 31.75 20.7952 31.75H16.2053C15.3929 31.75 14.7157 31.1273 14.6483 30.3173C14.6482 30.3172 14.6482 30.3172 14.6482 30.3171L14.2662 25.7332C14.2203 25.1828 14.6293 24.6995 15.1797 24.6536Z" fill="#5C5C5C"/>
    <path fill-rule="evenodd" clip-rule="evenodd" d="M15.125 14.5625C15.6773 14.5625 16.125 15.0102 16.125 15.5625V17.3195L18.0528 16.3556C18.3343 16.2148 18.6657 16.2148 18.9472 16.3556L20.875 17.3195V15.5625C20.875 15.0102 21.3227 14.5625 21.875 14.5625C22.4273 14.5625 22.875 15.0102 22.875 15.5625V18.9375C22.875 19.2841 22.6955 19.6059 22.4007 19.7882C22.1059 19.9704 21.7378 19.9869 21.4278 19.8319L18.5 18.368L15.5722 19.8319C15.2622 19.9869 14.8941 19.9704 14.5993 19.7882C14.3045 19.6059 14.125 19.2841 14.125 18.9375V15.5625C14.125 15.0102 14.5727 14.5625 15.125 14.5625Z" fill="#5C5C5C"/>
</svg>
