<svg width="600" height="550" viewBox="0 0 600 550" fill="none" xmlns="http://www.w3.org/2000/svg">
    <g clip-path="url(#clip0_53_47)">
        <path d="M0.5 0.5H599.5V549.5H0.5V0.5Z" fill="#181818" stroke="#262626"/>
        <path fill-rule="evenodd" clip-rule="evenodd" d="M575 84H27C23.134 84 20 87.134 20 91V285C20 288.866 23.134 292 27 292H575C578.866 292 582 288.866 582 285V91C582 87.134 578.866 84 575 84ZM27 82C22.0294 82 18 86.0294 18 91V285C18 289.971 22.0295 294 27 294H575C579.971 294 584 289.971 584 285V91C584 86.0294 579.971 82 575 82H27Z" fill="#2C2C2C"/>
        <path fill-rule="evenodd" clip-rule="evenodd" d="M575 310H27C23.134 310 20 313.134 20 317V454C20 457.866 23.134 461 27 461H575C578.866 461 582 457.866 582 454V317C582 313.134 578.866 310 575 310ZM27 308C22.0294 308 18 312.029 18 317V454C18 458.971 22.0295 463 27 463H575C579.971 463 584 458.971 584 454V317C584 312.029 579.971 308 575 308H27Z" fill="#2C2C2C"/>
        <path d="M33 411C33 409.343 34.4967 408 36.343 408H565.657C567.503 408 569 409.343 569 411V437C569 438.657 567.503 440 565.657 440H36.343C34.4968 440 33 438.657 33 437V411Z" fill="#151515"/>
        <path fill-rule="evenodd" clip-rule="evenodd" d="M565.657 409H36.343C35.1121 409 34.1143 409.895 34.1143 411V437C34.1143 438.105 35.1121 439 36.343 439H565.657C566.888 439 567.886 438.105 567.886 437V411C567.886 409.895 566.888 409 565.657 409ZM36.343 408C34.4967 408 33 409.343 33 411V437C33 438.657 34.4968 440 36.343 440H565.657C567.503 440 569 438.657 569 437V411C569 409.343 567.503 408 565.657 408H36.343Z" fill="#313131"/>
        <path d="M33 348C33 346.343 34.3431 345 36 345H566C567.657 345 569 346.343 569 348V374C569 375.657 567.657 377 566 377H36C34.3431 377 33 375.657 33 374V348Z" fill="#151515"/>
        <path fill-rule="evenodd" clip-rule="evenodd" d="M566 346H36C34.8954 346 34 346.895 34 348V374C34 375.105 34.8954 376 36 376H566C567.105 376 568 375.105 568 374V348C568 346.895 567.105 346 566 346ZM36 345C34.3431 345 33 346.343 33 348V374C33 375.657 34.3431 377 36 377H566C567.657 377 569 375.657 569 374V348C569 346.343 567.657 345 566 345H36Z" fill="#313131"/>
        <path d="M189 73H408V96H189V73Z" fill="#181818"/>
        <path d="M144.008 122.191C144.008 122.465 143.912 122.697 143.721 122.889C143.529 123.08 143.297 123.176 143.023 123.176C142.75 123.176 142.518 123.08 142.326 122.889C142.144 122.697 142.053 122.465 142.053 122.191C142.053 121.918 142.148 121.69 142.34 121.508C142.531 121.316 142.759 121.221 143.023 121.221C143.297 121.221 143.529 121.316 143.721 121.508C143.912 121.69 144.008 121.918 144.008 122.191ZM144.008 128.084C144.008 128.357 143.912 128.59 143.721 128.781C143.529 128.973 143.297 129.068 143.023 129.068C142.75 129.068 142.518 128.973 142.326 128.781C142.144 128.59 142.053 128.357 142.053 128.084C142.053 127.811 142.148 127.583 142.34 127.4C142.531 127.209 142.759 127.113 143.023 127.113C143.297 127.113 143.529 127.209 143.721 127.4C143.912 127.583 144.008 127.811 144.008 128.084Z" fill="#282828"/>
        <path d="M128.274 120.404H129.338V130.134H128.274V120.404ZM128.47 117.926L129.282 117.436C129.94 118.01 130.696 118.85 131.046 119.424L130.164 119.998C129.856 119.424 129.114 118.556 128.47 117.926ZM131.914 118.038H139.292V119.018H131.914V118.038ZM138.69 118.038H139.768V128.846C139.768 129.434 139.656 129.714 139.292 129.882C138.914 130.05 138.312 130.064 137.444 130.064C137.402 129.798 137.262 129.364 137.122 129.084C137.71 129.112 138.284 129.098 138.452 129.098C138.648 129.098 138.69 129.028 138.69 128.846V118.038ZM132.292 124.87V126.76H135.666V124.87H132.292ZM132.292 122.126V124.002H135.666V122.126H132.292ZM131.34 121.258H136.66V127.642H131.34V121.258Z" fill="#282828"/>
        <path d="M114.638 118.416H118.516V127.53H114.638V126.578H117.536V119.368H114.638V118.416ZM114.694 122.434H117.9V123.372H114.694V122.434ZM114.134 118.416H115.128V128.65H114.134V118.416ZM119.146 120.054H126.454V121.09H119.146V120.054ZM123.696 117.324H124.76V128.538C124.76 129.308 124.55 129.63 124.046 129.798C123.542 129.966 122.66 129.994 121.246 129.98C121.19 129.686 121.022 129.21 120.868 128.916C121.96 128.944 122.982 128.944 123.29 128.93C123.584 128.916 123.696 128.832 123.696 128.538V117.324ZM119.622 122.672L120.49 122.224C121.246 123.288 122.212 124.716 122.688 125.556L121.764 126.102C121.316 125.248 120.378 123.75 119.622 122.672Z" fill="#282828"/>
        <path d="M106 112C106 109.791 107.791 108 110 108H230C232.209 108 234 109.791 234 112V135C234 137.209 232.209 139 230 139H110C107.791 139 106 137.209 106 135V112Z" fill="#151515"/>
        <path fill-rule="evenodd" clip-rule="evenodd" d="M230 109H110C108.343 109 107 110.343 107 112V135C107 136.657 108.343 138 110 138H230C231.657 138 233 136.657 233 135V112C233 110.343 231.657 109 230 109ZM110 108C107.791 108 106 109.791 106 112V135C106 137.209 107.791 139 110 139H230C232.209 139 234 137.209 234 135V112C234 109.791 232.209 108 230 108H110Z" fill="#2C2C2C"/>
        <path d="M245 112C245 109.791 246.791 108 249 108H313C315.209 108 317 109.791 317 112V135C317 137.209 315.209 139 313 139H249C246.791 139 245 137.209 245 135V112Z" fill="#151515"/>
        <path fill-rule="evenodd" clip-rule="evenodd" d="M313 109H249C247.343 109 246 110.343 246 112V135C246 136.657 247.343 138 249 138H313C314.657 138 316 136.657 316 135V112C316 110.343 314.657 109 313 109ZM249 108C246.791 108 245 109.791 245 112V135C245 137.209 246.791 139 249 139H313C315.209 139 317 137.209 317 135V112C317 109.791 315.209 108 313 108H249Z" fill="#2C2C2C"/>
        <path d="M328 112C328 109.791 329.791 108 332 108H375C377.209 108 379 109.791 379 112V135C379 137.209 377.209 139 375 139H332C329.791 139 328 137.209 328 135V112Z" fill="#151515"/>
        <path fill-rule="evenodd" clip-rule="evenodd" d="M375 109H332C330.343 109 329 110.343 329 112V135C329 136.657 330.343 138 332 138H375C376.657 138 378 136.657 378 135V112C378 110.343 376.657 109 375 109ZM332 108C329.791 108 328 109.791 328 112V135C328 137.209 329.791 139 332 139H375C377.209 139 379 137.209 379 135V112C379 109.791 377.209 108 375 108H332Z" fill="#2C2C2C"/>
        <path d="M388 112C388 109.791 389.791 108 392 108H435C437.209 108 439 109.791 439 112V135C439 137.209 437.209 139 435 139H392C389.791 139 388 137.209 388 135V112Z" fill="#151515"/>
        <path fill-rule="evenodd" clip-rule="evenodd" d="M435 109H392C390.343 109 389 110.343 389 112V135C389 136.657 390.343 138 392 138H435C436.657 138 438 136.657 438 135V112C438 110.343 436.657 109 435 109ZM392 108C389.791 108 388 109.791 388 112V135C388 137.209 389.791 139 392 139H435C437.209 139 439 137.209 439 135V112C439 109.791 437.209 108 435 108H392Z" fill="#2C2C2C"/>
        <path d="M448 112C448 109.791 449.791 108 452 108H495C497.209 108 499 109.791 499 112V135C499 137.209 497.209 139 495 139H452C449.791 139 448 137.209 448 135V112Z" fill="#151515"/>
        <path fill-rule="evenodd" clip-rule="evenodd" d="M495 109H452C450.343 109 449 110.343 449 112V135C449 136.657 450.343 138 452 138H495C496.657 138 498 136.657 498 135V112C498 110.343 496.657 109 495 109ZM452 108C449.791 108 448 109.791 448 112V135C448 137.209 449.791 139 452 139H495C497.209 139 499 137.209 499 135V112C499 109.791 497.209 108 495 108H452Z" fill="#2C2C2C"/>
        <path d="M508 112C508 109.791 509.791 108 512 108H555C557.209 108 559 109.791 559 112V135C559 137.209 557.209 139 555 139H512C509.791 139 508 137.209 508 135V112Z" fill="#151515"/>
        <path fill-rule="evenodd" clip-rule="evenodd" d="M555 109H512C510.343 109 509 110.343 509 112V135C509 136.657 510.343 138 512 138H555C556.657 138 558 136.657 558 135V112C558 110.343 556.657 109 555 109ZM512 108C509.791 108 508 109.791 508 112V135C508 137.209 509.791 139 512 139H555C557.209 139 559 137.209 559 135V112C559 109.791 557.209 108 555 108H512Z" fill="#2C2C2C"/>
        <path d="M106 154C106 151.791 107.791 150 110 150H280C282.209 150 284 151.791 284 154V177C284 179.209 282.209 181 280 181H110C107.791 181 106 179.209 106 177V154Z" fill="#151515"/>
        <path fill-rule="evenodd" clip-rule="evenodd" d="M280 151H110C108.343 151 107 152.343 107 154V177C107 178.657 108.343 180 110 180H280C281.657 180 283 178.657 283 177V154C283 152.343 281.657 151 280 151ZM110 150C107.791 150 106 151.791 106 154V177C106 179.209 107.791 181 110 181H280C282.209 181 284 179.209 284 177V154C284 151.791 282.209 150 280 150H110Z" fill="#2C2C2C"/>
        <path d="M293 154C293 151.791 294.791 150 297 150H471C473.209 150 475 151.791 475 154V177C475 179.209 473.209 181 471 181H297C294.791 181 293 179.209 293 177V154Z" fill="#151515"/>
        <path fill-rule="evenodd" clip-rule="evenodd" d="M471 151H297C295.343 151 294 152.343 294 154V177C294 178.657 295.343 180 297 180H471C472.657 180 474 178.657 474 177V154C474 152.343 472.657 151 471 151ZM297 150C294.791 150 293 151.791 293 154V177C293 179.209 294.791 181 297 181H471C473.209 181 475 179.209 475 177V154C475 151.791 473.209 150 471 150H297Z" fill="#2C2C2C"/>
        <path d="M483 154C483 151.791 484.791 150 487 150H562C564.209 150 566 151.791 566 154V177C566 179.209 564.209 181 562 181H487C484.791 181 483 179.209 483 177V154Z" fill="#151515"/>
        <path fill-rule="evenodd" clip-rule="evenodd" d="M562 151H487C485.343 151 484 152.343 484 154V177C484 178.657 485.343 180 487 180H562C563.657 180 565 178.657 565 177V154C565 152.343 563.657 151 562 151ZM487 150C484.791 150 483 151.791 483 154V177C483 179.209 484.791 181 487 181H562C564.209 181 566 179.209 566 177V154C566 151.791 564.209 150 562 150H487Z" fill="#2C2C2C"/>
        <path d="M265 200C265 197.791 266.791 196 269 196H361C363.209 196 365 197.791 365 200V223C365 225.209 363.209 227 361 227H269C266.791 227 265 225.209 265 223V200Z" fill="#151515"/>
        <path fill-rule="evenodd" clip-rule="evenodd" d="M361 197H269C267.343 197 266 198.343 266 200V223C266 224.657 267.343 226 269 226H361C362.657 226 364 224.657 364 223V200C364 198.343 362.657 197 361 197ZM269 196C266.791 196 265 197.791 265 200V223C265 225.209 266.791 227 269 227H361C363.209 227 365 225.209 365 223V200C365 197.791 363.209 196 361 196H269Z" fill="#2C2C2C"/>
        <path d="M146 248C146 245.791 147.791 244 150 244H195C197.209 244 199 245.791 199 248V271C199 273.209 197.209 275 195 275H150C147.791 275 146 273.209 146 271V248Z" fill="#151515"/>
        <path fill-rule="evenodd" clip-rule="evenodd" d="M195 245H150C148.343 245 147 246.343 147 248V271C147 272.657 148.343 274 150 274H195C196.657 274 198 272.657 198 271V248C198 246.343 196.657 245 195 245ZM150 244C147.791 244 146 245.791 146 248V271C146 273.209 147.791 275 150 275H195C197.209 275 199 273.209 199 271V248C199 245.791 197.209 244 195 244H150Z" fill="#2C2C2C"/>
        <path d="M205 248C205 245.791 206.791 244 209 244H274C276.209 244 278 245.791 278 248V271C278 273.209 276.209 275 274 275H209C206.791 275 205 273.209 205 271V248Z" fill="#151515"/>
        <path fill-rule="evenodd" clip-rule="evenodd" d="M274 245H209C207.343 245 206 246.343 206 248V271C206 272.657 207.343 274 209 274H274C275.657 274 277 272.657 277 271V248C277 246.343 275.657 245 274 245ZM209 244C206.791 244 205 245.791 205 248V271C205 273.209 206.791 275 209 275H274C276.209 275 278 273.209 278 271V248C278 245.791 276.209 244 274 244H209Z" fill="#2C2C2C"/>
        <path d="M289 248C289 245.791 290.791 244 293 244H377C379.209 244 381 245.791 381 248V271C381 273.209 379.209 275 377 275H293C290.791 275 289 273.209 289 271V248Z" fill="#151515"/>
        <path fill-rule="evenodd" clip-rule="evenodd" d="M377 245H293C291.343 245 290 246.343 290 248V271C290 272.657 291.343 274 293 274H377C378.657 274 380 272.657 380 271V248C380 246.343 378.657 245 377 245ZM293 244C290.791 244 289 245.791 289 248V271C289 273.209 290.791 275 293 275H377C379.209 275 381 273.209 381 271V248C381 245.791 379.209 244 377 244H293Z" fill="#2C2C2C"/>
        <path d="M392 248C392 245.791 393.791 244 396 244H503C505.209 244 507 245.791 507 248V271C507 273.209 505.209 275 503 275H396C393.791 275 392 273.209 392 271V248Z" fill="#151515"/>
        <path fill-rule="evenodd" clip-rule="evenodd" d="M503 245H396C394.343 245 393 246.343 393 248V271C393 272.657 394.343 274 396 274H503C504.657 274 506 272.657 506 271V248C506 246.343 504.657 245 503 245ZM396 244C393.791 244 392 245.791 392 248V271C392 273.209 393.791 275 396 275H503C505.209 275 507 273.209 507 271V248C507 245.791 505.209 244 503 244H396Z" fill="#2C2C2C"/>
        <path d="M33 200C33 197.791 34.7909 196 37 196H250C252.209 196 254 197.791 254 200V223C254 225.209 252.209 227 250 227H37C34.7909 227 33 225.209 33 223V200Z" fill="#151515"/>
        <path fill-rule="evenodd" clip-rule="evenodd" d="M250 197H37C35.3431 197 34 198.343 34 200V223C34 224.657 35.3431 226 37 226H250C251.657 226 253 224.657 253 223V200C253 198.343 251.657 197 250 197ZM37 196C34.7909 196 33 197.791 33 200V223C33 225.209 34.7909 227 37 227H250C252.209 227 254 225.209 254 223V200C254 197.791 252.209 196 250 196H37Z" fill="#2C2C2C"/>
        <path d="M323 493C323 489.686 325.686 487 329 487H442C445.314 487 448 489.686 448 493V519C448 522.314 445.314 525 442 525H329C325.686 525 323 522.314 323 519V493Z" fill="#202020"/>
        <path fill-rule="evenodd" clip-rule="evenodd" d="M442 488H329C326.239 488 324 490.239 324 493V519C324 521.761 326.239 524 329 524H442C444.761 524 447 521.761 447 519V493C447 490.239 444.761 488 442 488ZM329 487C325.686 487 323 489.686 323 493V519C323 522.314 325.686 525 329 525H442C445.314 525 448 522.314 448 519V493C448 489.686 445.314 487 442 487H329Z" fill="#323232"/>
        <path d="M147 493C147 489.686 149.686 487 153 487H266C269.314 487 272 489.686 272 493V519C272 522.314 269.314 525 266 525H153C149.686 525 147 522.314 147 519V493Z" fill="#181818"/>
        <path fill-rule="evenodd" clip-rule="evenodd" d="M266 488H153C150.239 488 148 490.239 148 493V519C148 521.761 150.239 524 153 524H266C268.761 524 271 521.761 271 519V493C271 490.239 268.761 488 266 488ZM153 487C149.686 487 147 489.686 147 493V519C147 522.314 149.686 525 153 525H266C269.314 525 272 522.314 272 519V493C272 489.686 269.314 487 266 487H153Z" fill="#323232"/>
        <path d="M0 65H600V66H0V65Z" fill="#262626"/>
        <path d="M43.7453 24.0326C43.8262 24.011 43.9086 24.0001 43.9924 24C44.0762 23.9999 44.1586 24.0105 44.2396 24.0319C44.3206 24.0533 44.3973 24.0847 44.4698 24.1261L46.4908 25.2802C46.5446 25.3109 46.5948 25.3465 46.6415 25.3869C46.6881 25.4273 46.7303 25.4719 46.768 25.5205C46.8057 25.569 46.8383 25.6208 46.8656 25.6757C46.893 25.7306 46.9146 25.7876 46.9305 25.8466C46.9465 25.9057 46.9564 25.9658 46.9602 26.0267C46.9641 26.0877 46.9619 26.1485 46.9536 26.2091C46.9453 26.2697 46.9311 26.3288 46.9109 26.3867C46.8908 26.4445 46.8651 26.4998 46.8338 26.5527C46.8025 26.6055 46.7663 26.6548 46.7252 26.7006C46.684 26.7465 46.6387 26.7879 46.5893 26.825C46.5398 26.8621 46.4871 26.894 46.4313 26.9209C46.3754 26.9478 46.3174 26.969 46.2573 26.9847C46.1971 27.0003 46.136 27.01 46.0739 27.0139C46.0119 27.0177 45.95 27.0155 45.8883 27.0074C45.8267 26.9992 45.7664 26.9852 45.7076 26.9654C45.6487 26.9456 45.5924 26.9203 45.5387 26.8896L43.9952 26.0082L42.4636 26.8883C42.4099 26.9192 42.3536 26.9446 42.2949 26.9646C42.2361 26.9845 42.1758 26.9987 42.1142 27.007C42.0526 27.0153 41.9907 27.0177 41.9286 27.014C41.8666 27.0104 41.8054 27.0008 41.7452 26.9853C41.6851 26.9698 41.627 26.9487 41.5711 26.922C41.5151 26.8953 41.4624 26.8635 41.4128 26.8265C41.3632 26.7896 41.3178 26.7483 41.2765 26.7026C41.2353 26.6568 41.1989 26.6076 41.1675 26.5548C41.1041 26.4483 41.0638 26.3339 41.0467 26.2116C41.0296 26.0893 41.037 25.9685 41.0688 25.8491C41.1006 25.7297 41.1545 25.6208 41.2304 25.5225C41.3063 25.4241 41.3985 25.3438 41.507 25.2815L43.5154 24.1273C43.5877 24.0858 43.6644 24.0542 43.7453 24.0326ZM35.4695 28.7437L37.4775 27.5898C37.5312 27.5589 37.5874 27.5335 37.6462 27.5135C37.705 27.4936 37.7652 27.4794 37.8268 27.4711C37.8885 27.4628 37.9503 27.4605 38.0124 27.4641C38.0745 27.4678 38.1356 27.4773 38.1958 27.4928C38.256 27.5083 38.314 27.5294 38.37 27.5561C38.4259 27.5828 38.4787 27.6147 38.5283 27.6516C38.5778 27.6885 38.6232 27.7298 38.6645 27.7756C38.7058 27.8213 38.7421 27.8705 38.7735 27.9233C38.805 27.976 38.8308 28.0313 38.8511 28.089C38.8715 28.1468 38.8859 28.206 38.8943 28.2665C38.9028 28.3271 38.9052 28.3878 38.9015 28.4488C38.8977 28.5098 38.888 28.5699 38.8722 28.629C38.8565 28.6881 38.835 28.7452 38.8078 28.8002C38.7806 28.8551 38.7482 28.907 38.7106 28.9556C38.673 29.0043 38.631 29.049 38.5845 29.0895C38.5379 29.1301 38.4878 29.1658 38.4341 29.1966L37.8238 29.5474L38.4341 29.8981C38.4878 29.9289 38.5379 29.9646 38.5845 30.0052C38.631 30.0458 38.673 30.0904 38.7106 30.1391C38.7482 30.1878 38.7806 30.2396 38.8078 30.2946C38.835 30.3495 38.8565 30.4066 38.8722 30.4657C38.888 30.5248 38.8977 30.5849 38.9015 30.6459C38.9052 30.7069 38.9028 30.7677 38.8943 30.8282C38.8859 30.8887 38.8715 30.9479 38.8511 31.0057C38.8308 31.0634 38.805 31.1187 38.7735 31.1714C38.7101 31.278 38.6284 31.3685 38.5283 31.4431C38.4282 31.5177 38.3173 31.5706 38.1958 31.6019C38.0743 31.6332 37.9513 31.6404 37.8268 31.6236C37.7024 31.6068 37.5859 31.5672 37.4775 31.5049L36.8947 31.1701V31.5206C36.8947 31.5817 36.8887 31.6422 36.8765 31.7022C36.8644 31.7621 36.8464 31.8203 36.8226 31.8768C36.7988 31.9332 36.7696 31.9869 36.7351 32.0377C36.7005 32.0885 36.6612 32.1355 36.6173 32.1787C36.5733 32.2219 36.5254 32.2605 36.4737 32.2945C36.422 32.3284 36.3674 32.3571 36.3099 32.3805C36.2524 32.4039 36.1932 32.4215 36.1322 32.4335C36.0712 32.4454 36.0096 32.4513 35.9474 32.4513C35.8852 32.4513 35.8236 32.4454 35.7625 32.4335C35.7015 32.4215 35.6423 32.4039 35.5848 32.3805C35.5273 32.3571 35.4727 32.3284 35.421 32.2945C35.3693 32.2605 35.3215 32.2219 35.2775 32.1787C35.2335 32.1355 35.1942 32.0885 35.1597 32.0377C35.1251 31.9869 35.0959 31.9332 35.0721 31.8768C35.0483 31.8203 35.0303 31.7621 35.0182 31.7022C35.0061 31.6422 35 31.5817 35 31.5206V29.5474C35 29.4674 35.0103 29.3888 35.0309 29.3115C35.0503 29.2386 35.0784 29.169 35.115 29.1028C35.1198 29.0943 35.1246 29.0858 35.1296 29.0774C35.2131 28.9371 35.3267 28.8257 35.4695 28.7437ZM50.1762 29.5474L49.5659 29.1966C49.5122 29.1658 49.4621 29.1301 49.4155 29.0895C49.3691 29.049 49.327 29.0043 49.2893 28.9556C49.2518 28.907 49.2194 28.8551 49.1922 28.8002C49.165 28.7452 49.1435 28.6881 49.1278 28.629C49.112 28.5699 49.1023 28.5098 49.0985 28.4488C49.0948 28.3878 49.0972 28.3271 49.1057 28.2665C49.1141 28.206 49.1285 28.1468 49.1489 28.089C49.1692 28.0313 49.195 27.976 49.2264 27.9233C49.2899 27.8167 49.3716 27.7262 49.4717 27.6516C49.5719 27.577 49.6827 27.5241 49.8042 27.4928C49.9257 27.4615 50.0487 27.4543 50.1732 27.4711C50.2976 27.4879 50.4141 27.5275 50.5226 27.5898L52.5302 28.7435C52.6626 28.8196 52.7706 28.9217 52.8528 29.0491C52.8588 29.0584 52.8647 29.0679 52.8704 29.0774C52.9483 29.2083 52.9911 29.3496 52.9989 29.501C52.9996 29.5161 53 29.5311 53 29.5461V31.5206C53 31.5817 52.9939 31.6422 52.9818 31.7022C52.9697 31.7621 52.9517 31.8203 52.9279 31.8768C52.904 31.9332 52.8749 31.9869 52.8403 32.0377C52.8058 32.0885 52.7665 32.1355 52.7225 32.1787C52.6785 32.2219 52.6307 32.2605 52.579 32.2945C52.5273 32.3284 52.4727 32.3571 52.4152 32.3805C52.3577 32.4039 52.2985 32.4215 52.2374 32.4335C52.1765 32.4454 52.1149 32.4513 52.0526 32.4513C51.9904 32.4513 51.9288 32.4454 51.8678 32.4335C51.8068 32.4215 51.7475 32.4039 51.6901 32.3805C51.6326 32.3571 51.578 32.3284 51.5263 32.2945C51.4746 32.2605 51.4267 32.2219 51.3828 32.1787C51.3387 32.1355 51.2994 32.0885 51.2649 32.0377C51.2304 31.9869 51.2012 31.9332 51.1774 31.8768C51.1536 31.8203 51.1356 31.7621 51.1235 31.7022C51.1113 31.6422 51.1053 31.5817 51.1053 31.5206V31.1701L50.5226 31.5049C50.4141 31.5672 50.2976 31.6068 50.1732 31.6236C50.0487 31.6404 49.9257 31.6332 49.8042 31.6019C49.6827 31.5706 49.5719 31.5177 49.4717 31.4431C49.3716 31.3685 49.2899 31.278 49.2264 31.1714C49.195 31.1187 49.1692 31.0634 49.1489 31.0057C49.1285 30.9479 49.1141 30.8887 49.1057 30.8282C49.0972 30.7677 49.0948 30.7069 49.0985 30.6459C49.1023 30.5849 49.112 30.5248 49.1278 30.4657C49.1435 30.4066 49.165 30.3495 49.1922 30.2946C49.2194 30.2396 49.2518 30.1878 49.2893 30.1391C49.327 30.0904 49.3691 30.0458 49.4155 30.0052C49.4621 29.9646 49.5122 29.9289 49.5659 29.8981L50.1762 29.5474ZM44.9411 34.6995V36.1372C44.9411 36.1983 44.935 36.2588 44.9228 36.3188C44.9107 36.3787 44.8927 36.4369 44.8689 36.4933C44.8451 36.5498 44.8159 36.6035 44.7814 36.6543C44.7468 36.7051 44.7076 36.7521 44.6636 36.7953C44.6196 36.8386 44.5717 36.8772 44.52 36.9111C44.4683 36.945 44.4137 36.9737 44.3562 36.9971C44.2988 37.0205 44.2395 37.0381 44.1785 37.0501C44.1175 37.062 44.0559 37.0679 43.9937 37.0679C43.9315 37.0679 43.8699 37.062 43.8089 37.0501C43.7478 37.0381 43.6886 37.0205 43.6311 36.9971C43.5737 36.9737 43.5191 36.945 43.4674 36.9111C43.4156 36.8772 43.3678 36.8386 43.3238 36.7953C43.2798 36.7521 43.2405 36.7051 43.206 36.6543C43.1714 36.6035 43.1422 36.5498 43.1184 36.4933C43.0946 36.4369 43.0767 36.3787 43.0645 36.3188C43.0524 36.2588 43.0463 36.1983 43.0463 36.1372V34.6978L41.507 33.8132C41.4533 33.7824 41.4031 33.7467 41.3566 33.7061C41.3101 33.6656 41.268 33.6209 41.2304 33.5722C41.1928 33.5235 41.1604 33.4717 41.1332 33.4167C41.106 33.3618 41.0846 33.3047 41.0688 33.2456C41.0531 33.1865 41.0433 33.1264 41.0396 33.0654C41.0359 33.0044 41.0382 32.9437 41.0467 32.8831C41.0552 32.8226 41.0696 32.7634 41.0899 32.7056C41.1102 32.6479 41.1361 32.5926 41.1675 32.5399C41.1989 32.4871 41.2353 32.4379 41.2765 32.3922C41.3178 32.3464 41.3632 32.3051 41.4128 32.2682C41.4624 32.2313 41.5151 32.1994 41.5711 32.1727C41.627 32.146 41.6851 32.1249 41.7452 32.1094C41.8054 32.0939 41.8666 32.0844 41.9286 32.0807C41.9907 32.0771 42.0526 32.0794 42.1142 32.0877C42.1758 32.096 42.2361 32.1102 42.2949 32.1301C42.3536 32.1501 42.4099 32.1755 42.4636 32.2064L43.9952 33.0865L45.5387 32.2051C45.5924 32.1744 45.6487 32.1491 45.7076 32.1293C45.7664 32.1095 45.8267 32.0955 45.8883 32.0874C45.95 32.0792 46.0119 32.077 46.0739 32.0809C46.136 32.0847 46.1971 32.0944 46.2573 32.11C46.3174 32.1257 46.3754 32.147 46.4313 32.1738C46.4871 32.2007 46.5398 32.2327 46.5893 32.2697C46.6387 32.3068 46.684 32.3482 46.7252 32.3941C46.7663 32.4399 46.8025 32.4892 46.8338 32.5421C46.8969 32.6488 46.9369 32.7633 46.9536 32.8856C46.9704 33.0079 46.9627 33.1288 46.9305 33.2481C46.8984 33.3674 46.8442 33.4761 46.768 33.5743C46.6918 33.6724 46.5994 33.7525 46.4908 33.8145L44.9411 34.6995ZM35.2746 38.108C35.2164 38.0503 35.1667 37.9862 35.1256 37.9158C35.0845 37.8453 35.0532 37.7708 35.0319 37.6923C35.0107 37.6138 35 37.5339 35 37.4527V35.4794C35 35.4183 35.0061 35.3578 35.0182 35.2978C35.0304 35.2379 35.0483 35.1797 35.0721 35.1232C35.0959 35.0668 35.1251 35.0131 35.1597 34.9623C35.1942 34.9115 35.2335 34.8645 35.2775 34.8213C35.3215 34.7781 35.3693 34.7395 35.421 34.7055C35.4728 34.6716 35.5274 34.6429 35.5848 34.6195C35.6423 34.5961 35.7015 34.5785 35.7626 34.5665C35.8236 34.5546 35.8852 34.5487 35.9474 34.5487C36.0096 34.5487 36.0712 34.5546 36.1322 34.5665C36.1932 34.5785 36.2525 34.5961 36.3099 34.6195C36.3674 34.6429 36.422 34.6716 36.4737 34.7055C36.5254 34.7395 36.5733 34.7781 36.6173 34.8213C36.6613 34.8645 36.7005 34.9115 36.7351 34.9623C36.7696 35.0131 36.7988 35.0668 36.8226 35.1232C36.8464 35.1797 36.8644 35.2379 36.8765 35.2978C36.8887 35.3578 36.8947 35.4183 36.8947 35.4794V36.9188L38.4341 37.8034C38.5426 37.8657 38.6347 37.946 38.7106 38.0444C38.7866 38.1427 38.8404 38.2516 38.8723 38.371C38.9041 38.4904 38.9115 38.6112 38.8944 38.7335C38.8773 38.8558 38.837 38.9702 38.7736 39.0768C38.7422 39.1295 38.7058 39.1787 38.6645 39.2245C38.6233 39.2701 38.5778 39.3114 38.5283 39.3484C38.4787 39.3853 38.4259 39.4171 38.37 39.4439C38.3141 39.4706 38.256 39.4917 38.1958 39.5072C38.1357 39.5226 38.0745 39.5322 38.0124 39.5359C37.9503 39.5396 37.8885 39.5372 37.8268 39.5289C37.7652 39.5206 37.705 39.5064 37.6462 39.4864C37.5874 39.4665 37.5312 39.4411 37.4775 39.4102L35.4691 38.2561C35.3977 38.215 35.3329 38.1657 35.2746 38.108ZM52.968 37.6923C52.9467 37.7708 52.9155 37.8453 52.8744 37.9158C52.8333 37.9862 52.7836 38.0503 52.7254 38.108C52.6671 38.1657 52.6023 38.215 52.531 38.2561L50.5226 39.4102C50.4688 39.4411 50.4126 39.4665 50.3538 39.4864C50.295 39.5064 50.2348 39.5206 50.1732 39.5289C50.1115 39.5372 50.0497 39.5396 49.9876 39.5359C49.9255 39.5322 49.8643 39.5226 49.8042 39.5072C49.744 39.4917 49.6859 39.4706 49.63 39.4439C49.5741 39.4171 49.5214 39.3853 49.4717 39.3484C49.4221 39.3114 49.3767 39.2701 49.3355 39.2245C49.2942 39.1787 49.2579 39.1295 49.2264 39.0768C49.195 39.024 49.1692 38.9687 49.1489 38.911C49.1285 38.8532 49.1141 38.7941 49.1057 38.7335C49.0972 38.6729 49.0948 38.6122 49.0985 38.5512C49.1023 38.4901 49.112 38.4301 49.1278 38.371C49.1435 38.3118 49.165 38.2548 49.1922 38.1999C49.2194 38.1449 49.2518 38.0931 49.2893 38.0444C49.327 37.9956 49.3691 37.951 49.4155 37.9105C49.4621 37.8699 49.5122 37.8342 49.5659 37.8034L51.1053 36.9188V35.4794C51.1053 35.4183 51.1113 35.3578 51.1235 35.2978C51.1356 35.2379 51.1536 35.1797 51.1774 35.1232C51.2012 35.0668 51.2304 35.0131 51.2649 34.9623C51.2994 34.9115 51.3387 34.8645 51.3828 34.8213C51.4267 34.7781 51.4746 34.7395 51.5263 34.7055C51.578 34.6716 51.6326 34.6429 51.6901 34.6195C51.7475 34.5961 51.8068 34.5785 51.8678 34.5665C51.9288 34.5546 51.9904 34.5487 52.0526 34.5487C52.1149 34.5487 52.1765 34.5546 52.2374 34.5665C52.2985 34.5785 52.3577 34.5961 52.4152 34.6195C52.4727 34.6429 52.5273 34.6716 52.579 34.7055C52.6307 34.7395 52.6785 34.7781 52.7225 34.8213C52.7665 34.8645 52.8058 34.9115 52.8403 34.9623C52.8749 35.0131 52.904 35.0668 52.9279 35.1232C52.9517 35.1797 52.9697 35.2379 52.9818 35.2978C52.9939 35.3578 53 35.4183 53 35.4794V37.4527C53 37.5339 52.9893 37.6138 52.968 37.6923ZM43.5147 42.8723L41.507 41.7185C41.4533 41.6877 41.4031 41.652 41.3566 41.6114C41.3101 41.5709 41.268 41.5263 41.2304 41.4775C41.1928 41.4288 41.1604 41.377 41.1332 41.322C41.106 41.2671 41.0846 41.21 41.0688 41.1509C41.0531 41.0918 41.0433 41.0317 41.0396 40.9707C41.0359 40.9097 41.0382 40.8489 41.0467 40.7884C41.0552 40.7278 41.0696 40.6687 41.0899 40.6109C41.1102 40.5532 41.1361 40.4979 41.1675 40.4451C41.2309 40.3386 41.3127 40.2481 41.4128 40.1735C41.5129 40.0989 41.6237 40.046 41.7452 40.0147C41.8668 39.9835 41.9898 39.9762 42.1142 39.993C42.2387 40.0098 42.3551 40.0494 42.4636 40.1117L43.0463 40.4465V40.096C43.0463 40.0349 43.0524 39.9744 43.0645 39.9145C43.0767 39.8545 43.0946 39.7963 43.1184 39.7398C43.1422 39.6833 43.1714 39.6297 43.206 39.5789C43.2405 39.5281 43.2798 39.4811 43.3238 39.4379C43.3678 39.3946 43.4156 39.356 43.4674 39.3221C43.5191 39.2882 43.5737 39.2595 43.6311 39.2361C43.6886 39.2127 43.7478 39.195 43.8089 39.1831C43.8699 39.1712 43.9315 39.1653 43.9937 39.1653C44.0559 39.1653 44.1175 39.1712 44.1785 39.1831C44.2395 39.195 44.2988 39.2127 44.3562 39.2361C44.4137 39.2595 44.4683 39.2882 44.52 39.3221C44.5717 39.356 44.6196 39.3946 44.6636 39.4379C44.7076 39.4811 44.7468 39.5281 44.7814 39.5789C44.8159 39.6297 44.8451 39.6833 44.8689 39.7398C44.8927 39.7963 44.9107 39.8545 44.9228 39.9145C44.935 39.9744 44.9411 40.0349 44.9411 40.096V40.4517L45.5387 40.1104C45.5924 40.0797 45.6487 40.0544 45.7076 40.0346C45.7664 40.0148 45.8267 40.0008 45.8883 39.9926C45.95 39.9845 46.0119 39.9823 46.0739 39.9862C46.136 39.99 46.1971 39.9997 46.2573 40.0154C46.3174 40.031 46.3754 40.0523 46.4313 40.0791C46.4871 40.106 46.5398 40.138 46.5893 40.1751C46.6387 40.2121 46.684 40.2535 46.7252 40.2993C46.7663 40.3451 46.8025 40.3945 46.8338 40.4474C46.8651 40.5002 46.8908 40.5555 46.9109 40.6133C46.9311 40.6711 46.9453 40.7303 46.9536 40.7909C46.9619 40.8514 46.9641 40.9122 46.9602 40.9733C46.9564 41.0343 46.9465 41.0943 46.9305 41.1534C46.9146 41.2124 46.893 41.2694 46.8656 41.3244C46.8383 41.3792 46.8057 41.4309 46.768 41.4795C46.7303 41.5282 46.6881 41.5727 46.6415 41.613C46.5948 41.6535 46.5446 41.6891 46.4908 41.7198L44.4699 42.8738C44.4023 42.9124 44.3308 42.9425 44.2556 42.9638C44.2483 42.9658 44.241 42.9678 44.2337 42.9696C44.155 42.9899 44.075 43 43.9937 43C43.8401 43 43.695 42.9653 43.5586 42.896C43.544 42.8886 43.5289 42.8804 43.5147 42.8723Z" fill="#7A7878"/>
        <path d="M567.487 26.2596C567.57 26.1765 567.666 26.1124 567.774 26.0675C567.883 26.0225 567.996 26 568.114 26C568.231 26 568.344 26.0225 568.453 26.0675C568.561 26.1124 568.657 26.1765 568.74 26.2596C568.782 26.3008 568.818 26.3455 568.851 26.3939C568.883 26.4423 568.91 26.4934 568.933 26.5472C568.955 26.6009 568.972 26.6564 568.983 26.7134C568.994 26.7705 569 26.8282 569 26.8864C569 26.9446 568.994 27.0022 568.983 27.0593C568.972 27.1164 568.955 27.1718 568.933 27.2256C568.91 27.2793 568.883 27.3304 568.851 27.3788C568.818 27.4272 568.782 27.472 568.74 27.5131L563.754 32.5L568.74 37.4869C568.782 37.528 568.818 37.5728 568.851 37.6212C568.883 37.6695 568.91 37.7206 568.933 37.7745C568.955 37.8282 568.972 37.8836 568.983 37.9407C568.994 37.9978 569 38.0554 569 38.1136C569 38.1719 568.994 38.2295 568.983 38.2865C568.972 38.3437 568.955 38.3991 568.933 38.4528C568.91 38.5066 568.883 38.5577 568.851 38.6061C568.818 38.6545 568.782 38.6992 568.74 38.7404C568.699 38.7816 568.654 38.8183 568.606 38.8506C568.558 38.8829 568.507 38.9102 568.453 38.9325C568.399 38.9548 568.344 38.9716 568.287 38.983C568.229 38.9943 568.172 39 568.114 39C568.055 39 567.998 38.9943 567.941 38.983C567.884 38.9716 567.828 38.9548 567.774 38.9325C567.721 38.9102 567.67 38.8829 567.621 38.8506C567.573 38.8183 567.528 38.7816 567.487 38.7404L562.5 33.7536L557.513 38.7404C557.472 38.7816 557.427 38.8183 557.379 38.8506C557.33 38.8829 557.279 38.9102 557.226 38.9325C557.172 38.9548 557.116 38.9716 557.059 38.983C557.002 38.9943 556.945 39 556.886 39C556.828 39 556.771 38.9943 556.713 38.983C556.656 38.9716 556.601 38.9548 556.547 38.9325C556.493 38.9102 556.442 38.8829 556.394 38.8506C556.346 38.8183 556.301 38.7816 556.26 38.7404C556.176 38.6572 556.112 38.5614 556.067 38.4528C556.022 38.3442 556 38.2312 556 38.1136C556 37.9961 556.022 37.883 556.067 37.7745C556.112 37.6659 556.176 37.57 556.26 37.4869L561.246 32.5L556.26 27.5131C556.218 27.472 556.182 27.4272 556.149 27.3788C556.117 27.3304 556.09 27.2793 556.067 27.2256C556.045 27.1718 556.028 27.1164 556.017 27.0593C556.006 27.0022 556 26.9446 556 26.8864C556 26.8282 556.006 26.7705 556.017 26.7134C556.028 26.6564 556.045 26.6009 556.067 26.5472C556.09 26.4934 556.117 26.4423 556.149 26.3939C556.182 26.3455 556.218 26.3008 556.26 26.2596C556.301 26.2185 556.346 26.1817 556.394 26.1494C556.442 26.117 556.493 26.0897 556.547 26.0675C556.601 26.0452 556.656 26.0284 556.713 26.017C556.771 26.0057 556.828 26 556.886 26C556.945 26 557.002 26.0057 557.059 26.017C557.116 26.0284 557.172 26.0452 557.226 26.0675C557.279 26.0897 557.33 26.117 557.379 26.1494C557.427 26.1817 557.472 26.2185 557.513 26.2596L562.5 31.2465L567.487 26.2596Z" fill="#914154"/>
    </g>
    <defs>
        <clipPath id="clip0_53_47">
            <rect width="600" height="550" fill="white"/>
        </clipPath>
    </defs>
</svg>
