<svg width="600" height="531" viewBox="0 0 600 531" fill="none" xmlns="http://www.w3.org/2000/svg">
    <rect width="600" height="531" fill="#181818"/>
    <path fill-rule="evenodd" clip-rule="evenodd" d="M556 359H43C35.268 359 29 365.268 29 373V458C29 465.732 35.268 472 43 472H556C563.732 472 570 465.732 570 458V373C570 365.268 563.732 359 556 359ZM43 356C33.6112 356 26 363.611 26 373V458C26 467.389 33.6112 475 43 475H556C565.389 475 573 467.389 573 458V373C573 363.611 565.389 356 556 356H43Z" fill="#1D1D1D"/>
    <g clip-path="url(#clip0_105_46)">
        <path d="M43.7453 24.0326C43.8262 24.011 43.9086 24.0001 43.9924 24C44.0762 23.9999 44.1586 24.0105 44.2396 24.0319C44.3206 24.0533 44.3973 24.0847 44.4698 24.1261L46.4908 25.2802C46.5446 25.3109 46.5948 25.3465 46.6415 25.3869C46.6881 25.4273 46.7303 25.4719 46.768 25.5205C46.8057 25.569 46.8383 25.6208 46.8656 25.6757C46.893 25.7306 46.9146 25.7876 46.9305 25.8466C46.9465 25.9057 46.9564 25.9658 46.9602 26.0267C46.9641 26.0877 46.9619 26.1485 46.9536 26.2091C46.9453 26.2697 46.9311 26.3288 46.9109 26.3867C46.8908 26.4445 46.8651 26.4998 46.8338 26.5527C46.8025 26.6055 46.7663 26.6548 46.7252 26.7006C46.684 26.7465 46.6387 26.7879 46.5893 26.825C46.5398 26.8621 46.4871 26.894 46.4313 26.9209C46.3754 26.9478 46.3174 26.969 46.2573 26.9847C46.1971 27.0003 46.136 27.01 46.0739 27.0139C46.0119 27.0177 45.95 27.0155 45.8883 27.0074C45.8267 26.9992 45.7664 26.9852 45.7076 26.9654C45.6487 26.9456 45.5924 26.9203 45.5387 26.8896L43.9952 26.0082L42.4636 26.8883C42.4099 26.9192 42.3536 26.9446 42.2949 26.9646C42.2361 26.9845 42.1758 26.9987 42.1142 27.007C42.0526 27.0153 41.9907 27.0177 41.9286 27.014C41.8666 27.0104 41.8054 27.0008 41.7452 26.9853C41.6851 26.9698 41.627 26.9487 41.5711 26.922C41.5151 26.8953 41.4624 26.8635 41.4128 26.8265C41.3632 26.7896 41.3178 26.7483 41.2765 26.7026C41.2353 26.6568 41.1989 26.6076 41.1675 26.5548C41.1041 26.4483 41.0638 26.3339 41.0467 26.2116C41.0296 26.0893 41.037 25.9685 41.0688 25.8491C41.1006 25.7297 41.1545 25.6208 41.2304 25.5225C41.3063 25.4241 41.3985 25.3438 41.507 25.2815L43.5154 24.1273C43.5877 24.0858 43.6644 24.0542 43.7453 24.0326ZM35.4695 28.7437L37.4775 27.5898C37.5312 27.5589 37.5874 27.5335 37.6462 27.5135C37.705 27.4936 37.7652 27.4794 37.8268 27.4711C37.8885 27.4628 37.9503 27.4605 38.0124 27.4641C38.0745 27.4678 38.1356 27.4773 38.1958 27.4928C38.256 27.5083 38.314 27.5294 38.37 27.5561C38.4259 27.5828 38.4787 27.6147 38.5283 27.6516C38.5778 27.6885 38.6232 27.7298 38.6645 27.7756C38.7058 27.8213 38.7421 27.8705 38.7735 27.9233C38.805 27.976 38.8308 28.0313 38.8511 28.089C38.8715 28.1468 38.8859 28.206 38.8943 28.2665C38.9028 28.3271 38.9052 28.3878 38.9015 28.4488C38.8977 28.5098 38.888 28.5699 38.8722 28.629C38.8565 28.6881 38.835 28.7452 38.8078 28.8002C38.7806 28.8551 38.7482 28.907 38.7106 28.9556C38.673 29.0043 38.631 29.049 38.5845 29.0895C38.5379 29.1301 38.4878 29.1658 38.4341 29.1966L37.8238 29.5474L38.4341 29.8981C38.4878 29.9289 38.5379 29.9646 38.5845 30.0052C38.631 30.0458 38.673 30.0904 38.7106 30.1391C38.7482 30.1878 38.7806 30.2396 38.8078 30.2946C38.835 30.3495 38.8565 30.4066 38.8722 30.4657C38.888 30.5248 38.8977 30.5849 38.9015 30.6459C38.9052 30.7069 38.9028 30.7677 38.8943 30.8282C38.8859 30.8887 38.8715 30.9479 38.8511 31.0057C38.8308 31.0634 38.805 31.1187 38.7735 31.1714C38.7101 31.278 38.6284 31.3685 38.5283 31.4431C38.4282 31.5177 38.3173 31.5706 38.1958 31.6019C38.0743 31.6332 37.9513 31.6404 37.8268 31.6236C37.7024 31.6068 37.5859 31.5672 37.4775 31.5049L36.8947 31.1701V31.5206C36.8947 31.5817 36.8887 31.6422 36.8765 31.7022C36.8644 31.7621 36.8464 31.8203 36.8226 31.8768C36.7988 31.9332 36.7696 31.9869 36.7351 32.0377C36.7005 32.0885 36.6612 32.1355 36.6173 32.1787C36.5733 32.2219 36.5254 32.2605 36.4737 32.2945C36.422 32.3284 36.3674 32.3571 36.3099 32.3805C36.2524 32.4039 36.1932 32.4215 36.1322 32.4335C36.0712 32.4454 36.0096 32.4513 35.9474 32.4513C35.8852 32.4513 35.8236 32.4454 35.7625 32.4335C35.7015 32.4215 35.6423 32.4039 35.5848 32.3805C35.5273 32.3571 35.4727 32.3284 35.421 32.2945C35.3693 32.2605 35.3215 32.2219 35.2775 32.1787C35.2335 32.1355 35.1942 32.0885 35.1597 32.0377C35.1251 31.9869 35.0959 31.9332 35.0721 31.8768C35.0483 31.8203 35.0303 31.7621 35.0182 31.7022C35.0061 31.6422 35 31.5817 35 31.5206V29.5474C35 29.4674 35.0103 29.3888 35.0309 29.3115C35.0503 29.2386 35.0784 29.169 35.115 29.1028C35.1198 29.0943 35.1246 29.0858 35.1296 29.0774C35.2131 28.9371 35.3267 28.8257 35.4695 28.7437ZM50.1762 29.5474L49.5659 29.1966C49.5122 29.1658 49.4621 29.1301 49.4155 29.0895C49.3691 29.049 49.327 29.0043 49.2893 28.9556C49.2518 28.907 49.2194 28.8551 49.1922 28.8002C49.165 28.7452 49.1435 28.6881 49.1278 28.629C49.112 28.5699 49.1023 28.5098 49.0985 28.4488C49.0948 28.3878 49.0972 28.3271 49.1057 28.2665C49.1141 28.206 49.1285 28.1468 49.1489 28.089C49.1692 28.0313 49.195 27.976 49.2264 27.9233C49.2899 27.8167 49.3716 27.7262 49.4717 27.6516C49.5719 27.577 49.6827 27.5241 49.8042 27.4928C49.9257 27.4615 50.0487 27.4543 50.1732 27.4711C50.2976 27.4879 50.4141 27.5275 50.5226 27.5898L52.5302 28.7435C52.6626 28.8196 52.7706 28.9217 52.8528 29.0491C52.8588 29.0584 52.8647 29.0679 52.8704 29.0774C52.9483 29.2083 52.9911 29.3496 52.9989 29.501C52.9996 29.5161 53 29.5311 53 29.5461V31.5206C53 31.5817 52.9939 31.6422 52.9818 31.7022C52.9697 31.7621 52.9517 31.8203 52.9279 31.8768C52.904 31.9332 52.8749 31.9869 52.8403 32.0377C52.8058 32.0885 52.7665 32.1355 52.7225 32.1787C52.6785 32.2219 52.6307 32.2605 52.579 32.2945C52.5273 32.3284 52.4727 32.3571 52.4152 32.3805C52.3577 32.4039 52.2985 32.4215 52.2374 32.4335C52.1765 32.4454 52.1149 32.4513 52.0526 32.4513C51.9904 32.4513 51.9288 32.4454 51.8678 32.4335C51.8068 32.4215 51.7475 32.4039 51.6901 32.3805C51.6326 32.3571 51.578 32.3284 51.5263 32.2945C51.4746 32.2605 51.4267 32.2219 51.3828 32.1787C51.3387 32.1355 51.2994 32.0885 51.2649 32.0377C51.2304 31.9869 51.2012 31.9332 51.1774 31.8768C51.1536 31.8203 51.1356 31.7621 51.1235 31.7022C51.1113 31.6422 51.1053 31.5817 51.1053 31.5206V31.1701L50.5226 31.5049C50.4141 31.5672 50.2976 31.6068 50.1732 31.6236C50.0487 31.6404 49.9257 31.6332 49.8042 31.6019C49.6827 31.5706 49.5719 31.5177 49.4717 31.4431C49.3716 31.3685 49.2899 31.278 49.2264 31.1714C49.195 31.1187 49.1692 31.0634 49.1489 31.0057C49.1285 30.9479 49.1141 30.8887 49.1057 30.8282C49.0972 30.7677 49.0948 30.7069 49.0985 30.6459C49.1023 30.5849 49.112 30.5248 49.1278 30.4657C49.1435 30.4066 49.165 30.3495 49.1922 30.2946C49.2194 30.2396 49.2518 30.1878 49.2893 30.1391C49.327 30.0904 49.3691 30.0458 49.4155 30.0052C49.4621 29.9646 49.5122 29.9289 49.5659 29.8981L50.1762 29.5474ZM44.9411 34.6995V36.1372C44.9411 36.1983 44.935 36.2588 44.9228 36.3188C44.9107 36.3787 44.8927 36.4369 44.8689 36.4933C44.8451 36.5498 44.8159 36.6035 44.7814 36.6543C44.7468 36.7051 44.7076 36.7521 44.6636 36.7953C44.6196 36.8386 44.5717 36.8772 44.52 36.9111C44.4683 36.945 44.4137 36.9737 44.3562 36.9971C44.2988 37.0205 44.2395 37.0381 44.1785 37.0501C44.1175 37.062 44.0559 37.0679 43.9937 37.0679C43.9315 37.0679 43.8699 37.062 43.8089 37.0501C43.7478 37.0381 43.6886 37.0205 43.6311 36.9971C43.5737 36.9737 43.5191 36.945 43.4674 36.9111C43.4156 36.8772 43.3678 36.8386 43.3238 36.7953C43.2798 36.7521 43.2405 36.7051 43.206 36.6543C43.1714 36.6035 43.1422 36.5498 43.1184 36.4933C43.0946 36.4369 43.0767 36.3787 43.0645 36.3188C43.0524 36.2588 43.0463 36.1983 43.0463 36.1372V34.6978L41.507 33.8132C41.4533 33.7824 41.4031 33.7467 41.3566 33.7061C41.3101 33.6656 41.268 33.6209 41.2304 33.5722C41.1928 33.5235 41.1604 33.4717 41.1332 33.4167C41.106 33.3618 41.0846 33.3047 41.0688 33.2456C41.0531 33.1865 41.0433 33.1264 41.0396 33.0654C41.0359 33.0044 41.0382 32.9437 41.0467 32.8831C41.0552 32.8226 41.0696 32.7634 41.0899 32.7056C41.1102 32.6479 41.1361 32.5926 41.1675 32.5399C41.1989 32.4871 41.2353 32.4379 41.2765 32.3922C41.3178 32.3464 41.3632 32.3051 41.4128 32.2682C41.4624 32.2313 41.5151 32.1994 41.5711 32.1727C41.627 32.146 41.6851 32.1249 41.7452 32.1094C41.8054 32.0939 41.8666 32.0844 41.9286 32.0807C41.9907 32.0771 42.0526 32.0794 42.1142 32.0877C42.1758 32.096 42.2361 32.1102 42.2949 32.1301C42.3536 32.1501 42.4099 32.1755 42.4636 32.2064L43.9952 33.0865L45.5387 32.2051C45.5924 32.1744 45.6487 32.1491 45.7076 32.1293C45.7664 32.1095 45.8267 32.0955 45.8883 32.0874C45.95 32.0792 46.0119 32.077 46.0739 32.0809C46.136 32.0847 46.1971 32.0944 46.2573 32.11C46.3174 32.1257 46.3754 32.147 46.4313 32.1738C46.4871 32.2007 46.5398 32.2327 46.5893 32.2697C46.6387 32.3068 46.684 32.3482 46.7252 32.3941C46.7663 32.4399 46.8025 32.4892 46.8338 32.5421C46.8969 32.6488 46.9369 32.7633 46.9536 32.8856C46.9704 33.0079 46.9627 33.1288 46.9305 33.2481C46.8984 33.3674 46.8442 33.4761 46.768 33.5743C46.6918 33.6724 46.5994 33.7525 46.4908 33.8145L44.9411 34.6995ZM35.2746 38.108C35.2164 38.0503 35.1667 37.9862 35.1256 37.9158C35.0845 37.8453 35.0532 37.7708 35.0319 37.6923C35.0107 37.6138 35 37.5339 35 37.4527V35.4794C35 35.4183 35.0061 35.3578 35.0182 35.2978C35.0304 35.2379 35.0483 35.1797 35.0721 35.1232C35.0959 35.0668 35.1251 35.0131 35.1597 34.9623C35.1942 34.9115 35.2335 34.8645 35.2775 34.8213C35.3215 34.7781 35.3693 34.7395 35.421 34.7055C35.4728 34.6716 35.5274 34.6429 35.5848 34.6195C35.6423 34.5961 35.7015 34.5785 35.7626 34.5665C35.8236 34.5546 35.8852 34.5487 35.9474 34.5487C36.0096 34.5487 36.0712 34.5546 36.1322 34.5665C36.1932 34.5785 36.2525 34.5961 36.3099 34.6195C36.3674 34.6429 36.422 34.6716 36.4737 34.7055C36.5254 34.7395 36.5733 34.7781 36.6173 34.8213C36.6613 34.8645 36.7005 34.9115 36.7351 34.9623C36.7696 35.0131 36.7988 35.0668 36.8226 35.1232C36.8464 35.1797 36.8644 35.2379 36.8765 35.2978C36.8887 35.3578 36.8947 35.4183 36.8947 35.4794V36.9188L38.4341 37.8034C38.5426 37.8657 38.6347 37.946 38.7106 38.0444C38.7866 38.1427 38.8404 38.2516 38.8723 38.371C38.9041 38.4904 38.9115 38.6112 38.8944 38.7335C38.8773 38.8558 38.837 38.9702 38.7736 39.0768C38.7422 39.1295 38.7058 39.1787 38.6645 39.2245C38.6233 39.2701 38.5778 39.3114 38.5283 39.3484C38.4787 39.3853 38.4259 39.4171 38.37 39.4439C38.3141 39.4706 38.256 39.4917 38.1958 39.5072C38.1357 39.5226 38.0745 39.5322 38.0124 39.5359C37.9503 39.5396 37.8885 39.5372 37.8268 39.5289C37.7652 39.5206 37.705 39.5064 37.6462 39.4864C37.5874 39.4665 37.5312 39.4411 37.4775 39.4102L35.4691 38.2561C35.3977 38.215 35.3329 38.1657 35.2746 38.108ZM52.968 37.6923C52.9467 37.7708 52.9155 37.8453 52.8744 37.9158C52.8333 37.9862 52.7836 38.0503 52.7254 38.108C52.6671 38.1657 52.6023 38.215 52.531 38.2561L50.5226 39.4102C50.4688 39.4411 50.4126 39.4665 50.3538 39.4864C50.295 39.5064 50.2348 39.5206 50.1732 39.5289C50.1115 39.5372 50.0497 39.5396 49.9876 39.5359C49.9255 39.5322 49.8643 39.5226 49.8042 39.5072C49.744 39.4917 49.6859 39.4706 49.63 39.4439C49.5741 39.4171 49.5214 39.3853 49.4717 39.3484C49.4221 39.3114 49.3767 39.2701 49.3355 39.2245C49.2942 39.1787 49.2579 39.1295 49.2264 39.0768C49.195 39.024 49.1692 38.9687 49.1489 38.911C49.1285 38.8532 49.1141 38.7941 49.1057 38.7335C49.0972 38.6729 49.0948 38.6122 49.0985 38.5512C49.1023 38.4901 49.112 38.4301 49.1278 38.371C49.1435 38.3118 49.165 38.2548 49.1922 38.1999C49.2194 38.1449 49.2518 38.0931 49.2893 38.0444C49.327 37.9956 49.3691 37.951 49.4155 37.9105C49.4621 37.8699 49.5122 37.8342 49.5659 37.8034L51.1053 36.9188V35.4794C51.1053 35.4183 51.1113 35.3578 51.1235 35.2978C51.1356 35.2379 51.1536 35.1797 51.1774 35.1232C51.2012 35.0668 51.2304 35.0131 51.2649 34.9623C51.2994 34.9115 51.3387 34.8645 51.3828 34.8213C51.4267 34.7781 51.4746 34.7395 51.5263 34.7055C51.578 34.6716 51.6326 34.6429 51.6901 34.6195C51.7475 34.5961 51.8068 34.5785 51.8678 34.5665C51.9288 34.5546 51.9904 34.5487 52.0526 34.5487C52.1149 34.5487 52.1765 34.5546 52.2374 34.5665C52.2985 34.5785 52.3577 34.5961 52.4152 34.6195C52.4727 34.6429 52.5273 34.6716 52.579 34.7055C52.6307 34.7395 52.6785 34.7781 52.7225 34.8213C52.7665 34.8645 52.8058 34.9115 52.8403 34.9623C52.8749 35.0131 52.904 35.0668 52.9279 35.1232C52.9517 35.1797 52.9697 35.2379 52.9818 35.2978C52.9939 35.3578 53 35.4183 53 35.4794V37.4527C53 37.5339 52.9893 37.6138 52.968 37.6923ZM43.5147 42.8723L41.507 41.7185C41.4533 41.6877 41.4031 41.652 41.3566 41.6114C41.3101 41.5709 41.268 41.5263 41.2304 41.4775C41.1928 41.4288 41.1604 41.377 41.1332 41.322C41.106 41.2671 41.0846 41.21 41.0688 41.1509C41.0531 41.0918 41.0433 41.0317 41.0396 40.9707C41.0359 40.9097 41.0382 40.8489 41.0467 40.7884C41.0552 40.7278 41.0696 40.6687 41.0899 40.6109C41.1102 40.5532 41.1361 40.4979 41.1675 40.4451C41.2309 40.3386 41.3127 40.2481 41.4128 40.1735C41.5129 40.0989 41.6237 40.046 41.7452 40.0147C41.8668 39.9835 41.9898 39.9762 42.1142 39.993C42.2387 40.0098 42.3551 40.0494 42.4636 40.1117L43.0463 40.4465V40.096C43.0463 40.0349 43.0524 39.9744 43.0645 39.9145C43.0767 39.8545 43.0946 39.7963 43.1184 39.7398C43.1422 39.6833 43.1714 39.6297 43.206 39.5789C43.2405 39.5281 43.2798 39.4811 43.3238 39.4379C43.3678 39.3946 43.4156 39.356 43.4674 39.3221C43.5191 39.2882 43.5737 39.2595 43.6311 39.2361C43.6886 39.2127 43.7478 39.195 43.8089 39.1831C43.8699 39.1712 43.9315 39.1653 43.9937 39.1653C44.0559 39.1653 44.1175 39.1712 44.1785 39.1831C44.2395 39.195 44.2988 39.2127 44.3562 39.2361C44.4137 39.2595 44.4683 39.2882 44.52 39.3221C44.5717 39.356 44.6196 39.3946 44.6636 39.4379C44.7076 39.4811 44.7468 39.5281 44.7814 39.5789C44.8159 39.6297 44.8451 39.6833 44.8689 39.7398C44.8927 39.7963 44.9107 39.8545 44.9228 39.9145C44.935 39.9744 44.9411 40.0349 44.9411 40.096V40.4517L45.5387 40.1104C45.5924 40.0797 45.6487 40.0544 45.7076 40.0346C45.7664 40.0148 45.8267 40.0008 45.8883 39.9926C45.95 39.9845 46.0119 39.9823 46.0739 39.9862C46.136 39.99 46.1971 39.9997 46.2573 40.0154C46.3174 40.031 46.3754 40.0523 46.4313 40.0791C46.4871 40.106 46.5398 40.138 46.5893 40.1751C46.6387 40.2121 46.684 40.2535 46.7252 40.2993C46.7663 40.3451 46.8025 40.3945 46.8338 40.4474C46.8651 40.5002 46.8908 40.5555 46.9109 40.6133C46.9311 40.6711 46.9453 40.7303 46.9536 40.7909C46.9619 40.8514 46.9641 40.9122 46.9602 40.9733C46.9564 41.0343 46.9465 41.0943 46.9305 41.1534C46.9146 41.2124 46.893 41.2694 46.8656 41.3244C46.8383 41.3792 46.8057 41.4309 46.768 41.4795C46.7303 41.5282 46.6881 41.5727 46.6415 41.613C46.5948 41.6535 46.5446 41.6891 46.4908 41.7198L44.4699 42.8738C44.4023 42.9124 44.3308 42.9425 44.2556 42.9638C44.2483 42.9658 44.241 42.9678 44.2337 42.9696C44.155 42.9899 44.075 43 43.9937 43C43.8401 43 43.695 42.9653 43.5586 42.896C43.544 42.8886 43.5289 42.8804 43.5147 42.8723Z" fill="#7A7878"/>
    </g>
    <path d="M0 66H600V65H0V66Z" fill="#262626"/>
    <path fill-rule="evenodd" clip-rule="evenodd" d="M564 106H38C34.134 106 31 109.134 31 113V314C31 317.866 34.134 321 38 321H564C567.866 321 571 317.866 571 314V113C571 109.134 567.866 106 564 106ZM38 104C33.0294 104 29 108.029 29 113V314C29 318.971 33.0294 323 38 323H564C568.971 323 573 318.971 573 314V113C573 108.029 568.971 104 564 104H38Z" fill="#2C2C2C"/>
    <path fill-rule="evenodd" clip-rule="evenodd" d="M466 152H47C45.8954 152 45 152.895 45 154V180C45 181.105 45.8954 182 47 182H466C467.105 182 468 181.105 468 180V154C468 152.895 467.105 152 466 152ZM47 151C45.3431 151 44 152.343 44 154V180C44 181.657 45.3431 183 47 183H466C467.657 183 469 181.657 469 180V154C469 152.343 467.657 151 466 151H47Z" fill="#313131"/>
    <path fill-rule="evenodd" clip-rule="evenodd" d="M493 225H47C45.8954 225 45 225.895 45 227V253C45 254.105 45.8954 255 47 255H493C494.105 255 495 254.105 495 253V227C495 225.895 494.105 225 493 225ZM47 224C45.3431 224 44 225.343 44 227V253C44 254.657 45.3431 256 47 256H493C494.657 256 496 254.657 496 253V227C496 225.343 494.657 224 493 224H47Z" fill="#313131"/>
    <path fill-rule="evenodd" clip-rule="evenodd" d="M323.987 276H98.013C96.9036 276 96.0043 276.895 96.0043 278V304C96.0043 305.105 96.9036 306 98.013 306H323.987C325.096 306 325.996 305.105 325.996 304V278C325.996 276.895 325.096 276 323.987 276ZM98.013 275C96.349 275 95 276.343 95 278V304C95 305.657 96.349 307 98.013 307H323.987C325.651 307 327 305.657 327 304V278C327 276.343 325.651 275 323.987 275H98.013Z" fill="#313131"/>
    <path d="M513 230C513 226.686 515.686 224 519 224H540C543.314 224 546 226.686 546 230V250C546 253.314 543.314 256 540 256H519C515.686 256 513 253.314 513 250V230Z" fill="#151515"/>
    <path fill-rule="evenodd" clip-rule="evenodd" d="M540 225H519C516.239 225 514 227.239 514 230V250C514 252.761 516.239 255 519 255H540C542.761 255 545 252.761 545 250V230C545 227.239 542.761 225 540 225ZM519 224C515.686 224 513 226.686 513 230V250C513 253.314 515.686 256 519 256H540C543.314 256 546 253.314 546 250V230C546 226.686 543.314 224 540 224H519Z" fill="#4F4F4F"/>
    <path fill-rule="evenodd" clip-rule="evenodd" d="M520.379 231.879C520.941 231.316 521.704 231 522.5 231H527.879C528.175 231 528.468 231.058 528.741 231.172C529.014 231.285 529.261 231.451 529.47 231.66L531.59 233.78C531.73 233.92 531.922 234 532.121 234C532.122 234 532.121 234 532.121 234H537.5C538.296 234 539.059 234.316 539.621 234.879C540.184 235.441 540.5 236.204 540.5 237V246C540.5 246.796 540.184 247.559 539.621 248.121C539.059 248.684 538.296 249 537.5 249H522.5C521.704 249 520.941 248.684 520.379 248.121C519.816 247.559 519.5 246.796 519.5 246V234C519.5 233.204 519.816 232.441 520.379 231.879ZM521 240V246C521 246.398 521.158 246.779 521.439 247.061C521.721 247.342 522.102 247.5 522.5 247.5H537.5C537.898 247.5 538.279 247.342 538.561 247.061C538.842 246.779 539 246.398 539 246V240C539 239.602 538.842 239.221 538.561 238.939C538.279 238.658 537.898 238.5 537.5 238.5H522.5C522.102 238.5 521.721 238.658 521.439 238.939C521.158 239.221 521 239.602 521 240ZM539 237.402C538.548 237.141 538.031 237 537.5 237H522.5C521.969 237 521.452 237.141 521 237.402V234C521 233.602 521.158 233.221 521.439 232.939C521.721 232.658 522.102 232.5 522.5 232.5H527.879C527.879 232.5 527.879 232.5 527.879 232.5C527.977 232.5 528.075 232.519 528.166 232.557C528.257 232.595 528.34 232.65 528.409 232.72L530.529 234.84C530.951 235.262 531.524 235.499 532.12 235.5H537.5C537.898 235.5 538.279 235.658 538.561 235.939C538.842 236.221 539 236.602 539 237V237.402Z" fill="#6C6C6C"/>
    <path d="M474 157C474 153.686 476.686 151 480 151H540C543.314 151 546 153.686 546 157V177C546 180.314 543.314 183 540 183H480C476.686 183 474 180.314 474 177V157Z" fill="#151515"/>
    <path fill-rule="evenodd" clip-rule="evenodd" d="M540 152H480C477.239 152 475 154.239 475 157V177C475 179.761 477.239 182 480 182H540C542.761 182 545 179.761 545 177V157C545 154.239 542.761 152 540 152ZM480 151C476.686 151 474 153.686 474 157V177C474 180.314 476.686 183 480 183H540C543.314 183 546 180.314 546 177V157C546 153.686 543.314 151 540 151H480Z" fill="#4F4F4F"/>
    <g clip-path="url(#clip1_105_46)">
        <path d="M489.745 157.033C489.826 157.011 489.909 157 489.992 157C490.076 157 490.159 157.011 490.24 157.032C490.321 157.053 490.397 157.085 490.47 157.126L492.491 158.28C492.545 158.311 492.595 158.346 492.641 158.387C492.688 158.427 492.73 158.472 492.768 158.52C492.806 158.569 492.838 158.621 492.866 158.676C492.893 158.731 492.915 158.788 492.931 158.847C492.946 158.906 492.956 158.966 492.96 159.027C492.964 159.088 492.962 159.149 492.954 159.209C492.945 159.27 492.931 159.329 492.911 159.387C492.891 159.444 492.865 159.5 492.834 159.553C492.803 159.605 492.766 159.655 492.725 159.701C492.684 159.746 492.639 159.788 492.589 159.825C492.54 159.862 492.487 159.894 492.431 159.921C492.375 159.948 492.317 159.969 492.257 159.985C492.197 160 492.136 160.01 492.074 160.014C492.012 160.018 491.95 160.016 491.888 160.007C491.827 159.999 491.766 159.985 491.708 159.965C491.649 159.946 491.592 159.92 491.539 159.89L489.995 159.008L488.464 159.888C488.41 159.919 488.354 159.945 488.295 159.965C488.236 159.985 488.176 159.999 488.114 160.007C488.053 160.015 487.991 160.018 487.929 160.014C487.867 160.01 487.805 160.001 487.745 159.985C487.685 159.97 487.627 159.949 487.571 159.922C487.515 159.895 487.462 159.863 487.413 159.827C487.363 159.79 487.318 159.748 487.277 159.703C487.235 159.657 487.199 159.608 487.168 159.555C487.104 159.448 487.064 159.334 487.047 159.212C487.03 159.089 487.037 158.968 487.069 158.849C487.101 158.73 487.155 158.621 487.23 158.522C487.306 158.424 487.399 158.344 487.507 158.281L489.515 157.127C489.588 157.086 489.664 157.054 489.745 157.033ZM481.469 161.744L483.477 160.59C483.531 160.559 483.587 160.534 483.646 160.514C483.705 160.494 483.765 160.479 483.827 160.471C483.888 160.463 483.95 160.46 484.012 160.464C484.075 160.468 484.136 160.477 484.196 160.493C484.256 160.508 484.314 160.529 484.37 160.556C484.426 160.583 484.479 160.615 484.528 160.652C484.578 160.689 484.623 160.73 484.665 160.776C484.706 160.821 484.742 160.871 484.774 160.923C484.805 160.976 484.831 161.031 484.851 161.089C484.871 161.147 484.886 161.206 484.894 161.267C484.903 161.327 484.905 161.388 484.901 161.449C484.898 161.51 484.888 161.57 484.872 161.629C484.856 161.688 484.835 161.745 484.808 161.8C484.781 161.855 484.748 161.907 484.711 161.956C484.673 162.004 484.631 162.049 484.584 162.09C484.538 162.13 484.488 162.166 484.434 162.197L483.824 162.547L484.434 162.898C484.488 162.929 484.538 162.965 484.584 163.005C484.631 163.046 484.673 163.09 484.711 163.139C484.748 163.188 484.781 163.24 484.808 163.295C484.835 163.35 484.856 163.407 484.872 163.466C484.888 163.525 484.898 163.585 484.901 163.646C484.905 163.707 484.903 163.768 484.894 163.828C484.886 163.889 484.871 163.948 484.851 164.006C484.831 164.063 484.805 164.119 484.774 164.171C484.71 164.278 484.628 164.369 484.528 164.443C484.428 164.518 484.317 164.571 484.196 164.602C484.074 164.633 483.951 164.64 483.827 164.624C483.702 164.607 483.586 164.567 483.477 164.505L482.895 164.17V164.521C482.895 164.582 482.889 164.642 482.877 164.702C482.864 164.762 482.846 164.82 482.823 164.877C482.799 164.933 482.77 164.987 482.735 165.038C482.701 165.089 482.661 165.136 482.617 165.179C482.573 165.222 482.525 165.261 482.474 165.294C482.422 165.328 482.367 165.357 482.31 165.38C482.252 165.404 482.193 165.422 482.132 165.433C482.071 165.445 482.01 165.451 481.947 165.451C481.885 165.451 481.824 165.445 481.763 165.433C481.702 165.422 481.642 165.404 481.585 165.38C481.527 165.357 481.473 165.328 481.421 165.294C481.369 165.261 481.321 165.222 481.277 165.179C481.233 165.136 481.194 165.089 481.16 165.038C481.125 164.987 481.096 164.933 481.072 164.877C481.048 164.82 481.03 164.762 481.018 164.702C481.006 164.642 481 164.582 481 164.521V162.547C481 162.467 481.01 162.389 481.031 162.312C481.05 162.239 481.078 162.169 481.115 162.103C481.12 162.094 481.125 162.086 481.13 162.077C481.213 161.937 481.327 161.826 481.469 161.744ZM496.176 162.547L495.566 162.197C495.512 162.166 495.462 162.13 495.416 162.09C495.369 162.049 495.327 162.004 495.289 161.956C495.252 161.907 495.219 161.855 495.192 161.8C495.165 161.745 495.144 161.688 495.128 161.629C495.112 161.57 495.102 161.51 495.098 161.449C495.095 161.388 495.097 161.327 495.106 161.267C495.114 161.206 495.129 161.147 495.149 161.089C495.169 161.031 495.195 160.976 495.226 160.923C495.29 160.817 495.372 160.726 495.472 160.652C495.572 160.577 495.683 160.524 495.804 160.493C495.926 160.462 496.049 160.454 496.173 160.471C496.298 160.488 496.414 160.527 496.523 160.59L498.53 161.744C498.663 161.82 498.771 161.922 498.853 162.049C498.859 162.058 498.865 162.068 498.87 162.077C498.948 162.208 498.991 162.35 498.999 162.501C499 162.516 499 162.531 499 162.546V164.521C499 164.582 498.994 164.642 498.982 164.702C498.97 164.762 498.952 164.82 498.928 164.877C498.904 164.933 498.875 164.987 498.84 165.038C498.806 165.089 498.767 165.136 498.722 165.179C498.679 165.222 498.631 165.261 498.579 165.294C498.527 165.328 498.473 165.357 498.415 165.38C498.358 165.404 498.298 165.422 498.237 165.433C498.176 165.445 498.115 165.451 498.053 165.451C497.99 165.451 497.929 165.445 497.868 165.433C497.807 165.422 497.748 165.404 497.69 165.38C497.633 165.357 497.578 165.328 497.526 165.294C497.475 165.261 497.427 165.222 497.383 165.179C497.339 165.136 497.299 165.089 497.265 165.038C497.23 164.987 497.201 164.933 497.177 164.877C497.154 164.82 497.136 164.762 497.123 164.702C497.111 164.642 497.105 164.582 497.105 164.521V164.17L496.523 164.505C496.414 164.567 496.298 164.607 496.173 164.624C496.049 164.64 495.926 164.633 495.804 164.602C495.683 164.571 495.572 164.518 495.472 164.443C495.372 164.369 495.29 164.278 495.226 164.171C495.195 164.119 495.169 164.063 495.149 164.006C495.129 163.948 495.114 163.889 495.106 163.828C495.097 163.768 495.095 163.707 495.098 163.646C495.102 163.585 495.112 163.525 495.128 163.466C495.144 163.407 495.165 163.35 495.192 163.295C495.219 163.24 495.252 163.188 495.289 163.139C495.327 163.09 495.369 163.046 495.416 163.005C495.462 162.965 495.512 162.929 495.566 162.898L496.176 162.547ZM490.941 167.7V169.137C490.941 169.198 490.935 169.259 490.923 169.319C490.911 169.379 490.893 169.437 490.869 169.493C490.845 169.55 490.816 169.604 490.781 169.654C490.747 169.705 490.708 169.752 490.664 169.795C490.62 169.839 490.572 169.877 490.52 169.911C490.468 169.945 490.414 169.974 490.356 169.997C490.299 170.02 490.24 170.038 490.179 170.05C490.117 170.062 490.056 170.068 489.994 170.068C489.931 170.068 489.87 170.062 489.809 170.05C489.748 170.038 489.689 170.02 489.631 169.997C489.574 169.974 489.519 169.945 489.467 169.911C489.416 169.877 489.368 169.839 489.324 169.795C489.28 169.752 489.241 169.705 489.206 169.654C489.171 169.604 489.142 169.55 489.118 169.493C489.095 169.437 489.077 169.379 489.065 169.319C489.052 169.259 489.046 169.198 489.046 169.137V167.698L487.507 166.813C487.453 166.782 487.403 166.747 487.357 166.706C487.31 166.666 487.268 166.621 487.23 166.572C487.193 166.524 487.16 166.472 487.133 166.417C487.106 166.362 487.085 166.305 487.069 166.246C487.053 166.186 487.043 166.126 487.04 166.065C487.036 166.004 487.038 165.944 487.047 165.883C487.055 165.823 487.07 165.763 487.09 165.706C487.11 165.648 487.136 165.593 487.168 165.54C487.199 165.487 487.235 165.438 487.277 165.392C487.318 165.346 487.363 165.305 487.413 165.268C487.462 165.231 487.515 165.199 487.571 165.173C487.627 165.146 487.685 165.125 487.745 165.109C487.805 165.094 487.867 165.084 487.929 165.081C487.991 165.077 488.053 165.079 488.114 165.088C488.176 165.096 488.236 165.11 488.295 165.13C488.354 165.15 488.41 165.176 488.464 165.206L489.995 166.087L491.539 165.205C491.592 165.174 491.649 165.149 491.708 165.129C491.766 165.109 491.827 165.096 491.888 165.087C491.95 165.079 492.012 165.077 492.074 165.081C492.136 165.085 492.197 165.094 492.257 165.11C492.317 165.126 492.375 165.147 492.431 165.174C492.487 165.201 492.54 165.233 492.589 165.27C492.639 165.307 492.684 165.348 492.725 165.394C492.766 165.44 492.803 165.489 492.834 165.542C492.897 165.649 492.937 165.763 492.954 165.886C492.97 166.008 492.963 166.129 492.931 166.248C492.898 166.367 492.844 166.476 492.768 166.574C492.692 166.672 492.599 166.752 492.491 166.815L490.941 167.7ZM481.275 171.108C481.216 171.05 481.167 170.986 481.126 170.916C481.084 170.845 481.053 170.771 481.032 170.692C481.011 170.614 481 170.534 481 170.453V168.479C481 168.418 481.006 168.358 481.018 168.298C481.03 168.238 481.048 168.18 481.072 168.123C481.096 168.067 481.125 168.013 481.16 167.962C481.194 167.912 481.234 167.864 481.277 167.821C481.321 167.778 481.369 167.739 481.421 167.706C481.473 167.672 481.527 167.643 481.585 167.62C481.642 167.596 481.702 167.578 481.763 167.567C481.824 167.555 481.885 167.549 481.947 167.549C482.01 167.549 482.071 167.555 482.132 167.567C482.193 167.578 482.252 167.596 482.31 167.62C482.367 167.643 482.422 167.672 482.474 167.706C482.525 167.739 482.573 167.778 482.617 167.821C482.661 167.864 482.701 167.912 482.735 167.962C482.77 168.013 482.799 168.067 482.823 168.123C482.846 168.18 482.864 168.238 482.877 168.298C482.889 168.358 482.895 168.418 482.895 168.479V169.919L484.434 170.803C484.543 170.866 484.635 170.946 484.711 171.044C484.787 171.143 484.84 171.252 484.872 171.371C484.904 171.49 484.911 171.611 484.894 171.734C484.877 171.856 484.837 171.97 484.774 172.077C484.742 172.129 484.706 172.179 484.665 172.224C484.623 172.27 484.578 172.311 484.528 172.348C484.479 172.385 484.426 172.417 484.37 172.444C484.314 172.471 484.256 172.492 484.196 172.507C484.136 172.523 484.075 172.532 484.012 172.536C483.95 172.54 483.888 172.537 483.827 172.529C483.765 172.521 483.705 172.506 483.646 172.486C483.587 172.466 483.531 172.441 483.477 172.41L481.469 171.256C481.398 171.215 481.333 171.166 481.275 171.108ZM498.968 170.692C498.947 170.771 498.916 170.845 498.874 170.916C498.833 170.986 498.784 171.05 498.725 171.108C498.667 171.166 498.602 171.215 498.531 171.256L496.523 172.41C496.469 172.441 496.413 172.466 496.354 172.486C496.295 172.506 496.235 172.521 496.173 172.529C496.112 172.537 496.05 172.54 495.988 172.536C495.925 172.532 495.864 172.523 495.804 172.507C495.744 172.492 495.686 172.471 495.63 172.444C495.574 172.417 495.521 172.385 495.472 172.348C495.422 172.311 495.377 172.27 495.335 172.224C495.294 172.179 495.258 172.129 495.226 172.077C495.195 172.024 495.169 171.969 495.149 171.911C495.129 171.853 495.114 171.794 495.106 171.734C495.097 171.673 495.095 171.612 495.098 171.551C495.102 171.49 495.112 171.43 495.128 171.371C495.144 171.312 495.165 171.255 495.192 171.2C495.219 171.145 495.252 171.093 495.289 171.044C495.327 170.996 495.369 170.951 495.416 170.91C495.462 170.87 495.512 170.834 495.566 170.803L497.105 169.919V168.479C497.105 168.418 497.111 168.358 497.123 168.298C497.136 168.238 497.154 168.18 497.177 168.123C497.201 168.067 497.23 168.013 497.265 167.962C497.299 167.912 497.339 167.864 497.383 167.821C497.427 167.778 497.475 167.739 497.526 167.706C497.578 167.672 497.633 167.643 497.69 167.62C497.748 167.596 497.807 167.578 497.868 167.567C497.929 167.555 497.99 167.549 498.053 167.549C498.115 167.549 498.176 167.555 498.237 167.567C498.298 167.578 498.358 167.596 498.415 167.62C498.473 167.643 498.527 167.672 498.579 167.706C498.631 167.739 498.679 167.778 498.722 167.821C498.767 167.864 498.806 167.912 498.84 167.962C498.875 168.013 498.904 168.067 498.928 168.123C498.952 168.18 498.97 168.238 498.982 168.298C498.994 168.358 499 168.418 499 168.479V170.453C499 170.534 498.989 170.614 498.968 170.692ZM489.515 175.872L487.507 174.719C487.453 174.688 487.403 174.652 487.357 174.611C487.31 174.571 487.268 174.526 487.23 174.478C487.193 174.429 487.16 174.377 487.133 174.322C487.106 174.267 487.085 174.21 487.069 174.151C487.053 174.092 487.043 174.032 487.04 173.971C487.036 173.91 487.038 173.849 487.047 173.788C487.055 173.728 487.07 173.669 487.09 173.611C487.11 173.553 487.136 173.498 487.168 173.445C487.231 173.339 487.313 173.248 487.413 173.173C487.513 173.099 487.624 173.046 487.745 173.015C487.867 172.983 487.99 172.976 488.114 172.993C488.239 173.01 488.355 173.049 488.464 173.112L489.046 173.446V173.096C489.046 173.035 489.052 172.974 489.065 172.914C489.077 172.854 489.095 172.796 489.118 172.74C489.142 172.683 489.171 172.63 489.206 172.579C489.241 172.528 489.28 172.481 489.324 172.438C489.368 172.395 489.416 172.356 489.467 172.322C489.519 172.288 489.574 172.26 489.631 172.236C489.689 172.213 489.748 172.195 489.809 172.183C489.87 172.171 489.931 172.165 489.994 172.165C490.056 172.165 490.117 172.171 490.179 172.183C490.24 172.195 490.299 172.213 490.356 172.236C490.414 172.26 490.468 172.288 490.52 172.322C490.572 172.356 490.62 172.395 490.664 172.438C490.708 172.481 490.747 172.528 490.781 172.579C490.816 172.63 490.845 172.683 490.869 172.74C490.893 172.796 490.911 172.854 490.923 172.914C490.935 172.974 490.941 173.035 490.941 173.096V173.452L491.539 173.11C491.592 173.08 491.649 173.054 491.708 173.035C491.766 173.015 491.827 173.001 491.888 172.993C491.95 172.984 492.012 172.982 492.074 172.986C492.136 172.99 492.197 173 492.257 173.015C492.317 173.031 492.375 173.052 492.431 173.079C492.487 173.106 492.54 173.138 492.589 173.175C492.639 173.212 492.684 173.254 492.725 173.299C492.766 173.345 492.803 173.394 492.834 173.447C492.865 173.5 492.891 173.556 492.911 173.613C492.931 173.671 492.945 173.73 492.954 173.791C492.962 173.851 492.964 173.912 492.96 173.973C492.956 174.034 492.946 174.094 492.931 174.153C492.915 174.212 492.893 174.269 492.866 174.324C492.838 174.379 492.806 174.431 492.768 174.48C492.73 174.528 492.688 174.573 492.641 174.613C492.595 174.654 492.545 174.689 492.491 174.72L490.47 175.874C490.402 175.912 490.331 175.943 490.256 175.964C490.248 175.966 490.241 175.968 490.234 175.97C490.155 175.99 490.075 176 489.994 176C489.84 176 489.695 175.965 489.559 175.896C489.544 175.889 489.529 175.88 489.515 175.872Z" fill="#7A7878"/>
    </g>
    <path d="M486 281C486 277.686 488.686 275 492 275H540C543.314 275 546 277.686 546 281V301C546 304.314 543.314 307 540 307H492C488.686 307 486 304.314 486 301V281Z" fill="#151515"/>
    <path fill-rule="evenodd" clip-rule="evenodd" d="M540 276H492C489.239 276 487 278.239 487 281V301C487 303.761 489.239 306 492 306H540C542.761 306 545 303.761 545 301V281C545 278.239 542.761 276 540 276ZM492 275C488.686 275 486 277.686 486 281V301C486 304.314 488.686 307 492 307H540C543.314 307 546 304.314 546 301V281C546 277.686 543.314 275 540 275H492Z" fill="#505050"/>
    <path d="M414 281C414 277.686 416.686 275 420 275H468C471.314 275 474 277.686 474 281V301C474 304.314 471.314 307 468 307H420C416.686 307 414 304.314 414 301V281Z" fill="#151515"/>
    <path fill-rule="evenodd" clip-rule="evenodd" d="M468 276H420C417.239 276 415 278.239 415 281V301C415 303.761 417.239 306 420 306H468C470.761 306 473 303.761 473 301V281C473 278.239 470.761 276 468 276ZM420 275C416.686 275 414 277.686 414 281V301C414 304.314 416.686 307 420 307H468C471.314 307 474 304.314 474 301V281C474 277.686 471.314 275 468 275H420Z" fill="#505050"/>
    <path d="M342 281C342 277.686 344.686 275 348 275H396C399.314 275 402 277.686 402 281V301C402 304.314 399.314 307 396 307H348C344.686 307 342 304.314 342 301V281Z" fill="#151515"/>
    <path fill-rule="evenodd" clip-rule="evenodd" d="M396 276H348C345.239 276 343 278.239 343 281V301C343 303.761 345.239 306 348 306H396C398.761 306 401 303.761 401 301V281C401 278.239 398.761 276 396 276ZM348 275C344.686 275 342 277.686 342 281V301C342 304.314 344.686 307 348 307H396C399.314 307 402 304.314 402 301V281C402 277.686 399.314 275 396 275H348Z" fill="#505050"/>
    <path d="M567.487 26.2596C567.57 26.1765 567.666 26.1124 567.774 26.0675C567.883 26.0225 567.996 26 568.114 26C568.231 26 568.344 26.0225 568.453 26.0675C568.561 26.1124 568.657 26.1765 568.74 26.2596C568.782 26.3008 568.818 26.3455 568.851 26.3939C568.883 26.4423 568.91 26.4934 568.933 26.5472C568.955 26.6009 568.972 26.6564 568.983 26.7134C568.994 26.7705 569 26.8282 569 26.8864C569 26.9446 568.994 27.0022 568.983 27.0593C568.972 27.1164 568.955 27.1718 568.933 27.2256C568.91 27.2793 568.883 27.3304 568.851 27.3788C568.818 27.4272 568.782 27.472 568.74 27.5131L563.754 32.5L568.74 37.4869C568.782 37.528 568.818 37.5728 568.851 37.6212C568.883 37.6695 568.91 37.7206 568.933 37.7745C568.955 37.8282 568.972 37.8836 568.983 37.9407C568.994 37.9978 569 38.0554 569 38.1136C569 38.1719 568.994 38.2295 568.983 38.2865C568.972 38.3437 568.955 38.3991 568.933 38.4528C568.91 38.5066 568.883 38.5577 568.851 38.6061C568.818 38.6545 568.782 38.6992 568.74 38.7404C568.699 38.7816 568.654 38.8183 568.606 38.8506C568.558 38.8829 568.507 38.9102 568.453 38.9325C568.399 38.9548 568.344 38.9716 568.287 38.983C568.229 38.9943 568.172 39 568.114 39C568.055 39 567.998 38.9943 567.941 38.983C567.884 38.9716 567.828 38.9548 567.774 38.9325C567.721 38.9102 567.67 38.8829 567.621 38.8506C567.573 38.8183 567.528 38.7816 567.487 38.7404L562.5 33.7536L557.513 38.7404C557.472 38.7816 557.427 38.8183 557.379 38.8506C557.33 38.8829 557.279 38.9102 557.226 38.9325C557.172 38.9548 557.116 38.9716 557.059 38.983C557.002 38.9943 556.945 39 556.886 39C556.828 39 556.771 38.9943 556.713 38.983C556.656 38.9716 556.601 38.9548 556.547 38.9325C556.493 38.9102 556.442 38.8829 556.394 38.8506C556.346 38.8183 556.301 38.7816 556.26 38.7404C556.176 38.6572 556.112 38.5614 556.067 38.4528C556.022 38.3442 556 38.2312 556 38.1136C556 37.9961 556.022 37.883 556.067 37.7745C556.112 37.6659 556.176 37.57 556.26 37.4869L561.246 32.5L556.26 27.5131C556.218 27.472 556.182 27.4272 556.149 27.3788C556.117 27.3304 556.09 27.2793 556.067 27.2256C556.045 27.1718 556.028 27.1164 556.017 27.0593C556.006 27.0022 556 26.9446 556 26.8864C556 26.8282 556.006 26.7705 556.017 26.7134C556.028 26.6564 556.045 26.6009 556.067 26.5472C556.09 26.4934 556.117 26.4423 556.149 26.3939C556.182 26.3455 556.218 26.3008 556.26 26.2596C556.301 26.2185 556.346 26.1817 556.394 26.1494C556.442 26.117 556.493 26.0897 556.547 26.0675C556.601 26.0452 556.656 26.0284 556.713 26.017C556.771 26.0057 556.828 26 556.886 26C556.945 26 557.002 26.0057 557.059 26.017C557.116 26.0284 557.172 26.0452 557.226 26.0675C557.279 26.0897 557.33 26.117 557.379 26.1494C557.427 26.1817 557.472 26.2185 557.513 26.2596L562.5 31.2465L567.487 26.2596Z" fill="#914154"/>
    <defs>
        <clipPath id="clip0_105_46">
            <rect width="18" height="19" fill="white" transform="translate(35 24)"/>
        </clipPath>
        <clipPath id="clip1_105_46">
            <rect width="18" height="19" fill="white" transform="translate(481 157)"/>
        </clipPath>
    </defs>
</svg>
