<svg width="32" height="32" viewBox="0 0 32 32" fill="none" xmlns="http://www.w3.org/2000/svg">
<rect width="32" height="32" fill="#181818"/>
<rect x="0.5" y="0.5" width="31" height="31" rx="15.5" fill="#242424" stroke="#494949"/>
<path d="M13.594 7.94C13.684 7.398 14.154 7 14.704 7H17.297C17.847 7 18.317 7.398 18.407 7.94L18.62 9.221C18.683 9.595 18.933 9.907 19.265 10.091C19.339 10.131 19.412 10.174 19.485 10.218C19.809 10.414 20.205 10.475 20.56 10.342L21.777 9.886C22.0264 9.79221 22.301 9.78998 22.5518 9.87971C22.8027 9.96945 23.0136 10.1453 23.147 10.376L24.443 12.623C24.576 12.8537 24.6229 13.1241 24.5753 13.3862C24.5277 13.6482 24.3887 13.8848 24.183 14.054L23.18 14.881C22.887 15.121 22.742 15.494 22.749 15.873C22.7506 15.958 22.7506 16.043 22.749 16.128C22.742 16.506 22.887 16.878 23.179 17.118L24.184 17.946C24.608 18.296 24.718 18.9 24.444 19.376L23.146 21.623C23.0128 21.8536 22.8022 22.0296 22.5515 22.1195C22.3008 22.2094 22.0263 22.2074 21.777 22.114L20.56 21.658C20.205 21.525 19.81 21.586 19.484 21.782C19.4115 21.8261 19.3381 21.8688 19.264 21.91C18.933 22.093 18.683 22.405 18.62 22.779L18.407 24.059C18.317 24.602 17.847 25 17.297 25H14.703C14.153 25 13.683 24.602 13.593 24.06L13.38 22.779C13.318 22.405 13.068 22.093 12.736 21.909C12.6618 21.8681 12.5885 21.8258 12.516 21.782C12.191 21.586 11.796 21.525 11.44 21.658L10.223 22.114C9.97369 22.2075 9.69933 22.2096 9.44866 22.1199C9.19799 22.0302 8.98727 21.8545 8.85396 21.624L7.55696 19.377C7.4239 19.1463 7.37701 18.8759 7.42462 18.6138C7.47223 18.3518 7.61125 18.1152 7.81696 17.946L8.82096 17.119C9.11296 16.879 9.25796 16.506 9.25096 16.127C9.2494 16.042 9.2494 15.957 9.25096 15.872C9.25796 15.494 9.11296 15.122 8.82096 14.882L7.81696 14.054C7.6115 13.8849 7.47264 13.6484 7.42503 13.3866C7.37743 13.1248 7.42418 12.8546 7.55696 12.624L8.85396 10.377C8.98715 10.1461 9.19797 9.97006 9.44887 9.88014C9.69977 9.79021 9.97445 9.79229 10.224 9.886L11.44 10.342C11.796 10.475 12.191 10.414 12.516 10.218C12.588 10.174 12.662 10.131 12.736 10.09C13.068 9.907 13.318 9.595 13.38 9.221L13.594 7.94Z" stroke="#494949" stroke-width="1.5" stroke-linecap="round" stroke-linejoin="round"/>
<path d="M19 16C19 16.7956 18.6839 17.5587 18.1213 18.1213C17.5587 18.6839 16.7956 19 16 19C15.2044 19 14.4413 18.6839 13.8787 18.1213C13.3161 17.5587 13 16.7956 13 16C13 15.2044 13.3161 14.4413 13.8787 13.8787C14.4413 13.3161 15.2044 13 16 13C16.7956 13 17.5587 13.3161 18.1213 13.8787C18.6839 14.4413 19 15.2044 19 16Z" stroke="#494949" stroke-width="1.5" stroke-linecap="round" stroke-linejoin="round"/>
</svg>
