<svg width="32" height="32" viewBox="0 0 32 32" fill="none" xmlns="http://www.w3.org/2000/svg">
<rect width="32" height="32" fill="#181818"/>
<rect x="0.5" y="0.5" width="31" height="31" rx="15.5" fill="#242424" stroke="#494949"/>
<path d="M20.0229 13.348H25.0149L21.8339 10.165C20.8098 9.14087 19.5341 8.40439 18.1351 8.02961C16.7361 7.65482 15.2631 7.65493 13.8642 8.02992C12.4652 8.40492 11.1896 9.14159 10.1657 10.1659C9.14172 11.1901 8.40545 12.4659 8.03089 13.865M6.98489 23.644V18.652M6.98489 18.652H11.9769M6.98489 18.652L10.1649 21.835C11.189 22.8591 12.4647 23.5956 13.8637 23.9704C15.2627 24.3452 16.7357 24.3451 18.1346 23.9701C19.5336 23.5951 20.8091 22.8584 21.8331 21.8341C22.8571 20.8099 23.5933 19.5341 23.9679 18.135M25.0149 8.356V13.346" stroke="#494949" stroke-width="1.5" stroke-linecap="round" stroke-linejoin="round"/>
</svg>
