<svg width="549" height="56" viewBox="0 0 549 56" fill="none" xmlns="http://www.w3.org/2000/svg">
<rect x="3" y="3" width="543" height="50" rx="25" fill="#F1F6FC" stroke="#BEB4D7" stroke-width="6"/>
<path d="M34.5 35.9999C32.8621 36.0054 31.2341 35.7453 29.6786 35.2295C28.2457 34.7592 26.9047 34.0426 25.7154 33.1114C24.6037 32.2495 23.6815 31.1655 23.0068 29.9277C22.3481 28.7139 22.002 27.3537 22 25.971C22.0122 24.1779 22.587 22.4343 23.6426 20.9888C23.1554 20.0279 23.0422 18.9188 23.3251 17.8784C23.608 16.838 24.2667 15.9411 25.1723 15.3629C26.0779 14.7847 27.1655 14.5669 28.2224 14.752C29.2792 14.9371 30.2295 15.5119 30.8873 16.3638C33.1177 15.8333 35.4367 15.8001 37.6812 16.2666C37.9572 15.7554 38.3328 15.3052 38.7855 14.943C39.2382 14.5808 39.7588 14.3138 40.3163 14.1581C40.8738 14.0024 41.4568 13.9612 42.0305 14.0367C42.6041 14.1123 43.1568 14.3032 43.6556 14.5981C44.1543 14.893 44.5889 15.2857 44.9335 15.753C45.2781 16.2203 45.5256 16.7526 45.6613 17.3181C45.797 17.8836 45.8181 18.4707 45.7233 19.0446C45.6285 19.6184 45.4198 20.1672 45.1097 20.6583C46.3473 22.2477 47 24.0742 47 25.9686C46.9976 27.3514 46.651 28.7116 45.992 29.9252C45.3178 31.163 44.396 32.247 43.2846 33.109C42.0948 34.0401 40.7535 34.7568 39.3202 35.2271C37.7652 35.7436 36.1376 36.0045 34.5 35.9999ZM27.4898 15.9337C26.9369 15.9336 26.3942 16.0832 25.9188 16.3668C25.4433 16.6504 25.0525 17.0574 24.7876 17.5452C24.5226 18.0331 24.3931 18.5836 24.4129 19.1391C24.4326 19.6946 24.6007 20.2344 24.8996 20.702L25.1413 21.0727L24.8718 21.419C23.8033 22.7897 23.2401 24.3634 23.2401 25.971C23.2401 30.8184 28.2947 34.7629 34.5085 34.7629C40.7222 34.7629 45.7768 30.8184 45.7768 25.971C45.7768 24.226 45.1193 22.5394 43.8768 21.0921L43.5396 20.6996L43.8647 20.2974C44.3108 19.7488 44.5539 19.0617 44.5525 18.3531C44.5597 17.6276 44.3134 16.9226 43.8564 16.3611C43.3994 15.7997 42.7608 15.4173 42.0521 15.2809C41.3434 15.1445 40.6095 15.2626 39.9785 15.6146C39.3476 15.9667 38.8596 16.5303 38.5998 17.2072L38.4028 17.709L37.8806 17.5802C35.5463 17.0145 33.1083 17.0442 30.7882 17.6665L30.3458 17.788L30.1041 17.3967C29.829 16.9478 29.4437 16.5774 28.9853 16.3212C28.5269 16.065 28.0106 15.9315 27.4861 15.9337H27.4898Z" fill="#8A71B1"/>
<path d="M31.5014 25C31.2047 25.0002 30.9146 24.9417 30.6677 24.8319C30.4208 24.7222 30.2283 24.5661 30.1146 24.3833C30.0008 24.2006 29.9709 23.9995 30.0286 23.8055C30.0864 23.6115 30.2291 23.4332 30.4388 23.2932C30.6486 23.1533 30.9158 23.0579 31.2068 23.0193C31.4978 22.9806 31.7995 23.0004 32.0737 23.076C32.3479 23.1517 32.5822 23.2799 32.7471 23.4443C32.912 23.6088 33 23.8022 33 24C32.9996 24.265 32.8417 24.519 32.5607 24.7065C32.2798 24.8939 31.8989 24.9995 31.5014 25ZM31.5014 23.9761C31.496 23.9754 31.4904 23.9754 31.4851 23.9763C31.4797 23.9772 31.4747 23.9789 31.4705 23.9812C31.4662 23.9836 31.4628 23.9865 31.4604 23.9898C31.4581 23.9932 31.4568 23.9968 31.4568 24.0005C31.4568 24.0042 31.4581 24.0078 31.4604 24.0111C31.4628 24.0144 31.4662 24.0174 31.4705 24.0197C31.4747 24.022 31.4797 24.0237 31.4851 24.0246C31.4904 24.0255 31.496 24.0256 31.5014 24.0249C31.5099 24.0238 31.5175 24.0207 31.523 24.0163C31.5285 24.0118 31.5315 24.0062 31.5315 24.0005C31.5315 23.9947 31.5285 23.9891 31.523 23.9847C31.5175 23.9802 31.5099 23.9772 31.5014 23.9761Z" fill="#8A71B1"/>
<path d="M37.999 25C37.8013 24.9997 37.608 24.9115 37.4436 24.7464C37.2793 24.5813 37.1513 24.3469 37.0758 24.0727C37.0002 23.7985 36.9806 23.4969 37.0194 23.206C37.0582 22.915 37.1536 22.6479 37.2936 22.4383C37.4336 22.2287 37.6118 22.0861 37.8058 22.0285C37.9999 21.9709 38.2009 22.0009 38.3836 22.1147C38.5662 22.2285 38.7223 22.421 38.832 22.6678C38.9417 22.9147 39.0002 23.2048 39 23.5014C38.9999 23.6984 38.9739 23.8934 38.9235 24.0754C38.8731 24.2573 38.7994 24.4225 38.7064 24.5617C38.6135 24.7008 38.5032 24.8112 38.3818 24.8864C38.2604 24.9616 38.1304 25.0002 37.999 25ZM37.999 23.4641C37.9924 23.4641 37.9861 23.468 37.9814 23.475C37.9768 23.482 37.9742 23.4915 37.9742 23.5014C37.9744 23.5111 37.9771 23.5202 37.9818 23.5269C37.9864 23.5336 37.9926 23.5373 37.999 23.5373C38.0054 23.5373 38.0115 23.5335 38.016 23.5268C38.0204 23.5201 38.023 23.511 38.023 23.5014C38.023 23.4918 38.0205 23.4825 38.016 23.4755C38.0116 23.4686 38.0055 23.4645 37.999 23.4641Z" fill="#8A71B1"/>
<path d="M36 26.5C36 26.7757 35.5507 27 34.9953 27C34.4398 27 34 26.7806 34 26.5C34 26.2194 34.4493 26 35.0047 26C35.5602 26 36 26.2292 36 26.5Z" fill="#8A71B1"/>
<path d="M34.7181 26.2941C34.7181 26.6297 34.7322 26.9774 34.6401 27.2524C34.5572 27.4998 34.3474 27.4635 34.2628 27.2334C34.2432 27.1676 34.2123 27.1199 34.1763 27.1003C34.1404 27.0806 34.1022 27.0905 34.0696 27.1279C34.0375 27.1672 34.0141 27.2315 34.0046 27.3068C33.9952 27.382 34.0003 27.462 34.0191 27.5292C34.062 27.6546 34.1169 27.7603 34.1802 27.8396C34.2435 27.9189 34.314 27.9703 34.3873 27.9904C34.4605 28.0105 34.535 27.999 34.606 27.9565C34.677 27.9141 34.7431 27.8417 34.8002 27.7437C35.0041 27.3977 35 26.7854 35 26.2941C35 26.2161 34.9851 26.1413 34.9587 26.0861C34.9323 26.031 34.8964 26 34.859 26C34.8216 26 34.7858 26.031 34.7594 26.0861C34.7329 26.1413 34.7181 26.2161 34.7181 26.2941Z" fill="#8A71B1"/>
<path d="M35.0018 27.1843C34.9919 27.3511 35.0231 27.5177 35.0906 27.6578C35.1581 27.7979 35.2581 27.9036 35.3748 27.9583C35.4899 28.0172 35.6174 28.0136 35.7306 27.9481C35.8439 27.8826 35.934 27.7604 35.9823 27.6069C35.9997 27.5647 36.0045 27.5151 35.9956 27.4683C35.9867 27.4215 35.9649 27.3812 35.9346 27.3557C35.9036 27.3313 35.8667 27.3246 35.832 27.3369C35.7973 27.3492 35.7675 27.3796 35.7493 27.4215C35.734 27.4719 35.7122 27.5182 35.6849 27.5584C35.6671 27.5827 35.6461 27.6021 35.6229 27.6155C35.6071 27.6232 35.5909 27.629 35.5744 27.6327C35.5998 27.6263 35.5449 27.6327 35.5346 27.6327C35.5042 27.6298 35.4743 27.62 35.4463 27.6036C35.4694 27.6155 35.4241 27.5885 35.4193 27.5853C35.4145 27.5821 35.3676 27.539 35.3819 27.554C35.3682 27.5386 35.3552 27.5221 35.343 27.5045C35.3315 27.491 35.3218 27.4749 35.3143 27.457C35.2941 27.4175 35.28 27.373 35.2728 27.3259C35.2655 27.2789 35.2653 27.2304 35.2722 27.1832C35.2722 27.1346 35.2579 27.088 35.2326 27.0537C35.2072 27.0193 35.1729 27 35.137 27C35.1014 27.0011 35.0675 27.0208 35.0423 27.0549C35.0171 27.089 35.0026 27.135 35.0018 27.1832V27.1843Z" fill="#8A71B1"/>
<path d="M28 28C29.1046 28 30 27.5523 30 27C30 26.4477 29.1046 26 28 26C26.8954 26 26 26.4477 26 27C26 27.5523 26.8954 28 28 28Z" fill="#ECA6AA"/>
<path d="M44 26.5C44 27.3282 43.1045 28 41.9994 28C40.8942 28 40 27.3282 40 26.5C40 25.6718 40.8955 25 41.9994 25C43.1032 25 44 25.6775 44 26.5Z" fill="#ECA6AA"/>
<path d="M167.5 35.9999C165.862 36.0054 164.234 35.7453 162.679 35.2295C161.246 34.7592 159.905 34.0426 158.715 33.1114C157.604 32.2495 156.681 31.1655 156.007 29.9277C155.348 28.7139 155.002 27.3537 155 25.971C155.012 24.1779 155.587 22.4343 156.643 20.9888C156.155 20.0279 156.042 18.9188 156.325 17.8784C156.608 16.838 157.267 15.9411 158.172 15.3629C159.078 14.7847 160.165 14.5669 161.222 14.752C162.279 14.9371 163.229 15.5119 163.887 16.3638C166.118 15.8333 168.437 15.8001 170.681 16.2666C170.957 15.7554 171.333 15.3052 171.786 14.943C172.238 14.5808 172.759 14.3138 173.316 14.1581C173.874 14.0024 174.457 13.9612 175.03 14.0367C175.604 14.1123 176.157 14.3032 176.656 14.5981C177.154 14.893 177.589 15.2857 177.934 15.753C178.278 16.2203 178.526 16.7526 178.661 17.3181C178.797 17.8836 178.818 18.4707 178.723 19.0446C178.629 19.6184 178.42 20.1672 178.11 20.6583C179.347 22.2477 180 24.0742 180 25.9686C179.998 27.3514 179.651 28.7116 178.992 29.9252C178.318 31.163 177.396 32.247 176.285 33.109C175.095 34.0401 173.753 34.7568 172.32 35.2271C170.765 35.7436 169.138 36.0045 167.5 35.9999ZM160.49 15.9337C159.937 15.9336 159.394 16.0832 158.919 16.3668C158.443 16.6504 158.053 17.0574 157.788 17.5452C157.523 18.0331 157.393 18.5836 157.413 19.1391C157.433 19.6946 157.601 20.2344 157.9 20.702L158.141 21.0727L157.872 21.419C156.803 22.7897 156.24 24.3634 156.24 25.971C156.24 30.8184 161.295 34.7629 167.508 34.7629C173.722 34.7629 178.777 30.8184 178.777 25.971C178.777 24.226 178.119 22.5394 176.877 21.0921L176.54 20.6996L176.865 20.2974C177.311 19.7488 177.554 19.0617 177.552 18.3531C177.56 17.6276 177.313 16.9226 176.856 16.3611C176.399 15.7997 175.761 15.4173 175.052 15.2809C174.343 15.1445 173.609 15.2626 172.979 15.6146C172.348 15.9667 171.86 16.5303 171.6 17.2072L171.403 17.709L170.881 17.5802C168.546 17.0145 166.108 17.0442 163.788 17.6665L163.346 17.788L163.104 17.3967C162.829 16.9478 162.444 16.5774 161.985 16.3212C161.527 16.065 161.011 15.9315 160.486 15.9337H160.49Z" fill="#8A71B1"/>
<path d="M164.501 25C164.205 25.0002 163.915 24.9417 163.668 24.8319C163.421 24.7222 163.228 24.5661 163.115 24.3833C163.001 24.2006 162.971 23.9995 163.029 23.8055C163.086 23.6115 163.229 23.4332 163.439 23.2932C163.649 23.1533 163.916 23.0579 164.207 23.0193C164.498 22.9806 164.8 23.0004 165.074 23.076C165.348 23.1517 165.582 23.2799 165.747 23.4443C165.912 23.6088 166 23.8022 166 24C166 24.265 165.842 24.519 165.561 24.7065C165.28 24.8939 164.899 24.9995 164.501 25ZM164.501 23.9761C164.496 23.9754 164.49 23.9754 164.485 23.9763C164.48 23.9772 164.475 23.9789 164.47 23.9812C164.466 23.9836 164.463 23.9865 164.46 23.9898C164.458 23.9932 164.457 23.9968 164.457 24.0005C164.457 24.0042 164.458 24.0078 164.46 24.0111C164.463 24.0144 164.466 24.0174 164.47 24.0197C164.475 24.022 164.48 24.0237 164.485 24.0246C164.49 24.0255 164.496 24.0256 164.501 24.0249C164.51 24.0238 164.518 24.0207 164.523 24.0163C164.528 24.0118 164.531 24.0062 164.531 24.0005C164.531 23.9947 164.528 23.9891 164.523 23.9847C164.518 23.9802 164.51 23.9772 164.501 23.9761Z" fill="#8A71B1"/>
<path d="M170.999 25C170.801 24.9997 170.608 24.9115 170.444 24.7464C170.279 24.5813 170.151 24.3469 170.076 24.0727C170 23.7985 169.981 23.4969 170.019 23.206C170.058 22.915 170.154 22.6479 170.294 22.4383C170.434 22.2287 170.612 22.0861 170.806 22.0285C171 21.9709 171.201 22.0009 171.384 22.1147C171.566 22.2285 171.722 22.421 171.832 22.6678C171.942 22.9147 172 23.2048 172 23.5014C172 23.6984 171.974 23.8934 171.924 24.0754C171.873 24.2573 171.799 24.4225 171.706 24.5617C171.613 24.7008 171.503 24.8112 171.382 24.8864C171.26 24.9616 171.13 25.0002 170.999 25ZM170.999 23.4641C170.992 23.4641 170.986 23.468 170.981 23.475C170.977 23.482 170.974 23.4915 170.974 23.5014C170.974 23.5111 170.977 23.5202 170.982 23.5269C170.986 23.5336 170.993 23.5373 170.999 23.5373C171.005 23.5373 171.011 23.5335 171.016 23.5268C171.02 23.5201 171.023 23.511 171.023 23.5014C171.023 23.4918 171.02 23.4825 171.016 23.4755C171.012 23.4686 171.005 23.4645 170.999 23.4641Z" fill="#8A71B1"/>
<path d="M169 26.5C169 26.7757 168.551 27 167.995 27C167.44 27 167 26.7806 167 26.5C167 26.2194 167.449 26 168.005 26C168.56 26 169 26.2292 169 26.5Z" fill="#8A71B1"/>
<path d="M167.718 26.2941C167.718 26.6297 167.732 26.9774 167.64 27.2524C167.557 27.4998 167.347 27.4635 167.263 27.2334C167.243 27.1676 167.212 27.1199 167.176 27.1003C167.14 27.0806 167.102 27.0905 167.07 27.1279C167.037 27.1672 167.014 27.2315 167.005 27.3068C166.995 27.382 167 27.462 167.019 27.5292C167.062 27.6546 167.117 27.7603 167.18 27.8396C167.244 27.9189 167.314 27.9703 167.387 27.9904C167.461 28.0105 167.535 27.999 167.606 27.9565C167.677 27.9141 167.743 27.8417 167.8 27.7437C168.004 27.3977 168 26.7854 168 26.2941C168 26.2161 167.985 26.1413 167.959 26.0861C167.932 26.031 167.896 26 167.859 26C167.822 26 167.786 26.031 167.759 26.0861C167.733 26.1413 167.718 26.2161 167.718 26.2941Z" fill="#8A71B1"/>
<path d="M168.002 27.1843C167.992 27.3511 168.023 27.5177 168.091 27.6578C168.158 27.7979 168.258 27.9036 168.375 27.9583C168.49 28.0172 168.617 28.0136 168.731 27.9481C168.844 27.8826 168.934 27.7604 168.982 27.6069C169 27.5647 169.005 27.5151 168.996 27.4683C168.987 27.4215 168.965 27.3812 168.935 27.3557C168.904 27.3313 168.867 27.3246 168.832 27.3369C168.797 27.3492 168.768 27.3796 168.749 27.4215C168.734 27.4719 168.712 27.5182 168.685 27.5584C168.667 27.5827 168.646 27.6021 168.623 27.6155C168.607 27.6232 168.591 27.629 168.574 27.6327C168.6 27.6263 168.545 27.6327 168.535 27.6327C168.504 27.6298 168.474 27.62 168.446 27.6036C168.469 27.6155 168.424 27.5885 168.419 27.5853C168.415 27.5821 168.368 27.539 168.382 27.554C168.368 27.5386 168.355 27.5221 168.343 27.5045C168.332 27.491 168.322 27.4749 168.314 27.457C168.294 27.4175 168.28 27.373 168.273 27.3259C168.266 27.2789 168.265 27.2304 168.272 27.1832C168.272 27.1346 168.258 27.088 168.233 27.0537C168.207 27.0193 168.173 27 168.137 27C168.101 27.0011 168.067 27.0208 168.042 27.0549C168.017 27.089 168.003 27.135 168.002 27.1832V27.1843Z" fill="#8A71B1"/>
<path d="M161 28C162.105 28 163 27.5523 163 27C163 26.4477 162.105 26 161 26C159.895 26 159 26.4477 159 27C159 27.5523 159.895 28 161 28Z" fill="#ECA6AA"/>
<path d="M177 26.5C177 27.3282 176.104 28 174.999 28C173.894 28 173 27.3282 173 26.5C173 25.6718 173.896 25 174.999 25C176.103 25 177 25.6775 177 26.5Z" fill="#ECA6AA"/>
<path d="M299.5 35.9999C297.862 36.0054 296.234 35.7453 294.679 35.2295C293.246 34.7592 291.905 34.0426 290.715 33.1114C289.604 32.2495 288.681 31.1655 288.007 29.9277C287.348 28.7139 287.002 27.3537 287 25.971C287.012 24.1779 287.587 22.4343 288.643 20.9888C288.155 20.0279 288.042 18.9188 288.325 17.8784C288.608 16.838 289.267 15.9411 290.172 15.3629C291.078 14.7847 292.165 14.5669 293.222 14.752C294.279 14.9371 295.229 15.5119 295.887 16.3638C298.118 15.8333 300.437 15.8001 302.681 16.2666C302.957 15.7554 303.333 15.3052 303.786 14.943C304.238 14.5808 304.759 14.3138 305.316 14.1581C305.874 14.0024 306.457 13.9612 307.03 14.0367C307.604 14.1123 308.157 14.3032 308.656 14.5981C309.154 14.893 309.589 15.2857 309.934 15.753C310.278 16.2203 310.526 16.7526 310.661 17.3181C310.797 17.8836 310.818 18.4707 310.723 19.0446C310.629 19.6184 310.42 20.1672 310.11 20.6583C311.347 22.2477 312 24.0742 312 25.9686C311.998 27.3514 311.651 28.7116 310.992 29.9252C310.318 31.163 309.396 32.247 308.285 33.109C307.095 34.0401 305.753 34.7568 304.32 35.2271C302.765 35.7436 301.138 36.0045 299.5 35.9999ZM292.49 15.9337C291.937 15.9336 291.394 16.0832 290.919 16.3668C290.443 16.6504 290.053 17.0574 289.788 17.5452C289.523 18.0331 289.393 18.5836 289.413 19.1391C289.433 19.6946 289.601 20.2344 289.9 20.702L290.141 21.0727L289.872 21.419C288.803 22.7897 288.24 24.3634 288.24 25.971C288.24 30.8184 293.295 34.7629 299.508 34.7629C305.722 34.7629 310.777 30.8184 310.777 25.971C310.777 24.226 310.119 22.5394 308.877 21.0921L308.54 20.6996L308.865 20.2974C309.311 19.7488 309.554 19.0617 309.552 18.3531C309.56 17.6276 309.313 16.9226 308.856 16.3611C308.399 15.7997 307.761 15.4173 307.052 15.2809C306.343 15.1445 305.609 15.2626 304.979 15.6146C304.348 15.9667 303.86 16.5303 303.6 17.2072L303.403 17.709L302.881 17.5802C300.546 17.0145 298.108 17.0442 295.788 17.6665L295.346 17.788L295.104 17.3967C294.829 16.9478 294.444 16.5774 293.985 16.3212C293.527 16.065 293.011 15.9315 292.486 15.9337H292.49Z" fill="#8A71B1"/>
<path d="M296.501 25C296.205 25.0002 295.915 24.9417 295.668 24.8319C295.421 24.7222 295.228 24.5661 295.115 24.3833C295.001 24.2006 294.971 23.9995 295.029 23.8055C295.086 23.6115 295.229 23.4332 295.439 23.2932C295.649 23.1533 295.916 23.0579 296.207 23.0193C296.498 22.9806 296.8 23.0004 297.074 23.076C297.348 23.1517 297.582 23.2799 297.747 23.4443C297.912 23.6088 298 23.8022 298 24C298 24.265 297.842 24.519 297.561 24.7065C297.28 24.8939 296.899 24.9995 296.501 25ZM296.501 23.9761C296.496 23.9754 296.49 23.9754 296.485 23.9763C296.48 23.9772 296.475 23.9789 296.47 23.9812C296.466 23.9836 296.463 23.9865 296.46 23.9898C296.458 23.9932 296.457 23.9968 296.457 24.0005C296.457 24.0042 296.458 24.0078 296.46 24.0111C296.463 24.0144 296.466 24.0174 296.47 24.0197C296.475 24.022 296.48 24.0237 296.485 24.0246C296.49 24.0255 296.496 24.0256 296.501 24.0249C296.51 24.0238 296.518 24.0207 296.523 24.0163C296.528 24.0118 296.531 24.0062 296.531 24.0005C296.531 23.9947 296.528 23.9891 296.523 23.9847C296.518 23.9802 296.51 23.9772 296.501 23.9761Z" fill="#8A71B1"/>
<path d="M302.999 25C302.801 24.9997 302.608 24.9115 302.444 24.7464C302.279 24.5813 302.151 24.3469 302.076 24.0727C302 23.7985 301.981 23.4969 302.019 23.206C302.058 22.915 302.154 22.6479 302.294 22.4383C302.434 22.2287 302.612 22.0861 302.806 22.0285C303 21.9709 303.201 22.0009 303.384 22.1147C303.566 22.2285 303.722 22.421 303.832 22.6678C303.942 22.9147 304 23.2048 304 23.5014C304 23.6984 303.974 23.8934 303.924 24.0754C303.873 24.2573 303.799 24.4225 303.706 24.5617C303.613 24.7008 303.503 24.8112 303.382 24.8864C303.26 24.9616 303.13 25.0002 302.999 25ZM302.999 23.4641C302.992 23.4641 302.986 23.468 302.981 23.475C302.977 23.482 302.974 23.4915 302.974 23.5014C302.974 23.5111 302.977 23.5202 302.982 23.5269C302.986 23.5336 302.993 23.5373 302.999 23.5373C303.005 23.5373 303.011 23.5335 303.016 23.5268C303.02 23.5201 303.023 23.511 303.023 23.5014C303.023 23.4918 303.02 23.4825 303.016 23.4755C303.012 23.4686 303.005 23.4645 302.999 23.4641Z" fill="#8A71B1"/>
<path d="M301 26.5C301 26.7757 300.551 27 299.995 27C299.44 27 299 26.7806 299 26.5C299 26.2194 299.449 26 300.005 26C300.56 26 301 26.2292 301 26.5Z" fill="#8A71B1"/>
<path d="M299.718 26.2941C299.718 26.6297 299.732 26.9774 299.64 27.2524C299.557 27.4998 299.347 27.4635 299.263 27.2334C299.243 27.1676 299.212 27.1199 299.176 27.1003C299.14 27.0806 299.102 27.0905 299.07 27.1279C299.037 27.1672 299.014 27.2315 299.005 27.3068C298.995 27.382 299 27.462 299.019 27.5292C299.062 27.6546 299.117 27.7603 299.18 27.8396C299.244 27.9189 299.314 27.9703 299.387 27.9904C299.461 28.0105 299.535 27.999 299.606 27.9565C299.677 27.9141 299.743 27.8417 299.8 27.7437C300.004 27.3977 300 26.7854 300 26.2941C300 26.2161 299.985 26.1413 299.959 26.0861C299.932 26.031 299.896 26 299.859 26C299.822 26 299.786 26.031 299.759 26.0861C299.733 26.1413 299.718 26.2161 299.718 26.2941Z" fill="#8A71B1"/>
<path d="M300.002 27.1843C299.992 27.3511 300.023 27.5177 300.091 27.6578C300.158 27.7979 300.258 27.9036 300.375 27.9583C300.49 28.0172 300.617 28.0136 300.731 27.9481C300.844 27.8826 300.934 27.7604 300.982 27.6069C301 27.5647 301.005 27.5151 300.996 27.4683C300.987 27.4215 300.965 27.3812 300.935 27.3557C300.904 27.3313 300.867 27.3246 300.832 27.3369C300.797 27.3492 300.768 27.3796 300.749 27.4215C300.734 27.4719 300.712 27.5182 300.685 27.5584C300.667 27.5827 300.646 27.6021 300.623 27.6155C300.607 27.6232 300.591 27.629 300.574 27.6327C300.6 27.6263 300.545 27.6327 300.535 27.6327C300.504 27.6298 300.474 27.62 300.446 27.6036C300.469 27.6155 300.424 27.5885 300.419 27.5853C300.415 27.5821 300.368 27.539 300.382 27.554C300.368 27.5386 300.355 27.5221 300.343 27.5045C300.332 27.491 300.322 27.4749 300.314 27.457C300.294 27.4175 300.28 27.373 300.273 27.3259C300.266 27.2789 300.265 27.2304 300.272 27.1832C300.272 27.1346 300.258 27.088 300.233 27.0537C300.207 27.0193 300.173 27 300.137 27C300.101 27.0011 300.067 27.0208 300.042 27.0549C300.017 27.089 300.003 27.135 300.002 27.1832V27.1843Z" fill="#8A71B1"/>
<path d="M293 28C294.105 28 295 27.5523 295 27C295 26.4477 294.105 26 293 26C291.895 26 291 26.4477 291 27C291 27.5523 291.895 28 293 28Z" fill="#ECA6AA"/>
<path d="M309 26.5C309 27.3282 308.104 28 306.999 28C305.894 28 305 27.3282 305 26.5C305 25.6718 305.896 25 306.999 25C308.103 25 309 25.6775 309 26.5Z" fill="#ECA6AA"/>
<path d="M441.5 35.9999C439.862 36.0054 438.234 35.7453 436.679 35.2295C435.246 34.7592 433.905 34.0426 432.715 33.1114C431.604 32.2495 430.681 31.1655 430.007 29.9277C429.348 28.7139 429.002 27.3537 429 25.971C429.012 24.1779 429.587 22.4343 430.643 20.9888C430.155 20.0279 430.042 18.9188 430.325 17.8784C430.608 16.838 431.267 15.9411 432.172 15.3629C433.078 14.7847 434.165 14.5669 435.222 14.752C436.279 14.9371 437.229 15.5119 437.887 16.3638C440.118 15.8333 442.437 15.8001 444.681 16.2666C444.957 15.7554 445.333 15.3052 445.786 14.943C446.238 14.5808 446.759 14.3138 447.316 14.1581C447.874 14.0024 448.457 13.9612 449.03 14.0367C449.604 14.1123 450.157 14.3032 450.656 14.5981C451.154 14.893 451.589 15.2857 451.934 15.753C452.278 16.2203 452.526 16.7526 452.661 17.3181C452.797 17.8836 452.818 18.4707 452.723 19.0446C452.629 19.6184 452.42 20.1672 452.11 20.6583C453.347 22.2477 454 24.0742 454 25.9686C453.998 27.3514 453.651 28.7116 452.992 29.9252C452.318 31.163 451.396 32.247 450.285 33.109C449.095 34.0401 447.753 34.7568 446.32 35.2271C444.765 35.7436 443.138 36.0045 441.5 35.9999ZM434.49 15.9337C433.937 15.9336 433.394 16.0832 432.919 16.3668C432.443 16.6504 432.053 17.0574 431.788 17.5452C431.523 18.0331 431.393 18.5836 431.413 19.1391C431.433 19.6946 431.601 20.2344 431.9 20.702L432.141 21.0727L431.872 21.419C430.803 22.7897 430.24 24.3634 430.24 25.971C430.24 30.8184 435.295 34.7629 441.508 34.7629C447.722 34.7629 452.777 30.8184 452.777 25.971C452.777 24.226 452.119 22.5394 450.877 21.0921L450.54 20.6996L450.865 20.2974C451.311 19.7488 451.554 19.0617 451.552 18.3531C451.56 17.6276 451.313 16.9226 450.856 16.3611C450.399 15.7997 449.761 15.4173 449.052 15.2809C448.343 15.1445 447.609 15.2626 446.979 15.6146C446.348 15.9667 445.86 16.5303 445.6 17.2072L445.403 17.709L444.881 17.5802C442.546 17.0145 440.108 17.0442 437.788 17.6665L437.346 17.788L437.104 17.3967C436.829 16.9478 436.444 16.5774 435.985 16.3212C435.527 16.065 435.011 15.9315 434.486 15.9337H434.49Z" fill="#8A71B1"/>
<path d="M438.501 25C438.205 25.0002 437.915 24.9417 437.668 24.8319C437.421 24.7222 437.228 24.5661 437.115 24.3833C437.001 24.2006 436.971 23.9995 437.029 23.8055C437.086 23.6115 437.229 23.4332 437.439 23.2932C437.649 23.1533 437.916 23.0579 438.207 23.0193C438.498 22.9806 438.8 23.0004 439.074 23.076C439.348 23.1517 439.582 23.2799 439.747 23.4443C439.912 23.6088 440 23.8022 440 24C440 24.265 439.842 24.519 439.561 24.7065C439.28 24.8939 438.899 24.9995 438.501 25ZM438.501 23.9761C438.496 23.9754 438.49 23.9754 438.485 23.9763C438.48 23.9772 438.475 23.9789 438.47 23.9812C438.466 23.9836 438.463 23.9865 438.46 23.9898C438.458 23.9932 438.457 23.9968 438.457 24.0005C438.457 24.0042 438.458 24.0078 438.46 24.0111C438.463 24.0144 438.466 24.0174 438.47 24.0197C438.475 24.022 438.48 24.0237 438.485 24.0246C438.49 24.0255 438.496 24.0256 438.501 24.0249C438.51 24.0238 438.518 24.0207 438.523 24.0163C438.528 24.0118 438.531 24.0062 438.531 24.0005C438.531 23.9947 438.528 23.9891 438.523 23.9847C438.518 23.9802 438.51 23.9772 438.501 23.9761Z" fill="#8A71B1"/>
<path d="M444.999 25C444.801 24.9997 444.608 24.9115 444.444 24.7464C444.279 24.5813 444.151 24.3469 444.076 24.0727C444 23.7985 443.981 23.4969 444.019 23.206C444.058 22.915 444.154 22.6479 444.294 22.4383C444.434 22.2287 444.612 22.0861 444.806 22.0285C445 21.9709 445.201 22.0009 445.384 22.1147C445.566 22.2285 445.722 22.421 445.832 22.6678C445.942 22.9147 446 23.2048 446 23.5014C446 23.6984 445.974 23.8934 445.924 24.0754C445.873 24.2573 445.799 24.4225 445.706 24.5617C445.613 24.7008 445.503 24.8112 445.382 24.8864C445.26 24.9616 445.13 25.0002 444.999 25ZM444.999 23.4641C444.992 23.4641 444.986 23.468 444.981 23.475C444.977 23.482 444.974 23.4915 444.974 23.5014C444.974 23.5111 444.977 23.5202 444.982 23.5269C444.986 23.5336 444.993 23.5373 444.999 23.5373C445.005 23.5373 445.011 23.5335 445.016 23.5268C445.02 23.5201 445.023 23.511 445.023 23.5014C445.023 23.4918 445.02 23.4825 445.016 23.4755C445.012 23.4686 445.005 23.4645 444.999 23.4641Z" fill="#8A71B1"/>
<path d="M443 26.5C443 26.7757 442.551 27 441.995 27C441.44 27 441 26.7806 441 26.5C441 26.2194 441.449 26 442.005 26C442.56 26 443 26.2292 443 26.5Z" fill="#8A71B1"/>
<path d="M441.718 26.2941C441.718 26.6297 441.732 26.9774 441.64 27.2524C441.557 27.4998 441.347 27.4635 441.263 27.2334C441.243 27.1676 441.212 27.1199 441.176 27.1003C441.14 27.0806 441.102 27.0905 441.07 27.1279C441.037 27.1672 441.014 27.2315 441.005 27.3068C440.995 27.382 441 27.462 441.019 27.5292C441.062 27.6546 441.117 27.7603 441.18 27.8396C441.244 27.9189 441.314 27.9703 441.387 27.9904C441.461 28.0105 441.535 27.999 441.606 27.9565C441.677 27.9141 441.743 27.8417 441.8 27.7437C442.004 27.3977 442 26.7854 442 26.2941C442 26.2161 441.985 26.1413 441.959 26.0861C441.932 26.031 441.896 26 441.859 26C441.822 26 441.786 26.031 441.759 26.0861C441.733 26.1413 441.718 26.2161 441.718 26.2941Z" fill="#8A71B1"/>
<path d="M442.002 27.1843C441.992 27.3511 442.023 27.5177 442.091 27.6578C442.158 27.7979 442.258 27.9036 442.375 27.9583C442.49 28.0172 442.617 28.0136 442.731 27.9481C442.844 27.8826 442.934 27.7604 442.982 27.6069C443 27.5647 443.005 27.5151 442.996 27.4683C442.987 27.4215 442.965 27.3812 442.935 27.3557C442.904 27.3313 442.867 27.3246 442.832 27.3369C442.797 27.3492 442.768 27.3796 442.749 27.4215C442.734 27.4719 442.712 27.5182 442.685 27.5584C442.667 27.5827 442.646 27.6021 442.623 27.6155C442.607 27.6232 442.591 27.629 442.574 27.6327C442.6 27.6263 442.545 27.6327 442.535 27.6327C442.504 27.6298 442.474 27.62 442.446 27.6036C442.469 27.6155 442.424 27.5885 442.419 27.5853C442.415 27.5821 442.368 27.539 442.382 27.554C442.368 27.5386 442.355 27.5221 442.343 27.5045C442.332 27.491 442.322 27.4749 442.314 27.457C442.294 27.4175 442.28 27.373 442.273 27.3259C442.266 27.2789 442.265 27.2304 442.272 27.1832C442.272 27.1346 442.258 27.088 442.233 27.0537C442.207 27.0193 442.173 27 442.137 27C442.101 27.0011 442.067 27.0208 442.042 27.0549C442.017 27.089 442.003 27.135 442.002 27.1832V27.1843Z" fill="#8A71B1"/>
<path d="M435 28C436.105 28 437 27.5523 437 27C437 26.4477 436.105 26 435 26C433.895 26 433 26.4477 433 27C433 27.5523 433.895 28 435 28Z" fill="#ECA6AA"/>
<path d="M451 26.5C451 27.3282 450.104 28 448.999 28C447.894 28 447 27.3282 447 26.5C447 25.6718 447.896 25 448.999 25C450.103 25 451 25.6775 451 26.5Z" fill="#ECA6AA"/>
</svg>
