<svg width="250" height="188" viewBox="0 0 250 188" fill="none" xmlns="http://www.w3.org/2000/svg">
<g clip-path="url(#clip0_167_144)">
<path fill-rule="evenodd" clip-rule="evenodd" d="M229.691 42.5117C227.93 41.8806 226.129 41.0884 225.295 40.2962C224.476 39.5174 223.642 37.7987 222.984 36.1336C222.5 34.9117 220.658 34.9117 220.175 36.1336C219.529 37.7718 218.723 39.4502 217.916 40.2291C217.056 41.0481 215.161 41.8807 213.347 42.5252C212.056 42.9951 212.043 44.7273 213.333 45.1973C215.188 45.8821 217.164 46.7414 218.051 47.6008C218.83 48.3393 219.583 49.9506 220.201 51.5351C220.685 52.7704 222.513 52.7839 223.011 51.562C223.696 49.8701 224.543 48.1379 225.376 47.3323C226.183 46.5669 227.957 45.8015 229.677 45.1838C230.968 44.7273 230.981 42.9817 229.691 42.5117ZM33.7498 143.447C32.1906 142.883 30.5777 142.198 29.8385 141.5C29.0992 140.802 28.3734 139.298 27.782 137.834C27.3519 136.747 25.7121 136.76 25.282 137.834C24.7041 139.285 23.9917 140.762 23.2659 141.446C22.4998 142.171 20.8062 142.897 19.1933 143.474C18.0374 143.89 18.0374 145.408 19.1799 145.837C20.8331 146.441 22.5804 147.207 23.3869 147.945C24.0724 148.59 24.7578 150.013 25.2955 151.41C25.7256 152.497 27.3519 152.511 27.7955 151.437C28.4003 149.946 29.153 148.415 29.9057 147.704C30.6315 147.019 32.2041 146.347 33.7363 145.81C34.8923 145.408 34.8923 143.863 33.7498 143.447ZM81.8277 179.232C80.4299 179.232 79.3009 180.36 79.3009 181.756C79.3009 183.153 80.4299 184.28 81.8277 184.28C83.2256 184.28 84.3412 183.153 84.3412 181.756C84.3412 180.36 83.2122 179.232 81.8277 179.232ZM195.484 18.6106C194.368 18.6106 193.468 19.5102 193.468 20.6247C193.468 21.7392 194.368 22.6389 195.484 22.6389C196.599 22.6389 197.5 21.7392 197.5 20.6247C197.5 19.5102 196.599 18.6106 195.484 18.6106ZM82.2444 24.9619C82.2444 23.2834 80.8869 21.9138 79.1933 21.9138C77.5132 21.9138 76.1423 23.27 76.1423 24.9619C76.1423 26.6403 77.4998 28.0099 79.1933 28.0099C80.8869 28.0099 82.2444 26.6403 82.2444 24.9619Z" fill="#48A5DD"/>
<path fill-rule="evenodd" clip-rule="evenodd" d="M157.043 129.617C158.414 129.617 159.516 128.502 159.516 127.146L164.462 119.721C164.462 118.351 163.36 117.25 161.989 117.25C160.618 117.25 159.516 118.364 159.516 119.721L154.57 127.146C154.557 128.516 155.672 129.617 157.043 129.617Z" fill="#DE4875"/>
<path fill-rule="evenodd" clip-rule="evenodd" d="M165.699 129.617C167.07 129.617 168.172 128.502 168.172 127.146L173.118 119.721C173.118 118.351 172.016 117.25 170.645 117.25C169.274 117.25 168.172 118.364 168.172 119.721L163.226 127.146C163.226 128.516 164.328 129.617 165.699 129.617Z" fill="#DE4875"/>
<path fill-rule="evenodd" clip-rule="evenodd" d="M174.368 129.617C175.739 129.617 176.841 128.502 176.841 127.146L181.788 119.721C181.788 118.351 180.685 117.25 179.315 117.25C177.944 117.25 176.841 118.364 176.841 119.721L171.895 127.146C171.882 128.516 172.997 129.617 174.368 129.617Z" fill="#DE4875"/>
<path fill-rule="evenodd" clip-rule="evenodd" d="M70.4033 129.617C71.7743 129.617 72.8764 128.502 72.8764 127.146L77.8226 119.721C77.8226 118.351 76.7205 117.25 75.3495 117.25C73.9786 117.25 72.8764 118.364 72.8764 119.721L67.9302 127.146C67.9302 128.516 69.0323 129.617 70.4033 129.617Z" fill="#DE4875"/>
<path fill-rule="evenodd" clip-rule="evenodd" d="M79.0724 129.617C80.4433 129.617 81.5455 128.502 81.5455 127.146L86.4917 119.721C86.4917 118.351 85.3896 117.25 84.0186 117.25C82.6476 117.25 81.5455 118.364 81.5455 119.721L76.5992 127.146C76.5858 128.516 77.7014 129.617 79.0724 129.617Z" fill="#DE4875"/>
<path fill-rule="evenodd" clip-rule="evenodd" d="M87.7285 129.617C89.0995 129.617 90.2016 128.502 90.2016 127.146L95.1478 119.721C95.1478 118.351 94.0457 117.25 92.6747 117.25C91.3038 117.25 90.2016 118.364 90.2016 119.721L85.2554 127.146C85.2554 128.516 86.3575 129.617 87.7285 129.617Z" fill="#DE4875"/>
<path d="M124.852 169.242C101.116 169.242 78.414 168.651 61.6129 161.507C42.5403 153.397 33.2661 137.754 33.2661 113.692C33.2661 63.0829 74.3548 21.9138 124.852 21.9138C132.957 21.9138 140.995 22.9746 148.75 25.0693C151.317 25.7675 152.836 28.4128 152.151 30.9909C151.452 33.569 148.817 35.0863 146.237 34.4015C139.301 32.5216 132.097 31.5817 124.852 31.5817C79.664 31.5817 42.9032 68.4136 42.9032 113.692C42.9032 156.391 75.3494 159.574 124.852 159.574C174.355 159.574 206.801 156.378 206.801 113.692C206.801 103.419 204.933 93.4024 201.25 83.9225C200.282 81.4384 201.519 78.6321 203.992 77.6653C206.465 76.6985 209.261 77.9338 210.228 80.4179C214.341 91.0257 216.438 102.224 216.438 113.692C216.438 137.754 207.164 153.397 188.091 161.507C171.29 168.651 148.602 169.242 124.852 169.242Z" fill="#495FA9"/>
<path d="M191.68 63.0561C190.296 63.0561 188.925 62.4652 187.971 61.3105C184.046 56.5705 179.597 52.2737 174.718 48.5274C172.608 46.9026 172.204 43.868 173.831 41.7599C175.457 39.6383 178.481 39.2489 180.592 40.8736C186.035 45.0631 191.008 49.8567 195.39 55.1606C197.083 57.215 196.801 60.2631 194.758 61.9684C193.858 62.6935 192.756 63.0561 191.68 63.0561Z" fill="#DE4875"/>
<path d="M86.1235 109.416C72.2257 109.416 62.8843 101.238 62.8843 89.0865C62.8843 75.914 73.7445 64.3662 86.1235 64.3662C98.5026 64.3662 109.363 75.914 109.363 89.0865C109.363 101.252 100.021 109.416 86.1235 109.416ZM86.1235 69.1464C76.2983 69.1464 67.6692 78.4652 67.6692 89.0865C67.6692 100.567 77.6155 104.636 86.1235 104.636C94.6316 104.636 104.578 100.567 104.578 89.0865C104.578 78.4652 95.9488 69.1464 86.1235 69.1464Z" fill="#495FA9"/>
<path d="M159.239 105.05C145.341 105.05 136 96.8722 136 84.7202C136 71.5478 146.86 60 159.239 60C171.618 60 182.478 71.5478 182.478 84.7202C182.478 96.8857 173.137 105.05 159.239 105.05ZM159.239 64.7802C149.414 64.7802 140.785 74.099 140.785 84.7202C140.785 96.2008 150.731 100.269 159.239 100.269C167.747 100.269 177.694 96.2008 177.694 84.7202C177.694 74.099 169.065 64.7802 159.239 64.7802Z" fill="#495FA9"/>
<path fill-rule="evenodd" clip-rule="evenodd" d="M10.027 121.802C10.6318 123.4 12.984 123.413 13.6157 121.829C14.4893 119.654 15.5646 117.398 16.6399 116.364C17.6748 115.37 19.9329 114.376 22.1372 113.584C23.7904 112.993 23.7904 110.738 22.1506 110.133C19.906 109.314 17.5942 108.294 16.5323 107.273C15.484 106.253 14.4221 104.051 13.5753 101.889C12.9571 100.304 10.6049 100.304 9.98664 101.902C9.1533 104.024 8.1318 106.199 7.09685 107.193C5.9947 108.254 3.56191 109.314 1.25008 110.16C-0.403148 110.764 -0.416588 113.007 1.23664 113.625C3.61567 114.511 6.12911 115.625 7.27158 116.726C8.26621 117.68 9.23395 119.748 10.027 121.802Z" fill="#EB7444"/>
<path fill-rule="evenodd" clip-rule="evenodd" d="M189.005 187.181C189.435 188.269 191.062 188.282 191.505 187.208C192.11 185.717 192.863 184.187 193.615 183.475C194.341 182.79 195.914 182.119 197.446 181.582C198.589 181.179 198.602 179.635 197.446 179.232C195.887 178.668 194.274 177.983 193.535 177.285C192.796 176.587 192.07 175.083 191.478 173.619C191.048 172.531 189.408 172.545 188.978 173.619C188.4 175.069 187.688 176.546 186.962 177.231C186.196 177.956 184.503 178.681 182.89 179.259C181.734 179.675 181.734 181.192 182.876 181.622C184.529 182.226 186.277 182.992 187.07 183.73C187.782 184.361 188.454 185.784 189.005 187.181Z" fill="#DE4875"/>
<path fill-rule="evenodd" clip-rule="evenodd" d="M52.312 20.1548C53.4411 20.1548 54.3551 21.0679 54.3551 22.1958C54.3551 23.3237 53.4411 24.2368 52.312 24.2368C51.183 24.2368 50.269 23.3237 50.269 22.1958C50.2825 21.0679 51.1965 20.1548 52.312 20.1548Z" fill="#EB7444"/>
<path fill-rule="evenodd" clip-rule="evenodd" d="M219.57 148.805C221.815 148.805 223.629 150.631 223.629 152.873C223.629 155.116 221.815 156.942 219.57 156.942C217.325 156.942 215.511 155.116 215.511 152.873C215.524 150.631 217.339 148.805 219.57 148.805Z" fill="#DE4875"/>
<path fill-rule="evenodd" clip-rule="evenodd" d="M17.0562 62.7473C18.7498 62.7473 20.1207 64.1035 20.1207 65.7954C20.1207 67.4738 18.7498 68.8435 17.0562 68.8435C15.3627 68.8435 13.9917 67.4873 13.9917 65.7954C13.9917 64.1169 15.3627 62.7473 17.0562 62.7473Z" fill="#EB7444"/>
<path fill-rule="evenodd" clip-rule="evenodd" d="M122.016 14.3809C122.446 15.4685 124.072 15.482 124.516 14.4077C125.121 12.9173 125.873 11.3865 126.626 10.6749C127.352 9.99006 128.925 9.31868 130.457 8.78158C131.599 8.37875 131.613 6.83457 130.457 6.43174C128.898 5.86778 127.285 5.18297 126.546 4.48474C125.806 3.7865 125.08 2.28261 124.489 0.819001C124.059 -0.268636 122.419 -0.255208 121.989 0.819001C121.411 2.26918 120.699 3.74622 119.973 4.43103C119.207 5.15612 117.513 5.88121 115.9 6.4586C114.744 6.87485 114.744 8.39217 115.887 8.82186C117.54 9.4261 119.287 10.1915 120.094 10.93C120.793 11.5611 121.465 12.9844 122.016 14.3809Z" fill="#EB7444"/>
<path fill-rule="evenodd" clip-rule="evenodd" d="M136.371 178.01C138.051 178.01 139.422 179.366 139.422 181.058C139.422 182.736 138.064 184.106 136.371 184.106C134.691 184.106 133.32 182.75 133.32 181.058C133.32 179.379 134.677 178.01 136.371 178.01Z" fill="#EB7444"/>
<path fill-rule="evenodd" clip-rule="evenodd" d="M48.9515 183.69C49.3816 184.777 51.0079 184.791 51.4515 183.703C52.0563 182.213 52.809 180.682 53.5617 179.97C54.2875 179.285 55.8601 178.614 57.3924 178.077C58.5348 177.674 58.5483 176.13 57.3924 175.727C55.8332 175.163 54.2203 174.478 53.4811 173.78C52.7418 173.082 52.016 171.578 51.4246 170.114C50.9945 169.027 49.3547 169.04 48.9246 170.114C48.3467 171.565 47.6343 173.042 46.9085 173.726C46.1424 174.452 44.4488 175.177 42.8359 175.754C41.68 176.17 41.68 177.688 42.8225 178.117C44.4757 178.721 46.223 179.487 47.016 180.225C47.7284 180.87 48.4139 182.293 48.9515 183.69Z" fill="#DE4875"/>
<path fill-rule="evenodd" clip-rule="evenodd" d="M239.556 133.994C240.04 135.23 241.868 135.243 242.366 134.021C243.051 132.329 243.884 130.597 244.731 129.791C245.538 129.026 247.312 128.261 249.032 127.643C250.323 127.186 250.322 125.441 249.046 124.971C247.285 124.34 245.484 123.547 244.65 122.755C243.831 121.976 242.997 120.258 242.339 118.593C241.855 117.371 240.013 117.371 239.53 118.593C238.884 120.231 238.078 121.909 237.271 122.688C236.411 123.507 234.516 124.34 232.702 124.984C231.411 125.454 231.398 127.186 232.688 127.656C234.543 128.341 236.519 129.201 237.406 130.06C238.185 130.798 238.938 132.396 239.556 133.994Z" fill="#EB7444"/>
<path fill-rule="evenodd" clip-rule="evenodd" d="M223.521 99.9685C225.201 99.9685 226.572 101.338 226.572 103.03C226.572 104.722 225.215 106.092 223.521 106.092C221.841 106.092 220.47 104.722 220.47 103.03C220.47 101.338 221.841 99.9685 223.521 99.9685Z" fill="#EB7444"/>
</g>
<defs>
<clipPath id="clip0_167_144">
<rect width="250" height="188" fill="white"/>
</clipPath>
</defs>
</svg>
