<svg width="33" height="32" viewBox="0 0 33 32" fill="none" xmlns="http://www.w3.org/2000/svg">
    <rect x="0.5" y="0.5" width="32" height="31" rx="5.5" fill="#151515" stroke="#4F4F4F"/>
    <path d="M6.84082 16.75V16C6.84082 15.4033 7.08172 14.831 7.51054 14.409C7.93935 13.9871 8.52094 13.75 9.12737 13.75H24.3711C24.9775 13.75 25.5591 13.9871 25.9879 14.409C26.4167 14.831 26.6576 15.4033 26.6576 16V16.75M17.8264 10.31L15.672 8.19C15.5305 8.05055 15.3624 7.93992 15.1774 7.86442C14.9924 7.78892 14.794 7.75004 14.5938 7.75H9.12737C8.52094 7.75 7.93935 7.98705 7.51054 8.40901C7.08172 8.83097 6.84082 9.40326 6.84082 10V22C6.84082 22.5967 7.08172 23.169 7.51054 23.591C7.93935 24.0129 8.52094 24.25 9.12737 24.25H24.3711C24.9775 24.25 25.5591 24.0129 25.9879 23.591C26.4167 23.169 26.6576 22.5967 26.6576 22V13C26.6576 12.4033 26.4167 11.831 25.9879 11.409C25.5591 10.9871 24.9775 10.75 24.3711 10.75H18.9047C18.5005 10.7496 18.112 10.5914 17.8264 10.31Z" stroke="#6C6C6C" stroke-width="1.5" stroke-linecap="round" stroke-linejoin="round"/>
</svg>
