<svg width="33" height="32" viewBox="0 0 33 32" fill="none" xmlns="http://www.w3.org/2000/svg">
    <rect x="0.5" y="0.5" width="32" height="31" rx="5.5" fill="#151515" stroke="#4F4F4F"/>
    <path d="M18.74 13L18.394 22M13.606 22L13.26 13M23.228 9.79003C23.57 9.84203 23.91 9.89703 24.25 9.95603M23.228 9.79003L22.16 23.673C22.1164 24.2383 21.8611 24.7662 21.445 25.1513C21.029 25.5364 20.4829 25.7502 19.916 25.75H12.084C11.5171 25.7502 10.971 25.5364 10.555 25.1513C10.1389 24.7662 9.88359 24.2383 9.84 23.673L8.772 9.79003M23.228 9.79003C22.0739 9.61555 20.9138 9.48313 19.75 9.39303M8.772 9.79003C8.43 9.84103 8.09 9.89603 7.75 9.95503M8.772 9.79003C9.92613 9.61555 11.0862 9.48313 12.25 9.39303M19.75 9.39303V8.47703C19.75 7.29703 18.84 6.31303 17.66 6.27603C16.5536 6.24067 15.4464 6.24067 14.34 6.27603C13.16 6.31303 12.25 7.29803 12.25 8.47703V9.39303M19.75 9.39303C17.2537 9.20011 14.7463 9.20011 12.25 9.39303" stroke="#6C6C6C" stroke-width="1.7" stroke-linecap="round" stroke-linejoin="round"/>
</svg>
