<svg width="18" height="18" viewBox="0 0 18 18" fill="none" xmlns="http://www.w3.org/2000/svg">
    <path d="M7.5 3H17.25M7.5 3C7.5 3.39782 7.34196 3.77936 7.06066 4.06066C6.77936 4.34196 6.39782 4.5 6 4.5C5.60218 4.5 5.22064 4.34196 4.93934 4.06066C4.65804 3.77936 4.5 3.39782 4.5 3M7.5 3C7.5 2.60218 7.34196 2.22064 7.06066 1.93934C6.77936 1.65804 6.39782 1.5 6 1.5C5.60218 1.5 5.22064 1.65804 4.93934 1.93934C4.65804 2.22064 4.5 2.60218 4.5 3M4.5 3H0.75M7.5 15H17.25M7.5 15C7.5 15.3978 7.34196 15.7794 7.06066 16.0607C6.77936 16.342 6.39782 16.5 6 16.5C5.60218 16.5 5.22064 16.342 4.93934 16.0607C4.65804 15.7794 4.5 15.3978 4.5 15M7.5 15C7.5 14.6022 7.34196 14.2206 7.06066 13.9393C6.77936 13.658 6.39782 13.5 6 13.5C5.60218 13.5 5.22064 13.658 4.93934 13.9393C4.65804 14.2206 4.5 14.6022 4.5 15M4.5 15H0.75M13.5 9H17.25M13.5 9C13.5 9.39782 13.342 9.77936 13.0607 10.0607C12.7794 10.342 12.3978 10.5 12 10.5C11.6022 10.5 11.2206 10.342 10.9393 10.0607C10.658 9.77936 10.5 9.39782 10.5 9M13.5 9C13.5 8.60218 13.342 8.22064 13.0607 7.93934C12.7794 7.65804 12.3978 7.5 12 7.5C11.6022 7.5 11.2206 7.65804 10.9393 7.93934C10.658 8.22064 10.5 8.60218 10.5 9M10.5 9H0.75" stroke="#6C6C6C" stroke-width="1.5" stroke-linecap="round" stroke-linejoin="round"/>
</svg>
