<?xml version="1.0" encoding="utf-8"?>
<!-- Generator: Adobe Illustrator 24.1.1, SVG Export Plug-In . SVG Version: 6.00 Build 0)  -->
<svg version="1.1" id="图层_1" xmlns="http://www.w3.org/2000/svg" xmlns:xlink="http://www.w3.org/1999/xlink" x="0px" y="0px"
	 viewBox="0 0 14 12" style="enable-background:new 0 0 14 12;" xml:space="preserve">
<style type="text/css">
	.st0{fill:#595959;stroke:#464646;stroke-width:1.5;stroke-linecap:round;stroke-linejoin:round;}
</style>
<path class="st0" d="M6.7,1c0-0.1,0.1-0.1,0.1-0.1c0.1,0,0.1-0.1,0.2-0.1c0.1,0,0.1,0,0.2,0.1C7.2,0.9,7.3,1,7.3,1l1.2,3
	c0,0.1,0.1,0.1,0.1,0.1c0,0,0.1,0.1,0.2,0.1L12,4.5c0.3,0,0.4,0.4,0.2,0.6L9.8,7.2c0,0-0.1,0.1-0.1,0.1c0,0.1,0,0.1,0,0.2l0.7,3.1
	c0,0.1,0,0.1,0,0.2c0,0.1-0.1,0.1-0.1,0.2c-0.1,0-0.1,0.1-0.2,0.1c-0.1,0-0.1,0-0.2,0L7.2,9.3c-0.1,0-0.1,0-0.2,0
	c-0.1,0-0.1,0-0.2,0L4.1,11C4,11,4,11,3.9,11c-0.1,0-0.1,0-0.2-0.1c-0.1,0-0.1-0.1-0.1-0.2c0-0.1,0-0.1,0-0.2l0.7-3.1
	c0-0.1,0-0.1,0-0.2c0-0.1-0.1-0.1-0.1-0.1L1.8,5.1c0,0-0.1-0.1-0.1-0.2c0-0.1,0-0.1,0-0.2c0-0.1,0.1-0.1,0.1-0.2
	c0.1,0,0.1-0.1,0.2-0.1l3.2-0.3c0.1,0,0.1,0,0.2-0.1c0,0,0.1-0.1,0.1-0.1L6.7,1z"/>
</svg>
